<?xml version="1.0" standalone="no"?>
<!DOCTYPE svg PUBLIC "-//W3C//DTD SVG 1.1//EN" "http://www.w3.org/Graphics/SVG/1.1/DTD/svg11.dtd" >
<svg xmlns="http://www.w3.org/2000/svg">
<metadata></metadata>
<defs>
<font id="half75" horiz-adv-x="1228" >
<font-face units-per-em="2048" ascent="1524" descent="-524" />
<missing-glyph horiz-adv-x="500" />
<glyph horiz-adv-x="0" />
<glyph horiz-adv-x="682" />
<glyph unicode=" " />
<glyph unicode="!" d="M399 18v148q0 7 5.5 12.5t13.5 5.5h147q8 0 13.5 -5.5t5.5 -12.5v-148q0 -7 -5.5 -12.5t-13.5 -5.5h-147q-8 0 -13.5 5.5t-5.5 12.5zM399 387v1081q0 8 5.5 13.5t13.5 5.5h147q7 0 13 -5.5t6 -13.5v-1081q0 -7 -5.5 -12.5t-13.5 -5.5h-147q-8 0 -13.5 5.5t-5.5 12.5z" />
<glyph unicode="&#x22;" d="M252 1118v350q0 8 5.5 13.5t12.5 5.5h148q7 0 12.5 -5.5t5.5 -13.5v-350q0 -8 -5 -13t-13 -5h-148q-8 0 -13 5t-5 13zM547 1118v350q0 8 5.5 13.5t12.5 5.5h148q7 0 12.5 -5.5t5.5 -13.5v-350q0 -8 -5.5 -13t-12.5 -5h-148q-7 0 -12.5 5t-5.5 13z" />
<glyph unicode="#" d="M0 535v104q0 7 5 12.5t13 5.5h172q8 0 13.5 5.5t5.5 13.5v172q0 -8 -5.5 -13.5t-13.5 -5.5h-172q-7 0 -12.5 5.5t-5.5 13.5v104q0 8 5.5 13.5t12.5 5.5h172q8 0 13.5 5.5t5.5 12.5v479q0 8 5.5 13.5t12.5 5.5h117q7 0 12.5 -5.5t5.5 -13.5v-516q0 8 6 13.5t13 5.5h225 q6 0 12.5 5.5t6.5 12.5v479q0 8 5.5 13.5t12.5 5.5h117q6 0 12 -6t6 -13v-516q0 8 6 13.5t13 5.5h168q7 0 12.5 -5.5t5.5 -13.5v-104q0 -8 -5.5 -13.5t-12.5 -5.5h-168q-8 0 -13.5 -5.5t-5.5 -12.5v-172q0 7 5.5 12.5t13.5 5.5h168q7 0 12.5 -5.5t5.5 -12.5v-104 q0 -8 -5.5 -13.5t-12.5 -5.5h-168q-8 0 -13.5 -5.5t-5.5 -12.5v-480q0 -7 -6 -12.5t-12 -5.5h-117q-7 0 -12.5 5t-5.5 13v517q0 -7 -6.5 -13t-12.5 -6h-225q-8 0 -13.5 -5.5t-5.5 -12.5v-480q0 -8 -5 -13t-13 -5h-117q-7 0 -12.5 5t-5.5 13v517q0 -7 -5.5 -13t-13.5 -6h-172 q-7 0 -12.5 5.5t-5.5 13.5zM362 639q0 7 5.5 12.5t13.5 5.5h225q6 0 12.5 6t6.5 13v172q0 -7 -6.5 -13t-12.5 -6h-225q-8 0 -13.5 -5.5t-5.5 -12.5v-172z" />
<glyph unicode="$" d="M0 18v105q0 7 5 12.5t13 5.5h793q7 0 12.5 5.5t5.5 13.5v237q0 8 -5.5 13.5t-12.5 5.5h-793q-8 0 -13 5t-5 13v518q0 8 5.5 13.5t12.5 5.5h416q-8 0 -13 5.5t-5 12.5v479q0 8 5.5 13.5t12.5 5.5h117q6 0 12 -6t6 -13v-479q0 -7 5.5 -12.5t13.5 -5.5h377q7 0 12.5 -5.5 t5.5 -13.5v-104q0 -8 -5.5 -13.5t-12.5 -5.5h-793q-8 0 -13 -5.5t-5 -12.5v-236q0 -7 5 -12.5t13 -5.5h793q7 0 12.5 -5.5t5.5 -12.5v-521q0 -8 -5.5 -13t-12.5 -5h-377q-8 0 -13.5 -5.5t-5.5 -12.5v-488q0 -7 -6 -12.5t-12 -5.5h-117q-8 0 -13 5t-5 13v488q0 8 5 13t13 5 h-416q-8 0 -13 5t-5 13z" />
<glyph unicode="%" d="M37 18v105q0 7 5.5 12.5t12.5 5.5h140q6 0 12 6t6 13v635q0 7 5.5 12.5t12.5 5.5h369q6 0 12 6t6 12v637q0 8 6 13.5t13 5.5h291q7 0 12.5 -5.5t5.5 -13.5v-104q0 -8 -5 -13t-13 -5h-137q-7 0 -13 -6t-6 -13v-637q0 -6 -6 -12t-12 -6h-369q-7 0 -12.5 -5.5t-5.5 -13.5 v-635q0 -7 -6.5 -12.5t-12.5 -5.5h-293q-7 0 -12.5 5t-5.5 13zM37 928v540q0 8 5.5 13.5t12.5 5.5h449q7 0 12.5 -5.5t5.5 -13.5v-540q0 -8 -5.5 -13.5t-12.5 -5.5h-449q-7 0 -12.5 5.5t-5.5 13.5zM190 1069q0 -7 5.5 -12.5t13.5 -5.5h141q8 0 13.5 5.5t5.5 12.5v258 q0 7 -5.5 13t-13.5 6h-141q-7 0 -13 -6t-6 -13v-258zM461 18v541q0 8 5.5 13.5t12.5 5.5h449q7 0 12.5 -5.5t5.5 -13.5v-541q0 -8 -5 -13t-13 -5h-449q-7 0 -12.5 5t-5.5 13zM614 160q0 -8 6 -13.5t13 -5.5h141q8 0 13.5 5.5t5.5 13.5v258q0 7 -5.5 12.5t-13.5 5.5h-141 q-8 0 -13.5 -5.5t-5.5 -12.5v-258z" />
<glyph unicode="&#x26;" d="M0 18v1450q0 8 5.5 13.5t12.5 5.5h453q6 0 12 -6t6 -13v-104q0 -7 -6 -12.5t-12 -5.5h-299q-7 0 -12.5 -5.5t-5.5 -13.5v-375q0 8 5.5 13.5t12.5 5.5h393q8 0 13.5 5.5t5.5 12.5v516q0 8 5.5 13.5t12.5 5.5h117q7 0 12.5 -5.5t5.5 -13.5v-553q0 8 5.5 13.5t13.5 5.5h209 q7 0 12.5 -5.5t5.5 -13.5v-104q0 -8 -5.5 -13.5t-12.5 -5.5h-209q-8 0 -13.5 -5.5t-5.5 -12.5v-651q0 -8 5.5 -13.5t13.5 -5.5h209q7 0 12.5 -5.5t5.5 -12.5v-105q0 -8 -5.5 -13t-12.5 -5h-947q-8 0 -13 5t-5 13zM154 160q0 -8 5.5 -13.5t12.5 -5.5h393q7 0 13 5.5t6 13.5 v688q0 -8 -6 -13.5t-13 -5.5h-393q-8 0 -13 -5.5t-5 -12.5v-651z" />
<glyph unicode="'" horiz-adv-x="1024" d="M399 1321v147q0 8 5.5 13.5t13.5 5.5h147q7 0 13 -5.5t6 -13.5v-350q0 -7 -5.5 -12.5t-13.5 -5.5h-55q-8 0 -13 5t-5 13v168q-3 17 -19 17h-55q-8 0 -13.5 5.5t-5.5 12.5z" />
<glyph unicode="(" d="M227 -365v1692q0 7 5.5 13t13.5 6h192q8 0 13.5 5.5t5.5 12.5v104q0 8 5.5 13.5t12.5 5.5h117q6 0 12 -6t6 -13v-245q0 -7 -6 -13t-12 -6h-193q-7 0 -12.5 -5t-5.5 -13v-1409q0 -8 5.5 -13.5t12.5 -5.5h193q6 0 12 -5.5t6 -12.5v-246q0 -7 -6 -12.5t-12 -5.5h-117 q-7 0 -12.5 5t-5.5 13v105q0 7 -5.5 12.5t-13.5 5.5h-192q-8 0 -13.5 5.5t-5.5 12.5z" />
<glyph unicode=")" d="M227 -260q0 7 5.5 12.5t13.5 5.5h192q6 0 12.5 6t6.5 13v1409q0 7 -6.5 12.5t-12.5 5.5h-192q-8 0 -13.5 6t-5.5 13v245q0 8 5.5 13.5t13.5 5.5h116q8 0 13.5 -5.5t5.5 -13.5v-104q0 -8 5.5 -13t12.5 -5h193q6 0 12 -6t6 -13v-1692q0 -7 -6 -12.5t-12 -5.5h-193 q-7 0 -12.5 -5.5t-5.5 -12.5v-105q0 -7 -5.5 -12.5t-13.5 -5.5h-116q-8 0 -13.5 5.5t-5.5 12.5v246z" />
<glyph unicode="*" d="M18 1145v104q0 7 6 13t13 6h184q-7 0 -12.5 6t-5.5 12v182q0 8 5.5 13.5t12.5 5.5h117q7 0 12.5 -5.5t5.5 -13.5v-182q0 -6 6 -12t13 -6h147q8 0 13.5 -6t5.5 -13v-104q0 -6 -6 -12.5t-13 -6.5h-73q-8 0 -13.5 -5.5t-5.5 -12.5v-180q0 -8 -5.5 -13.5t-12.5 -5.5h-80 q-8 0 -13.5 5.5t-5.5 13.5v180q0 7 5.5 12.5t13.5 5.5h-68q-8 0 -13 -5t-5 -13v-180q0 -8 -6 -13.5t-13 -5.5h-80q-7 0 -12.5 5.5t-5.5 13.5v180q0 8 5.5 13t12.5 5h-110q-7 0 -13 6.5t-6 12.5z" />
<glyph unicode="+" d="M0 434v105q0 7 5 12.5t13 5.5h363q7 0 12.5 5.5t5.5 12.5v377q0 8 5.5 13.5t13.5 5.5h147q7 0 13 -5.5t6 -13.5v-413q0 7 5 12.5t13 5.5h363q7 0 12.5 -5.5t5.5 -12.5v-105q0 -8 -5.5 -13t-12.5 -5h-363q-7 0 -12.5 -5.5t-5.5 -13.5v-379q0 -7 -5.5 -12.5t-13.5 -5.5 h-147q-8 0 -13.5 5.5t-5.5 12.5v416q0 -8 -5.5 -13t-12.5 -5h-363q-8 0 -13 5t-5 13z" />
<glyph unicode="," d="M399 18v148q0 7 5.5 12.5t13.5 5.5h147q8 0 13.5 -5.5t5.5 -12.5v-350q0 -8 -6 -13.5t-13 -5.5h-55q-7 0 -12.5 5.5t-5.5 13.5v168q-3 16 -19 16h-55q-8 0 -13.5 5.5t-5.5 12.5z" />
<glyph unicode="-" d="M246 428v117q0 7 5 12.5t13 5.5h578q8 0 13 -5.5t5 -12.5v-117q0 -8 -5 -13t-13 -5h-578q-8 0 -13 5t-5 13z" />
<glyph unicode="." d="M399 18v148q0 7 5.5 12.5t13.5 5.5h147q8 0 13.5 -5.5t5.5 -12.5v-148q0 -7 -5.5 -12.5t-13.5 -5.5h-147q-8 0 -13.5 5.5t-5.5 12.5z" />
<glyph unicode="/" d="M184 -506v1038q0 8 6 13.5t13 5.5h368q7 0 13 6t6 12v899q0 8 5.5 13.5t12.5 5.5h117q7 0 12.5 -5.5t5.5 -13.5v-1040q0 -6 -5.5 -12t-12.5 -6h-369q-7 0 -12.5 -5.5t-5.5 -13.5v-897q0 -7 -5.5 -12.5t-13.5 -5.5h-116q-8 0 -13.5 5.5t-5.5 12.5z" />
<glyph unicode="0" d="M0 18v1450q0 8 5.5 13.5t12.5 5.5h947q7 0 12.5 -5.5t5.5 -13.5v-1450q0 -8 -5.5 -13t-12.5 -5h-947q-8 0 -13 5t-5 13zM154 160q0 -8 5.5 -13.5t12.5 -5.5h639q7 0 12.5 5.5t5.5 13.5v1167q0 8 -5.5 13.5t-12.5 5.5h-639q-7 0 -12.5 -5.5t-5.5 -13.5v-1167z" />
<glyph unicode="1" d="M0 18v105q0 7 5 12.5t13 5.5h416q-7 0 -12.5 5.5t-5.5 13.5v1167q0 7 -6.5 13t-12.5 6h-379q-8 0 -13 5t-5 13v104q0 8 5.5 13.5t12.5 5.5h533q6 0 12 -6t6 -13v-1308q0 -8 5.5 -13.5t13.5 -5.5h377q7 0 12.5 -5.5t5.5 -12.5v-105q0 -8 -5.5 -13t-12.5 -5h-947 q-8 0 -13 5t-5 13z" />
<glyph unicode="2" d="M0 18v635q0 8 5.5 13.5t12.5 5.5h793q7 0 12.5 6t5.5 12v637q0 8 -5.5 13.5t-12.5 5.5h-639q-7 0 -12.5 -5.5t-5.5 -13.5v-338q0 -7 -5.5 -12.5t-13.5 -5.5h-117q-8 0 -13 5.5t-5 12.5v479q0 8 5.5 13.5t12.5 5.5h947q7 0 12.5 -5.5t5.5 -13.5v-919q0 -6 -5.5 -12.5 t-12.5 -6.5h-793q-8 0 -13 -5t-5 -13v-352q0 -8 5.5 -13.5t12.5 -5.5h793q7 0 12.5 -5.5t5.5 -12.5v-105q0 -8 -5.5 -13t-12.5 -5h-947q-8 0 -13 5t-5 13z" />
<glyph unicode="3" d="M0 18v105q0 7 5 12.5t13 5.5h793q7 0 12.5 5.5t5.5 13.5v530q0 -6 -5.5 -12t-12.5 -6h-793q-7 0 -12.5 6t-5.5 12v105q0 7 5 12.5t13 5.5h793q7 0 12.5 6t5.5 12v496q0 8 -5.5 13.5t-12.5 5.5h-793q-8 0 -13 5t-5 13v104q0 8 5.5 13.5t12.5 5.5h947q7 0 12.5 -5.5 t5.5 -13.5v-1450q0 -8 -5.5 -13t-12.5 -5h-947q-8 0 -13 5t-5 13z" />
<glyph unicode="4" d="M0 690v778q0 8 5.5 13.5t12.5 5.5h117q7 0 13 -5.5t6 -13.5v-637q0 -6 5.5 -12t12.5 -6h639q7 0 12.5 6t5.5 12v637q0 8 5.5 13.5t13.5 5.5h117q7 0 12.5 -5.5t5.5 -13.5v-1450q0 -8 -5.5 -13t-12.5 -5h-117q-8 0 -13.5 5.5t-5.5 12.5v672q0 -6 -5.5 -12t-12.5 -6h-793 q-7 0 -12.5 6t-5.5 12z" />
<glyph unicode="5" d="M0 18v351q0 7 5 12.5t13 5.5h117q8 0 13.5 -5.5t5.5 -12.5v-209q0 -8 5.5 -13.5t12.5 -5.5h639q7 0 12.5 5.5t5.5 13.5v651q0 7 -5.5 12.5t-12.5 5.5h-793q-7 0 -12.5 5.5t-5.5 13.5v620q0 8 5.5 13.5t12.5 5.5h947q7 0 12.5 -5.5t5.5 -13.5v-104q0 -8 -5.5 -13t-12.5 -5 h-793q-7 0 -12.5 -5.5t-5.5 -13.5v-338q0 -7 5 -12.5t13 -5.5h793q7 0 12.5 -5.5t5.5 -13.5v-934q0 -8 -5.5 -13t-12.5 -5h-947q-8 0 -13 5t-5 13z" />
<glyph unicode="6" d="M0 18v1450q0 8 5.5 13.5t12.5 5.5h947q7 0 12.5 -5.5t5.5 -13.5v-104q0 -8 -5.5 -13t-12.5 -5h-793q-7 0 -12.5 -5.5t-5.5 -13.5v-1167q0 -8 5.5 -13.5t12.5 -5.5h639q7 0 12.5 5.5t5.5 13.5v651q0 7 -5.5 12.5t-12.5 5.5h-543q-7 0 -12.5 5.5t-5.5 13.5v104 q0 8 5.5 13.5t12.5 5.5h697q7 0 12.5 -5.5t5.5 -13.5v-934q0 -8 -5.5 -13t-12.5 -5h-947q-8 0 -13 5t-5 13z" />
<glyph unicode="7" d="M6 1352v116q0 8 6 13.5t13 5.5h933q8 0 13.5 -5.5t5.5 -13.5v-1450q0 -7 -5.5 -12.5t-13.5 -5.5h-104q-8 0 -13 5t-5 13v1297q0 7 -5.5 12.5t-13.5 5.5h-792q-7 0 -13 5.5t-6 13.5z" />
<glyph unicode="8" d="M0 18v934q0 8 5.5 13.5t12.5 5.5h136q8 0 13 5.5t5 12.5v479q0 8 5.5 13.5t12.5 5.5h603q7 0 12.5 -5.5t5.5 -13.5v-479q0 -7 -5.5 -12.5t-12.5 -5.5h172q7 0 12.5 -5.5t5.5 -13.5v-934q0 -8 -5.5 -13t-12.5 -5h-947q-8 0 -13 5t-5 13zM154 160q0 -8 5.5 -13.5t12.5 -5.5 h639q7 0 12.5 5.5t5.5 13.5v651q0 7 -5.5 12.5t-12.5 5.5h-639q-8 0 -13 -5.5t-5 -12.5v-651zM307 971h332q7 0 12.5 5.5t5.5 12.5v338q0 8 -5.5 13.5t-12.5 5.5h-295q-7 0 -12.5 -5.5t-5.5 -13.5v-338q0 -7 -5.5 -12.5t-13.5 -5.5z" />
<glyph unicode="9" d="M0 18v105q0 7 5 12.5t13 5.5h793q7 0 12.5 5.5t5.5 13.5v1167q0 8 -5.5 13.5t-12.5 5.5h-639q-7 0 -12.5 -5.5t-5.5 -13.5v-651q0 -8 5.5 -13.5t12.5 -5.5h545q6 0 12 -5.5t6 -12.5v-104q0 -7 -6 -13t-12 -6h-699q-7 0 -12.5 5.5t-5.5 13.5v933q0 8 5.5 13.5t12.5 5.5 h947q7 0 12.5 -5.5t5.5 -13.5v-1450q0 -8 -5.5 -13t-12.5 -5h-947q-8 0 -13 5t-5 13z" />
<glyph unicode=":" d="M399 18v148q0 7 5.5 12.5t13.5 5.5h147q8 0 13.5 -5.5t5.5 -12.5v-148q0 -7 -5.5 -12.5t-13.5 -5.5h-147q-8 0 -13.5 5.5t-5.5 12.5zM399 805v147q0 8 5.5 13.5t13.5 5.5h147q7 0 13 -5.5t6 -13.5v-145q0 -7 -6 -13t-13 -6v-2h-147q-8 0 -13.5 6t-5.5 13z" />
<glyph unicode=";" d="M399 18v148q0 7 5.5 12.5t13.5 5.5h147q8 0 13.5 -5.5t5.5 -12.5v-350q0 -8 -6 -13.5t-13 -5.5h-55q-7 0 -12.5 5.5t-5.5 13.5v168q-3 16 -19 16h-55q-8 0 -13.5 5.5t-5.5 12.5zM399 805v147q0 8 5.5 13.5t13.5 5.5h147q7 0 13 -5.5t6 -13.5v-145q0 -7 -6 -13t-13 -6v-2 h-147q-8 0 -13.5 6t-5.5 13z" />
<glyph unicode="&#x3c;" d="M0 172v627q0 7 5 12.5t13 5.5h449q7 0 12.5 6.5t5.5 12.5v116q0 8 5.5 13.5t13.5 5.5h463q7 0 12.5 -5.5t5.5 -13.5v-104q0 -6 -5.5 -12.5t-12.5 -6.5h-322q-7 0 -12.5 -5.5t-5.5 -12.5v-117q0 -6 -6 -12t-13 -6h-436q-7 0 -12.5 -5.5t-5.5 -13.5v-344q0 -7 5 -12.5 t13 -5.5h436q8 0 13.5 -5.5t5.5 -13.5v-116q0 -8 5.5 -13.5t12.5 -5.5h322q7 0 12.5 -5.5t5.5 -12.5v-105q0 -8 -5.5 -13t-12.5 -5h-463q-8 0 -13.5 5.5t-5.5 12.5v117q0 8 -5.5 13.5t-12.5 5.5h-449q-8 0 -13 5t-5 13z" />
<glyph unicode="=" d="M0 274v117q0 8 5.5 13.5t12.5 5.5h947q7 0 12.5 -5.5t5.5 -13.5v-117q0 -8 -5.5 -13t-12.5 -5h-947q-8 0 -13 5t-5 13zM0 582v116q0 8 5.5 13.5t12.5 5.5h947q7 0 12.5 -5.5t5.5 -13.5v-116q0 -8 -5.5 -13.5t-12.5 -5.5h-947q-7 0 -12.5 5.5t-5.5 13.5z" />
<glyph unicode="&#x3e;" d="M0 18v105q0 7 5 12.5t13 5.5h322q7 0 12.5 5.5t5.5 13.5v116q0 8 6 13.5t13 5.5h436q7 0 12.5 5.5t5.5 12.5v344q0 8 -5.5 13.5t-12.5 5.5h-436q-7 0 -13 6t-6 12v117q0 7 -5 12.5t-13 5.5h-322q-7 0 -12.5 6.5t-5.5 12.5v104q0 8 5.5 13.5t12.5 5.5h463q7 0 13 -5.5 t6 -13.5v-116q0 -6 5.5 -12.5t12.5 -6.5h449q7 0 12.5 -5.5t5.5 -12.5v-627q0 -8 -5.5 -13t-12.5 -5h-449q-7 0 -12.5 -5.5t-5.5 -13.5v-117q0 -7 -5.5 -12.5t-13.5 -5.5h-463q-8 0 -13 5t-5 13z" />
<glyph unicode="?" d="M0 1364v104q0 8 5.5 13.5t12.5 5.5h947q7 0 12.5 -5.5t5.5 -13.5v-768q0 -8 -5.5 -13t-12.5 -5h-363q-8 0 -13 -5t-5 -13v-277q0 -7 -5.5 -12.5t-13.5 -5.5h-147q-8 0 -13.5 5.5t-5.5 12.5v418q0 7 5.5 12.5t13.5 5.5h393q7 0 12.5 5.5t5.5 13.5v485q0 8 -5.5 13.5 t-12.5 5.5h-793q-8 0 -13 5t-5 13zM399 18v148q0 7 5.5 12.5t13.5 5.5h147q8 0 13.5 -5.5t5.5 -12.5v-148q0 -7 -5.5 -12.5t-13.5 -5.5h-147q-8 0 -13.5 5.5t-5.5 12.5z" />
<glyph unicode="@" d="M0 18v1180q0 8 5.5 13.5t12.5 5.5h699q6 0 12 -6t6 -13v-909q0 -7 -6 -13t-12 -6h-449q-7 0 -12.5 5.5t-5.5 13.5v639q0 8 5 13t13 5h199q7 0 12.5 -5t5.5 -13v-105q0 -7 -5.5 -12.5t-12.5 -5.5h-45q-8 0 -13.5 -5.5t-5.5 -13.5v-368q0 -8 5.5 -13.5t13.5 -5.5h141 q6 0 12.5 6t6.5 13v639q0 7 -6.5 12.5t-12.5 5.5h-391q-8 0 -13 -5.5t-5 -12.5v-897q0 -8 5.5 -13.5t12.5 -5.5h639q7 0 12.5 5.5t5.5 13.5v1167q0 8 -5.5 13.5t-12.5 5.5h-793q-8 0 -13 5t-5 13v104q0 8 5.5 13.5t12.5 5.5h947q7 0 12.5 -5.5t5.5 -13.5v-1450 q0 -8 -5.5 -13t-12.5 -5h-947q-8 0 -13 5t-5 13z" />
<glyph unicode="A" d="M0 18v1450q0 8 5.5 13.5t12.5 5.5h947q7 0 12.5 -5.5t5.5 -13.5v-1450q0 -8 -5.5 -13t-12.5 -5h-117q-8 0 -13.5 5.5t-5.5 12.5v1309q0 8 -5.5 13.5t-12.5 5.5h-639q-7 0 -12.5 -5.5t-5.5 -13.5v-375q0 8 5.5 13.5t12.5 5.5h545q6 0 12 -6t6 -13v-104q0 -7 -6 -13t-12 -6 h-545q-8 0 -13 -5.5t-5 -12.5v-793q0 -7 -5.5 -12.5t-13.5 -5.5h-117q-8 0 -13 5t-5 13z" />
<glyph unicode="B" d="M0 18v1450q0 8 5.5 13.5t12.5 5.5h736q6 0 12 -6t6 -13v-553q0 -7 -6 -12.5t-12 -5.5h211q7 0 12.5 -5.5t5.5 -12.5v-861q0 -8 -5.5 -13t-12.5 -5h-947q-8 0 -13 5t-5 13zM154 160q0 -8 5.5 -13.5t12.5 -5.5h639q7 0 12.5 5.5t5.5 13.5v577q0 8 -5.5 13.5t-12.5 5.5h-543 q-8 0 -13 5t-5 13v105q0 7 5 12.5t13 5.5h332q6 0 12 5.5t6 12.5v412q0 7 -6 13t-12 6h-428q-7 0 -12.5 -5.5t-5.5 -13.5v-1167z" />
<glyph unicode="C" d="M0 18v1450q0 8 5.5 13.5t12.5 5.5h947q7 0 12.5 -5.5t5.5 -13.5v-104q0 -8 -5.5 -13t-12.5 -5h-793q-7 0 -12.5 -5.5t-5.5 -13.5v-1167q0 -8 5.5 -13.5t12.5 -5.5h793q7 0 12.5 -5.5t5.5 -12.5v-105q0 -8 -5.5 -13t-12.5 -5h-947q-8 0 -13 5t-5 13z" />
<glyph unicode="D" d="M0 18v617q0 7 5 12.5t13 5.5h117q8 0 13.5 -5.5t5.5 -12.5v-475q0 -8 5.5 -13.5t12.5 -5.5h639q7 0 12.5 5.5t5.5 13.5v1167q0 8 -5.5 13.5t-12.5 5.5h-639q-7 0 -12.5 -5.5t-5.5 -13.5v-477q0 -6 -6 -12.5t-13 -6.5h-117q-7 0 -12.5 6.5t-5.5 12.5v618q0 8 5.5 13.5 t12.5 5.5h947q7 0 12.5 -5.5t5.5 -13.5v-1450q0 -8 -5.5 -13t-12.5 -5h-947q-8 0 -13 5t-5 13z" />
<glyph unicode="E" d="M0 18v1450q0 8 5.5 13.5t12.5 5.5h947q7 0 12.5 -5.5t5.5 -13.5v-104q0 -8 -5.5 -13t-12.5 -5h-793q-7 0 -12.5 -5.5t-5.5 -13.5v-375q0 8 5.5 13.5t12.5 5.5h545q6 0 12 -6t6 -13v-104q0 -7 -6 -13t-12 -6h-545q-8 0 -13 -5.5t-5 -12.5v-651q0 -8 5.5 -13.5t12.5 -5.5 h793q7 0 12.5 -5.5t5.5 -12.5v-105q0 -8 -5.5 -13t-12.5 -5h-947q-8 0 -13 5t-5 13z" />
<glyph unicode="F" d="M0 18v1450q0 8 5.5 13.5t12.5 5.5h947q7 0 12.5 -5.5t5.5 -13.5v-104q0 -8 -5.5 -13t-12.5 -5h-793q-7 0 -12.5 -5.5t-5.5 -13.5v-375q0 8 5.5 13.5t12.5 5.5h545q6 0 12 -6t6 -13v-104q0 -7 -6 -13t-12 -6h-545q-8 0 -13 -5.5t-5 -12.5v-793q0 -7 -5.5 -12.5t-13.5 -5.5 h-117q-8 0 -13 5t-5 13z" />
<glyph unicode="G" d="M0 18v1450q0 8 5.5 13.5t12.5 5.5h947q7 0 12.5 -5.5t5.5 -13.5v-104q0 -8 -5.5 -13t-12.5 -5h-793q-7 0 -12.5 -5.5t-5.5 -13.5v-1167q0 -8 5.5 -13.5t12.5 -5.5h639q7 0 12.5 5.5t5.5 13.5v493q0 8 -5.5 13.5t-12.5 5.5h-303q-7 0 -13 6t-6 12v105q0 7 5.5 12.5 t13.5 5.5h457q7 0 12.5 -5.5t5.5 -12.5v-777q0 -8 -5.5 -13t-12.5 -5h-947q-8 0 -13 5t-5 13z" />
<glyph unicode="H" d="M0 18v1450q0 8 5.5 13.5t12.5 5.5h117q7 0 13 -5.5t6 -13.5v-516q0 8 5.5 13.5t12.5 5.5h639q7 0 12.5 5.5t5.5 12.5v479q0 8 5.5 13.5t13.5 5.5h117q7 0 12.5 -5.5t5.5 -13.5v-1450q0 -8 -5.5 -13t-12.5 -5h-117q-8 0 -13.5 5.5t-5.5 12.5v830q0 -8 -5.5 -13.5 t-12.5 -5.5h-639q-8 0 -13 -5.5t-5 -12.5v-793q0 -7 -5.5 -12.5t-13.5 -5.5h-117q-8 0 -13 5t-5 13z" />
<glyph unicode="I" d="M0 18v105q0 7 5 12.5t13 5.5h379q6 0 12.5 6t6.5 13v1167q0 8 5.5 13.5t12.5 5.5h-416q-8 0 -13 5t-5 13v104q0 8 5.5 13.5t12.5 5.5h988q7 0 12.5 -5.5t5.5 -13.5v-104q0 -8 -5 -13t-13 -5h-418q-8 0 -13.5 -6t-5.5 -13v-1167q0 -7 -6 -13t-12 -6h414q7 0 12.5 -5.5 t5.5 -12.5v-105q0 -8 -5.5 -13t-12.5 -5h-947q-8 0 -13 5t-5 13z" />
<glyph unicode="J" d="M0 18v105q0 7 5 12.5t13 5.5h793q7 0 12.5 5.5t5.5 13.5v1308q0 8 5.5 13.5t13.5 5.5h117q7 0 12.5 -5.5t5.5 -13.5v-1450q0 -8 -5.5 -13t-12.5 -5h-947q-8 0 -13 5t-5 13z" />
<glyph unicode="K" d="M0 18v1450q0 8 5.5 13.5t12.5 5.5h117q7 0 13 -5.5t6 -13.5v-553q0 -7 5 -12.5t13 -5.5h428q6 0 12 5.5t6 12.5v553q0 8 6 13.5t13 5.5h117q6 0 12 -6t6 -13v-553q0 -7 -6 -12.5t-12 -5.5h211q7 0 12.5 -5.5t5.5 -12.5v-861q0 -8 -5.5 -13t-12.5 -5h-117q-8 0 -13.5 5.5 t-5.5 12.5v719q0 8 -5.5 13.5t-12.5 5.5h-639q-7 0 -12.5 -5.5t-5.5 -13.5v-719q0 -7 -5.5 -12.5t-13.5 -5.5h-117q-8 0 -13 5t-5 13z" />
<glyph unicode="L" d="M0 18v1450q0 8 5.5 13.5t12.5 5.5h117q7 0 13 -5.5t6 -13.5v-1308q0 -8 5.5 -13.5t12.5 -5.5h793q7 0 12.5 -5.5t5.5 -12.5v-105q0 -8 -5.5 -13t-12.5 -5h-947q-8 0 -13 5t-5 13z" />
<glyph unicode="M" d="M0 18v1450q0 8 5.5 13.5t12.5 5.5h947q7 0 12.5 -5.5t5.5 -13.5v-1450q0 -8 -5.5 -13t-12.5 -5h-117q-8 0 -13.5 5.5t-5.5 12.5v1309q0 8 -5.5 13.5t-12.5 5.5h-260q6 0 12 -6t6 -13v-1309q0 -7 -6 -12.5t-12 -5.5h-117q-8 0 -13 5t-5 13v1309q0 7 -6.5 13t-12.5 6h-225 q-7 0 -12.5 -5.5t-5.5 -13.5v-1309q0 -7 -5.5 -12.5t-13.5 -5.5h-117q-8 0 -13 5t-5 13z" />
<glyph unicode="N" d="M0 18v1450q0 8 5.5 13.5t12.5 5.5h533q6 0 12 -6t6 -13v-1308q0 -8 5.5 -13.5t13.5 -5.5h223q7 0 12.5 5.5t5.5 13.5v1308q0 8 5.5 13.5t13.5 5.5h117q7 0 12.5 -5.5t5.5 -13.5v-1450q0 -8 -5.5 -13t-12.5 -5h-531q-8 0 -13 5t-5 13v1309q0 7 -6.5 13t-12.5 6h-225 q-7 0 -12.5 -5.5t-5.5 -13.5v-1309q0 -7 -5.5 -12.5t-13.5 -5.5h-117q-8 0 -13 5t-5 13z" />
<glyph unicode="O" d="M0 18v1450q0 8 5.5 13.5t12.5 5.5h947q7 0 12.5 -5.5t5.5 -13.5v-1450q0 -8 -5.5 -13t-12.5 -5h-947q-8 0 -13 5t-5 13zM154 160q0 -8 5.5 -13.5t12.5 -5.5h639q7 0 12.5 5.5t5.5 13.5v1167q0 8 -5.5 13.5t-12.5 5.5h-639q-7 0 -12.5 -5.5t-5.5 -13.5v-1167z" />
<glyph unicode="P" d="M0 18v1450q0 8 5.5 13.5t12.5 5.5h947q7 0 12.5 -5.5t5.5 -13.5v-768q0 -8 -5.5 -13t-12.5 -5h-697q-8 0 -13 5t-5 13v105q0 7 5 12.5t13 5.5h543q7 0 12.5 5.5t5.5 13.5v485q0 8 -5.5 13.5t-12.5 5.5h-639q-7 0 -12.5 -5.5t-5.5 -13.5v-1309q0 -7 -5.5 -12.5t-13.5 -5.5 h-117q-8 0 -13 5t-5 13z" />
<glyph unicode="Q" d="M0 18v1450q0 8 5.5 13.5t12.5 5.5h947q7 0 12.5 -5.5t5.5 -13.5v-1450q0 -8 -5.5 -13t-12.5 -5h-414q6 0 12 -5.5t6 -12.5v-226q0 -7 -6 -12.5t-12 -5.5h-117q-8 0 -13 5t-5 13v226q0 7 -6.5 12.5t-12.5 5.5h-379q-8 0 -13 5t-5 13zM154 160q0 -8 5.5 -13.5t12.5 -5.5 h262q-7 0 -12.5 5.5t-5.5 13.5v225q0 7 5 12.5t13 5.5h117q6 0 12 -5.5t6 -12.5v-225q0 -8 5.5 -13.5t13.5 -5.5h223q7 0 12.5 5.5t5.5 13.5v1167q0 8 -5.5 13.5t-12.5 5.5h-639q-7 0 -12.5 -5.5t-5.5 -13.5v-1167z" />
<glyph unicode="R" d="M0 18v1450q0 8 5.5 13.5t12.5 5.5h947q7 0 12.5 -5.5t5.5 -13.5v-768q0 -8 -5.5 -13t-12.5 -5h-211q6 0 12 -5.5t6 -12.5v-646q0 -7 -6 -12.5t-12 -5.5h-117q-8 0 -13.5 5.5t-5.5 12.5v646q0 7 -6 12.5t-12 5.5h-332q-8 0 -13 5t-5 13v105q0 7 5 12.5t13 5.5h543 q7 0 12.5 5.5t5.5 13.5v485q0 8 -5.5 13.5t-12.5 5.5h-639q-7 0 -12.5 -5.5t-5.5 -13.5v-1309q0 -7 -5.5 -12.5t-13.5 -5.5h-117q-8 0 -13 5t-5 13z" />
<glyph unicode="S" d="M0 18v105q0 7 5 12.5t13 5.5h793q7 0 12.5 5.5t5.5 13.5v651q0 7 -5.5 12.5t-12.5 5.5h-793q-7 0 -12.5 5.5t-5.5 13.5v620q0 8 5.5 13.5t12.5 5.5h947q7 0 12.5 -5.5t5.5 -13.5v-104q0 -8 -5.5 -13t-12.5 -5h-793q-7 0 -12.5 -5.5t-5.5 -13.5v-338q0 -7 5 -12.5t13 -5.5 h793q7 0 12.5 -5.5t5.5 -13.5v-934q0 -8 -5.5 -13t-12.5 -5h-947q-8 0 -13 5t-5 13z" />
<glyph unicode="T" d="M0 1364v104q0 8 5.5 13.5t12.5 5.5h988q7 0 12.5 -5.5t5.5 -13.5v-104q0 -8 -5 -13t-13 -5h-418q-8 0 -13.5 -6t-5.5 -13v-1309q0 -7 -6 -12.5t-12 -5.5h-117q-8 0 -13 5t-5 13v1309q0 7 -6.5 13t-12.5 6h-379q-8 0 -13 5t-5 13z" />
<glyph unicode="U" d="M0 18v1450q0 8 5.5 13.5t12.5 5.5h117q7 0 13 -5.5t6 -13.5v-1308q0 -8 5.5 -13.5t12.5 -5.5h639q7 0 12.5 5.5t5.5 13.5v1308q0 8 5.5 13.5t13.5 5.5h117q7 0 12.5 -5.5t5.5 -13.5v-1450q0 -8 -5.5 -13t-12.5 -5h-947q-8 0 -13 5t-5 13z" />
<glyph unicode="V" d="M0 848v620q0 8 5.5 13.5t12.5 5.5h117q7 0 13 -5.5t6 -13.5v-479q0 -7 5 -12.5t13 -5.5h117q7 0 12.5 -5.5t5.5 -13.5v-792q0 -8 5.5 -13.5t13.5 -5.5h331q7 0 13 5.5t6 13.5v792q0 8 5.5 13.5t12.5 5.5h117q7 0 12.5 5.5t5.5 12.5v479q0 8 5.5 13.5t13.5 5.5h117 q7 0 12.5 -5.5t5.5 -13.5v-620q0 -8 -5.5 -13.5t-12.5 -5.5h-117q-8 0 -13.5 -5.5t-5.5 -12.5v-793q0 -8 -5.5 -13t-12.5 -5h-639q-8 0 -13 5t-5 13v793q0 7 -5.5 12.5t-13.5 5.5h-117q-7 0 -12.5 5.5t-5.5 13.5z" />
<glyph unicode="W" d="M0 18v1450q0 8 5.5 13.5t12.5 5.5h117q7 0 13 -5.5t6 -13.5v-1308q0 -8 5.5 -13.5t12.5 -5.5h225q6 0 12.5 6t6.5 13v1050q0 8 5.5 13.5t12.5 5.5h117q6 0 12 -6t6 -13v-1050q0 -7 -6 -13t-12 -6h260q7 0 12.5 5.5t5.5 13.5v1308q0 8 5.5 13.5t13.5 5.5h117 q7 0 12.5 -5.5t5.5 -13.5v-1450q0 -8 -5.5 -13t-12.5 -5h-947q-8 0 -13 5t-5 13z" />
<glyph unicode="X" d="M0 18v934q0 8 5.5 13.5t12.5 5.5h136q8 0 13 5.5t5 12.5v479q0 8 5.5 13.5t12.5 5.5h117q7 0 13 -5.5t6 -13.5v-479q0 -7 -5.5 -12.5t-13.5 -5.5h332q7 0 12.5 5.5t5.5 12.5v479q0 8 5.5 13.5t13.5 5.5h117q7 0 12.5 -5.5t5.5 -13.5v-479q0 -7 -5.5 -12.5t-12.5 -5.5h172 q7 0 12.5 -5.5t5.5 -13.5v-934q0 -8 -5.5 -13t-12.5 -5h-117q-8 0 -13.5 5.5t-5.5 12.5v793q0 7 -5.5 12.5t-12.5 5.5h-639q-8 0 -13 -5.5t-5 -12.5v-793q0 -7 -5.5 -12.5t-13.5 -5.5h-117q-8 0 -13 5t-5 13z" />
<glyph unicode="Y" d="M0 848v620q0 8 5.5 13.5t12.5 5.5h117q7 0 13 -5.5t6 -13.5v-479q0 -7 5 -12.5t13 -5.5h639q7 0 12.5 5.5t5.5 12.5v479q0 8 5.5 13.5t13.5 5.5h117q7 0 12.5 -5.5t5.5 -13.5v-620q0 -8 -5.5 -13.5t-12.5 -5.5h-414q6 0 12 -5.5t6 -12.5v-793q0 -7 -6 -12.5t-12 -5.5 h-117q-8 0 -13 5t-5 13v793q0 7 -6.5 12.5t-12.5 5.5h-379q-7 0 -12.5 5.5t-5.5 13.5z" />
<glyph unicode="Z" d="M0 18v777q0 7 5 12.5t13 5.5h793q7 0 12.5 6t5.5 12v496q0 8 -5.5 13.5t-12.5 5.5h-793q-8 0 -13 5t-5 13v104q0 8 5.5 13.5t12.5 5.5h947q7 0 12.5 -5.5t5.5 -13.5v-778q0 -6 -5.5 -12t-12.5 -6h-793q-7 0 -12.5 -5.5t-5.5 -13.5v-493q0 -8 5.5 -13.5t12.5 -5.5h793 q7 0 12.5 -5.5t5.5 -12.5v-105q0 -8 -5.5 -13t-12.5 -5h-947q-8 0 -13 5t-5 13z" />
<glyph unicode="[" d="M184 -506v1974q0 8 6 13.5t13 5.5h403q6 0 12.5 -6t6.5 -13v-104q0 -7 -6.5 -12.5t-12.5 -5.5h-250q-7 0 -12.5 -5.5t-5.5 -13.5v-1692q0 -7 5 -12.5t13 -5.5h240q8 0 13 -5.5t5 -12.5v-105q0 -8 -5 -13t-13 -5h-393q-8 0 -13.5 5.5t-5.5 12.5z" />
<glyph unicode="\" d="M184 428v1040q0 8 6 13.5t13 5.5h116q7 0 13 -5.5t6 -13.5v-899q0 -6 5.5 -12t12.5 -6h369q7 0 12.5 -5.5t5.5 -13.5v-1038q0 -8 -5.5 -13t-12.5 -5h-117q-8 0 -13 5t-5 13v897q0 7 -6 13t-13 6h-368q-7 0 -13 6t-6 12z" />
<glyph unicode="]" d="M184 -401q0 7 5.5 12.5t13.5 5.5h250q6 0 12 5.5t6 12.5v1692q0 7 -6 13t-12 6h-240q-7 0 -12.5 5t-5.5 13v104q0 8 5.5 13.5t12.5 5.5h393q6 0 12.5 -6t6.5 -13v-1974q0 -7 -6.5 -12.5t-12.5 -5.5h-403q-8 0 -13.5 5.5t-5.5 12.5v105z" />
<glyph unicode="^" d="M0 535v454q0 8 5.5 13.5t12.5 5.5h117q8 0 13.5 5.5t5.5 12.5v442q0 8 5.5 13.5t12.5 5.5h639q7 0 12.5 -5.5t5.5 -13.5v-442q0 -7 5.5 -12.5t13.5 -5.5h117q7 0 12.5 -5.5t5.5 -13.5v-454q0 -8 -5.5 -13.5t-12.5 -5.5h-117q-8 0 -13.5 6t-5.5 13v313q0 8 -5.5 13 t-12.5 5h-117q-7 0 -12.5 5.5t-5.5 13.5v448q0 7 -6 13t-13 6h-331q-8 0 -13.5 -6t-5.5 -13v-448q0 -8 -5.5 -13.5t-12.5 -5.5h-117q-8 0 -13 -5t-5 -13v-313q0 -7 -6 -13t-13 -6h-117q-7 0 -12.5 5.5t-5.5 13.5z" />
<glyph unicode="_" d="M0 -172q0 8 5 13t13 5h824q8 0 13 -5t5 -13v-117q0 -7 -5 -12.5t-13 -5.5h-824q-8 0 -13 5.5t-5 12.5v117z" />
<glyph unicode="`" d="M342 1204v264q0 8 5.5 13.5t12.5 5.5h105q6 0 12 -6t6 -13v-122q0 -8 5.5 -13.5t13.5 -5.5h123q6 0 12 -5.5t6 -12.5v-105q0 -7 -6 -12.5t-12 -5.5h-265q-8 0 -13 5t-5 13z" />
<glyph unicode="a" d="M0 18v639q0 8 5.5 13.5t12.5 5.5h699q6 0 12 -6t6 -13v-104q0 -7 -6 -12.5t-12 -5.5h-545q-7 0 -12.5 -5.5t-5.5 -13.5v-356q0 -8 5.5 -13.5t12.5 -5.5h639q7 0 12.5 5.5t5.5 13.5v651q0 7 -5.5 12.5t-12.5 5.5h-793q-7 0 -12.5 5.5t-5.5 13.5v104q0 8 5.5 13.5t12.5 5.5 h947q7 0 12.5 -5.5t5.5 -13.5v-934q0 -8 -5.5 -13t-12.5 -5h-947q-8 0 -13 5t-5 13z" />
<glyph unicode="b" d="M0 18v1487q0 8 5.5 13.5t12.5 5.5h117q7 0 13 -6t6 -13v-1345q0 -8 5.5 -13.5t12.5 -5.5h639q7 0 12.5 5.5t5.5 13.5v651q0 7 -5.5 12.5t-12.5 5.5h-543q-7 0 -12.5 5.5t-5.5 13.5v104q0 8 5.5 13.5t12.5 5.5h697q7 0 12.5 -5.5t5.5 -13.5v-934q0 -8 -5.5 -13t-12.5 -5 h-947q-8 0 -13 5t-5 13z" />
<glyph unicode="c" d="M0 18v934q0 8 5.5 13.5t12.5 5.5h947q7 0 12.5 -5.5t5.5 -13.5v-104q0 -8 -5.5 -13.5t-12.5 -5.5h-793q-8 0 -13 -5.5t-5 -12.5v-651q0 -8 5.5 -13.5t12.5 -5.5h793q7 0 12.5 -5.5t5.5 -12.5v-105q0 -8 -5.5 -13t-12.5 -5h-947q-8 0 -13 5t-5 13z" />
<glyph unicode="d" d="M0 18v934q0 8 5.5 13.5t12.5 5.5h699q6 0 12 -6t6 -13v-104q0 -7 -6 -13t-12 -6h-545q-8 0 -13 -5.5t-5 -12.5v-651q0 -8 5.5 -13.5t12.5 -5.5h639q7 0 12.5 5.5t5.5 13.5v1345q0 7 5.5 13t13.5 6h117q7 0 12.5 -5.5t5.5 -13.5v-1487q0 -8 -5.5 -13t-12.5 -5h-947 q-8 0 -13 5t-5 13z" />
<glyph unicode="e" d="M0 18v934q0 8 5.5 13.5t12.5 5.5h947q7 0 12.5 -5.5t5.5 -13.5v-540q0 -8 -5.5 -13.5t-12.5 -5.5h-697q-7 0 -12.5 5.5t-5.5 13.5v104q0 8 5.5 13.5t12.5 5.5h543q7 0 12.5 5.5t5.5 12.5v258q0 7 -5.5 12.5t-12.5 5.5h-639q-8 0 -13 -5.5t-5 -12.5v-651q0 -8 5.5 -13.5 t12.5 -5.5h793q7 0 12.5 -5.5t5.5 -12.5v-105q0 -8 -5.5 -13t-12.5 -5h-947q-8 0 -13 5t-5 13z" />
<glyph unicode="f" d="M0 848v104q0 8 5.5 13.5t12.5 5.5h258q8 0 13.5 5.5t5.5 12.5v516q0 8 5.5 13.5t12.5 5.5h633q8 0 13.5 -6t5.5 -13v-104q0 -7 -5.5 -13t-13.5 -6h-479q-7 0 -12.5 -5t-5.5 -13v-412q0 8 5.5 13.5t12.5 5.5h498q7 0 12.5 -5.5t5.5 -13.5v-104q0 -8 -5.5 -13.5t-12.5 -5.5 h-498q-7 0 -12.5 -5.5t-5.5 -12.5v-793q0 -7 -5.5 -12.5t-13.5 -5.5h-117q-7 0 -12.5 5t-5.5 13v830q0 -8 -5.5 -13.5t-13.5 -5.5h-258q-7 0 -12.5 5.5t-5.5 13.5z" />
<glyph unicode="g" d="M0 18v934q0 8 5.5 13.5t12.5 5.5h947q7 0 12.5 -5.5t5.5 -13.5v-1458q0 -8 -5.5 -13t-12.5 -5h-947q-8 0 -13 5t-5 13v105q0 7 5 12.5t13 5.5h793q7 0 12.5 5.5t5.5 12.5v1176q0 7 -5.5 12.5t-12.5 5.5h-639q-8 0 -13 -5.5t-5 -12.5v-651q0 -8 5.5 -13.5t12.5 -5.5h545 q6 0 12 -5.5t6 -12.5v-105q0 -7 -6 -12.5t-12 -5.5h-699q-8 0 -13 5t-5 13z" />
<glyph unicode="h" d="M0 18v1487q0 8 5.5 13.5t12.5 5.5h117q7 0 13 -6t6 -13v-553q0 8 5.5 13.5t12.5 5.5h793q7 0 12.5 -5.5t5.5 -13.5v-934q0 -8 -5.5 -13t-12.5 -5h-117q-8 0 -13.5 5.5t-5.5 12.5v793q0 7 -5.5 12.5t-12.5 5.5h-639q-8 0 -13 -5.5t-5 -12.5v-793q0 -7 -5.5 -12.5 t-13.5 -5.5h-117q-8 0 -13 5t-5 13z" />
<glyph unicode="i" d="M0 18v105q0 7 5 12.5t13 5.5h416q-7 0 -12.5 5.5t-5.5 13.5v792q0 8 5.5 13.5t12.5 5.5h117q6 0 12 -6t6 -13v-792q0 -8 5.5 -13.5t13.5 -5.5h377q7 0 12.5 -5.5t5.5 -12.5v-105q0 -8 -5.5 -13t-12.5 -5h-947q-8 0 -13 5t-5 13z" />
<glyph unicode="j" d="M0 -401q0 7 5 12.5t13 5.5h793l18 18v-4v4v1317q0 8 5.5 13.5t13.5 5.5h117q7 0 12.5 -5.5t5.5 -13.5v-1458q0 -8 -5.5 -13t-12.5 -5h-947q-8 0 -13 5t-5 13v105zM814 -383h3h-2h-1zM819 -381h2h-2zM823 -377v-2v2zM825 -377q0 2 2 2zM827 -373q0 2 2 2z" />
<glyph unicode="k" d="M0 18v1487q0 8 5.5 13.5t12.5 5.5h117q7 0 13 -6t6 -13v-856q0 8 5.5 13.5t12.5 5.5h428q6 0 12 5.5t6 12.5v266q0 8 6 13.5t13 5.5h117q6 0 12 -6t6 -13v-266q-4 -18 -18 -18h211q7 0 12.5 -5.5t5.5 -13.5v-631q0 -8 -5.5 -13t-12.5 -5h-117q-8 0 -13.5 5.5t-5.5 12.5 v490q0 8 -5.5 13t-12.5 5h-639q-8 0 -13 -5t-5 -13v-490q0 -7 -5.5 -12.5t-13.5 -5.5h-117q-8 0 -13 5t-5 13z" />
<glyph unicode="l" d="M0 1401v104q0 8 5.5 13.5t12.5 5.5h523q7 0 12.5 -5.5t5.5 -13.5v-1345q0 -8 5.5 -13.5t13.5 -5.5h387q7 0 12.5 -5.5t5.5 -12.5v-105q0 -8 -5.5 -13t-12.5 -5h-541q-8 0 -13 5t-5 13v1346q0 7 -5.5 12.5t-13.5 5.5h-369q-7 0 -12.5 5.5t-5.5 13.5z" />
<glyph unicode="m" d="M0 18v934q0 8 5.5 13.5t12.5 5.5h947q7 0 12.5 -5.5t5.5 -13.5v-934q0 -8 -5.5 -13t-12.5 -5h-117q-8 0 -13.5 5.5t-5.5 12.5v793q0 7 -5.5 12.5t-12.5 5.5h-260q6 0 12 -5.5t6 -12.5v-793q0 -7 -6 -12.5t-12 -5.5h-117q-8 0 -13 5t-5 13v793q0 7 -6.5 12.5t-12.5 5.5 h-225q-8 0 -13 -5.5t-5 -12.5v-793q0 -7 -5.5 -12.5t-13.5 -5.5h-117q-8 0 -13 5t-5 13z" />
<glyph unicode="n" d="M0 18v934q0 8 5.5 13.5t12.5 5.5h947q7 0 12.5 -5.5t5.5 -13.5v-934q0 -8 -5.5 -13t-12.5 -5h-117q-8 0 -13.5 5.5t-5.5 12.5v793q0 7 -5.5 12.5t-12.5 5.5h-639q-8 0 -13 -5.5t-5 -12.5v-793q0 -7 -5.5 -12.5t-13.5 -5.5h-117q-8 0 -13 5t-5 13z" />
<glyph unicode="o" d="M0 18v934q0 8 5.5 13.5t12.5 5.5h947q7 0 12.5 -5.5t5.5 -13.5v-934q0 -8 -5.5 -13t-12.5 -5h-947q-8 0 -13 5t-5 13zM154 160q0 -8 5.5 -13.5t12.5 -5.5h639q7 0 12.5 5.5t5.5 13.5v651q0 7 -5.5 12.5t-12.5 5.5h-639q-8 0 -13 -5.5t-5 -12.5v-651z" />
<glyph unicode="p" d="M0 -506v1458q0 8 5.5 13.5t12.5 5.5h947q7 0 12.5 -5.5t5.5 -13.5v-934q0 -8 -5.5 -13t-12.5 -5h-697q-8 0 -13 5t-5 13v105q0 7 5 12.5t13 5.5h543q7 0 12.5 5.5t5.5 13.5v651q0 7 -5.5 12.5t-12.5 5.5h-639q-8 0 -13 -5.5t-5 -12.5v-1317q0 -7 -5.5 -12.5t-13.5 -5.5 h-117q-8 0 -13 5t-5 13z" />
<glyph unicode="q" d="M0 18v934q0 8 5.5 13.5t12.5 5.5h947q7 0 12.5 -5.5t5.5 -13.5v-1458q0 -8 -5.5 -13t-12.5 -5h-117q-8 0 -13.5 5.5t-5.5 12.5v1317q0 7 -5.5 12.5t-12.5 5.5h-639q-8 0 -13 -5.5t-5 -12.5v-651q0 -8 5.5 -13.5t12.5 -5.5h545q6 0 12 -5.5t6 -12.5v-105q0 -7 -6 -12.5 t-12 -5.5h-699q-8 0 -13 5t-5 13z" />
<glyph unicode="r" d="M0 18v934q0 8 5.5 13.5t12.5 5.5h947q7 0 12.5 -5.5t5.5 -13.5v-104q0 -8 -5.5 -13.5t-12.5 -5.5h-793q-8 0 -13 -5.5t-5 -12.5v-793q0 -7 -5.5 -12.5t-13.5 -5.5h-117q-8 0 -13 5t-5 13z" />
<glyph unicode="s" d="M0 18v105q0 7 5 12.5t13 5.5h793q7 0 12.5 5.5t5.5 13.5v237q0 8 -5.5 13.5t-12.5 5.5h-793q-8 0 -13 5t-5 13v518q0 8 5.5 13.5t12.5 5.5h947q7 0 12.5 -5.5t5.5 -13.5v-104q0 -8 -5.5 -13.5t-12.5 -5.5h-793q-8 0 -13 -5.5t-5 -12.5v-236q0 -7 5 -12.5t13 -5.5h793 q7 0 12.5 -5.5t5.5 -12.5v-521q0 -8 -5.5 -13t-12.5 -5h-947q-8 0 -13 5t-5 13z" />
<glyph unicode="t" d="M0 848v104q0 8 5.5 13.5t12.5 5.5h293q6 0 12.5 5.5t6.5 12.5v516q0 8 5.5 13.5t12.5 5.5h117q6 0 12 -6t6 -13v-553q0 8 5.5 13.5t13.5 5.5h463q7 0 12.5 -5.5t5.5 -13.5v-104q0 -8 -5.5 -13.5t-12.5 -5.5h-463q-8 0 -13.5 -5.5t-5.5 -12.5v-651q0 -8 5.5 -13.5 t13.5 -5.5h463q7 0 12.5 -5.5t5.5 -12.5v-105q0 -8 -5.5 -13t-12.5 -5h-617q-8 0 -13 5t-5 13v830q0 -7 -6.5 -13t-12.5 -6h-293q-7 0 -12.5 5.5t-5.5 13.5z" />
<glyph unicode="u" d="M0 18v934q0 8 5.5 13.5t12.5 5.5h117q7 0 13 -5.5t6 -13.5v-792q0 -8 5.5 -13.5t12.5 -5.5h639q7 0 12.5 5.5t5.5 13.5v792q0 8 5.5 13.5t13.5 5.5h117q7 0 12.5 -5.5t5.5 -13.5v-934q0 -8 -5.5 -13t-12.5 -5h-947q-8 0 -13 5t-5 13z" />
<glyph unicode="v" d="M0 504v448q0 8 5.5 13.5t12.5 5.5h117q7 0 13 -5.5t6 -13.5v-307q0 -7 5 -12.5t13 -5.5h117q7 0 12.5 -5.5t5.5 -13.5v-448q0 -8 5.5 -13.5t13.5 -5.5h331q7 0 13 5.5t6 13.5v448q0 8 5.5 13.5t12.5 5.5h117q7 0 12.5 5.5t5.5 12.5v307q0 8 5.5 13.5t13.5 5.5h117 q7 0 12.5 -5.5t5.5 -13.5v-448q0 -8 -5.5 -13.5t-12.5 -5.5h-117q-8 0 -13.5 -5.5t-5.5 -12.5v-449q0 -8 -5.5 -13t-12.5 -5h-639q-8 0 -13 5t-5 13v449q0 7 -5.5 12.5t-13.5 5.5h-117q-7 0 -12.5 5.5t-5.5 13.5z" />
<glyph unicode="w" d="M0 18v934q0 8 5.5 13.5t12.5 5.5h117q7 0 13 -5.5t6 -13.5v-792q0 -8 5.5 -13.5t12.5 -5.5h225q6 0 12.5 6t6.5 13v792q0 8 5.5 13.5t12.5 5.5h117q6 0 12 -6t6 -13v-792q0 -7 -6 -13t-12 -6h260q7 0 12.5 5.5t5.5 13.5v792q0 8 5.5 13.5t13.5 5.5h117q7 0 12.5 -5.5 t5.5 -13.5v-934q0 -8 -5.5 -13t-12.5 -5h-947q-8 0 -13 5t-5 13z" />
<glyph unicode="x" d="M0 18v590q0 8 5.5 13.5t12.5 5.5h136q8 0 13 5.5t5 12.5v307q0 8 5.5 13.5t12.5 5.5h117q7 0 13 -5.5t6 -13.5v-307q0 -7 -5.5 -12.5t-13.5 -5.5h332q7 0 12.5 5.5t5.5 12.5v307q0 8 5.5 13.5t13.5 5.5h117q7 0 12.5 -5.5t5.5 -13.5v-307q0 -7 -5.5 -12.5t-12.5 -5.5h172 q7 0 12.5 -5.5t5.5 -13.5v-590q0 -8 -5.5 -13t-12.5 -5h-117q-8 0 -13.5 5.5t-5.5 12.5v449q0 7 -5.5 12.5t-12.5 5.5h-639q-8 0 -13 -5.5t-5 -12.5v-449q0 -7 -5.5 -12.5t-13.5 -5.5h-117q-8 0 -13 5t-5 13z" />
<glyph unicode="y" d="M0 18v934q0 8 5.5 13.5t12.5 5.5h117q7 0 13 -5.5t6 -13.5v-792q0 -8 5.5 -13.5t12.5 -5.5h639q7 0 12.5 5.5t5.5 13.5v792q0 8 5.5 13.5t13.5 5.5h117q7 0 12.5 -5.5t5.5 -13.5v-1458q0 -8 -5.5 -13t-12.5 -5h-947q-8 0 -13 5t-5 13v105q0 7 5 12.5t13 5.5h793 q7 0 12.5 5.5t5.5 12.5v383q0 -8 -5.5 -13t-12.5 -5h-793q-8 0 -13 5t-5 13z" />
<glyph unicode="z" d="M0 18v521q0 7 5 12.5t13 5.5h793q7 0 12.5 5.5t5.5 12.5v236q0 7 -5.5 12.5t-12.5 5.5h-793q-7 0 -12.5 5.5t-5.5 13.5v104q0 8 5.5 13.5t12.5 5.5h947q7 0 12.5 -5.5t5.5 -13.5v-518q0 -8 -5.5 -13t-12.5 -5h-793q-7 0 -12.5 -5.5t-5.5 -13.5v-237q0 -8 5.5 -13.5 t12.5 -5.5h793q7 0 12.5 -5.5t5.5 -12.5v-105q0 -8 -5.5 -13t-12.5 -5h-947q-8 0 -13 5t-5 13z" />
<glyph unicode="{" d="M0 283v442q0 7 5 12.5t13 5.5h191q7 0 12.5 6.5t5.5 12.5v706q0 8 5.5 13.5t13.5 5.5h403q7 0 13 -5.5t6 -13.5v-104q0 -7 -5.5 -12.5t-13.5 -5.5h-250q-7 0 -12.5 -5.5t-5.5 -13.5v-706q0 -6 -6 -12.5t-13 -6.5h-190q-8 0 -13 -5t-5 -13v-160q0 -8 5 -13t13 -5h190 q8 0 13.5 -6t5.5 -13v-752q0 -7 5.5 -12.5t12.5 -5.5h240q7 0 12.5 -5.5t5.5 -12.5v-105q0 -8 -5.5 -13t-12.5 -5h-393q-8 0 -13.5 5.5t-5.5 12.5v752q0 8 -5.5 13t-12.5 5h-191q-7 0 -12.5 5.5t-5.5 13.5z" />
<glyph unicode="|" d="M399 -506v1974q0 8 5.5 13.5t13.5 5.5h147q7 0 13 -5.5t6 -13.5v-1974q0 -7 -5.5 -12.5t-13.5 -5.5h-147q-8 0 -13.5 5.5t-5.5 12.5z" />
<glyph unicode="}" horiz-adv-x="1024" d="M227 1364v104q0 8 5.5 13.5t13.5 5.5h403q7 0 13 -5.5t6 -13.5v-706q0 -6 5.5 -12.5t12.5 -6.5h191q7 0 12.5 -5.5t5.5 -12.5v-442q0 -8 -5.5 -13.5t-12.5 -5.5h-191q-8 0 -13 -5t-5 -13v-752q0 -7 -5.5 -12.5t-13.5 -5.5h-393q-8 0 -13 5t-5 13v105q0 7 5 12.5t13 5.5 h240q8 0 13 5.5t5 12.5v752q0 8 5.5 13.5t12.5 5.5h191q7 0 12.5 5t5.5 13v160q0 8 -5.5 13t-12.5 5h-191q-7 0 -12.5 6.5t-5.5 12.5v706q0 8 -5.5 13.5t-12.5 5.5h-250q-8 0 -13.5 5.5t-5.5 12.5z" />
<glyph unicode="~" d="M0 594v104q0 8 5.5 13.5t12.5 5.5h527q6 0 12 -6t6 -13v-282q0 -8 5.5 -13.5t13.5 -5.5h383q7 0 12.5 -5.5t5.5 -12.5v-105q0 -8 -5.5 -13t-12.5 -5h-525q-8 0 -13 5t-5 13v283q0 7 -6.5 12.5t-12.5 5.5h-385q-7 0 -12.5 5.5t-5.5 13.5z" />
<glyph unicode="&#xa0;" />
<glyph unicode="&#xa1;" d="M399 18v1082q0 7 5.5 12.5t13.5 5.5h147q8 0 13.5 -5.5t5.5 -12.5v-1082q0 -7 -5.5 -12.5t-13.5 -5.5h-147q-8 0 -13.5 5.5t-5.5 12.5zM399 1321v147q0 8 5.5 13.5t13.5 5.5h147q7 0 13 -5.5t6 -13.5v-147q0 -7 -5.5 -12.5t-13.5 -5.5h-147q-8 0 -13.5 5.5t-5.5 12.5z " />
<glyph unicode="&#xa2;" d="M0 18v934q0 8 5.5 13.5t12.5 5.5h379q6 0 12.5 5.5t6.5 12.5v479q0 8 5.5 13.5t12.5 5.5h117q6 0 12 -6t6 -13v-479q0 -7 -6 -12.5t-12 -5.5h414q7 0 12.5 -5.5t5.5 -13.5v-104q0 -8 -5.5 -13.5t-12.5 -5.5h-793q-8 0 -13 -5.5t-5 -12.5v-651q0 -8 5.5 -13.5t12.5 -5.5 h793q7 0 12.5 -5.5t5.5 -12.5v-105q0 -8 -5.5 -13t-12.5 -5h-414q6 0 12 -5.5t6 -12.5v-488q0 -7 -6 -12.5t-12 -5.5h-117q-8 0 -13 5t-5 13v488q0 7 -6.5 12.5t-12.5 5.5h-379q-8 0 -13 5t-5 13z" />
<glyph unicode="&#xa3;" d="M0 18v105q0 7 5 12.5t13 5.5h213q6 0 12.5 6t6.5 13v688q0 -7 -6.5 -13t-12.5 -6h-213q-7 0 -12.5 5.5t-5.5 13.5v104q0 8 5.5 13.5t12.5 5.5h213q6 0 12.5 5.5t6.5 12.5v479q0 8 5.5 13.5t12.5 5.5h697q7 0 12.5 -5.5t5.5 -13.5v-104q0 -8 -5.5 -13t-12.5 -5h-543 q-8 0 -13.5 -6t-5.5 -13v-375q0 8 5 13.5t12 5.5h545q7 0 12.5 -5.5t5.5 -13.5v-104q0 -8 -5.5 -13.5t-12.5 -5.5h-543q-8 0 -13.5 -5.5t-5.5 -12.5v-651q0 -7 -6 -13t-12 -6h580q7 0 12.5 -5.5t5.5 -12.5v-105q0 -8 -5.5 -13t-12.5 -5h-947q-8 0 -13 5t-5 13z" />
<glyph unicode="&#xa4;" d="M0 928v104q0 8 5.5 13.5t12.5 5.5h111q7 0 12.5 5.5t5.5 12.5v258q0 7 5.5 13t13.5 6h-148q-8 0 -13 5t-5 13v104q0 8 5.5 13.5t12.5 5.5h744q7 0 12.5 -5.5t5.5 -13.5v-104q0 -8 -5 -13t-13 -5h-111q-7 0 -12.5 -5.5t-5.5 -13.5v-258q0 -7 -5.5 -12.5t-13.5 -5.5h148 q7 0 12.5 -5.5t5.5 -13.5v-104q0 -8 -5.5 -13.5t-12.5 -5.5h-744q-7 0 -12.5 5.5t-5.5 13.5zM283 1051h178q7 0 12.5 5.5t5.5 12.5v258q0 7 5.5 13t13.5 6h-179q-7 0 -12.5 -5.5t-5.5 -13.5v-258q0 -7 -5.5 -12.5t-12.5 -5.5z" />
<glyph unicode="&#xa5;" d="M0 274v117q0 8 5.5 13.5t12.5 5.5h379q6 0 12.5 -6t6.5 -13v154q0 7 -6.5 12.5t-12.5 5.5h-379q-7 0 -12.5 5.5t-5.5 13.5v116q0 8 5.5 13.5t12.5 5.5h379q6 0 12.5 -6t6.5 -13v113q0 7 -6.5 12.5t-12.5 5.5h-379q-7 0 -12.5 5.5t-5.5 13.5v620q0 8 5.5 13.5t12.5 5.5 h117q7 0 13 -5.5t6 -13.5v-479q0 -7 5 -12.5t13 -5.5h639q7 0 12.5 5.5t5.5 12.5v479q0 8 5.5 13.5t13.5 5.5h117q7 0 12.5 -5.5t5.5 -13.5v-620q0 -8 -5.5 -13.5t-12.5 -5.5h-414q6 0 12 -5.5t6 -12.5v-76q0 -7 5.5 -12.5t13.5 -5.5h377q7 0 12.5 -5.5t5.5 -13.5v-116 q0 -8 -5.5 -13.5t-12.5 -5.5h-377q-8 0 -13.5 5.5t-5.5 13.5v-154q0 -7 5.5 -12.5t13.5 -5.5h377q7 0 12.5 -5.5t5.5 -13.5v-117q0 -8 -5.5 -13t-12.5 -5h-377q-8 0 -13.5 5.5t-5.5 12.5v-256q0 -7 -6 -12.5t-12 -5.5h-117q-8 0 -13 5t-5 13v220q0 7 -6.5 12.5t-12.5 5.5 h-379q-8 0 -13 5t-5 13z" />
<glyph unicode="&#xa6;" d="M399 369q0 7 5.5 12.5t13.5 5.5h147q8 0 13.5 -5.5t5.5 -12.5v-875q0 -7 -5.5 -12.5t-13.5 -5.5h-147q-8 0 -13.5 5.5t-5.5 12.5v875zM399 594v874q0 8 5.5 13.5t13.5 5.5h147q7 0 13 -5.5t6 -13.5v-874q0 -8 -6 -13.5t-13 -5.5h-147q-8 0 -13.5 5.5t-5.5 13.5z" />
<glyph unicode="&#xa7;" d="M0 18v1450q0 8 5.5 13.5t12.5 5.5h947q7 0 12.5 -5.5t5.5 -13.5v-104q0 -8 -5.5 -13t-12.5 -5h-793q-7 0 -12.5 -5.5t-5.5 -13.5v-338q0 -7 5 -12.5t13 -5.5h793q7 0 12.5 -5.5t5.5 -13.5v-1458q0 -8 -5.5 -13t-12.5 -5h-947q-8 0 -13 5t-5 13v105q0 7 5 12.5t13 5.5h793 q7 0 12.5 5.5t5.5 12.5v347q0 8 -5.5 13t-12.5 5h-793q-8 0 -13 5t-5 13zM154 160q0 -8 5.5 -13.5t12.5 -5.5h639q7 0 12.5 -5.5t5.5 -12.5v688q0 7 -5.5 12.5t-12.5 5.5h-639q-7 0 -12.5 5.5t-5.5 13.5v-688z" />
<glyph unicode="&#xa8;" d="M217 1327v141q0 7 6.5 13t12.5 6h172q7 0 12.5 -5.5t5.5 -13.5v-141q0 -7 -5 -12.5t-13 -5.5h-172q-6 0 -12.5 5.5t-6.5 12.5zM555 1327v141q0 7 6 13t12 6h172q7 0 13 -5.5t6 -13.5v-141q0 -7 -5.5 -12.5t-13.5 -5.5h-172q-6 0 -12 5.5t-6 12.5z" />
<glyph unicode="&#xa9;" d="M0 18v1450q0 8 5.5 13.5t12.5 5.5h947q7 0 12.5 -5.5t5.5 -13.5v-1450q0 -8 -5.5 -13t-12.5 -5h-947q-8 0 -13 5t-5 13zM154 160q0 -8 5.5 -13.5t12.5 -5.5h639q7 0 12.5 5.5t5.5 13.5v1167q0 8 -5.5 13.5t-12.5 5.5h-639q-7 0 -12.5 -5.5t-5.5 -13.5v-1167zM250 276v934 q0 8 5.5 13.5t12.5 5.5h449q6 0 12 -6t6 -13v-104q0 -7 -6 -13t-12 -6h-295q-8 0 -13.5 -5.5t-5.5 -12.5v-651q0 -8 5.5 -13.5t13.5 -5.5h295q6 0 12 -5.5t6 -12.5v-105q0 -7 -6 -12.5t-12 -5.5h-449q-8 0 -13 5t-5 13z" />
<glyph unicode="&#xaa;" d="M37 928v358q0 8 5.5 13.5t12.5 5.5h256q6 0 12.5 -6t6.5 -13v-104q0 -6 -6.5 -12.5t-12.5 -6.5h-102q-8 0 -13.5 -5.5t-5.5 -12.5v-76q0 -7 5.5 -12.5t13.5 -5.5h141q8 0 13.5 5.5t5.5 12.5v258q0 7 -5.5 13t-13.5 6h-295q-7 0 -12.5 5t-5.5 13v104q0 8 5.5 13.5 t12.5 5.5h449q7 0 12.5 -5.5t5.5 -13.5v-540q0 -8 -5.5 -13.5t-12.5 -5.5h-449q-7 0 -12.5 5.5t-5.5 13.5z" />
<glyph unicode="&#xab;" d="M18 319v332q0 7 6 13t13 6h153q7 0 13 6t6 12v117q0 7 5.5 12.5t12.5 5.5h205q8 0 13.5 -5.5t5.5 -12.5v-105q0 -6 -6 -12t-13 -6h-100q-8 0 -13.5 -5.5t-5.5 -12.5v-117q0 -6 -5.5 -12.5t-12.5 -6.5h-160q-7 0 -12.5 -5t-5.5 -13v-49q0 -8 5.5 -13.5t12.5 -5.5h160 q7 0 12.5 -5t5.5 -13v-117q0 -7 5.5 -12.5t13.5 -5.5h100q8 0 13.5 -5.5t5.5 -13.5v-104q0 -8 -5.5 -13.5t-13.5 -5.5h-205q-7 0 -12.5 5.5t-5.5 13.5v117q0 7 -5.5 12.5t-13.5 5.5h-153q-8 0 -13.5 5.5t-5.5 12.5zM530 319v332q0 7 6 13t13 6h153q7 0 13 6t6 12v117 q0 7 6 12.5t12 5.5h205q8 0 13.5 -5.5t5.5 -12.5v-105q0 -6 -6 -12t-13 -6h-100q-6 0 -12.5 -5.5t-6.5 -12.5v-117q0 -6 -5.5 -12.5t-12.5 -6.5h-160q-7 0 -12.5 -5t-5.5 -13v-49q0 -8 5.5 -13.5t12.5 -5.5h160q7 0 12.5 -5t5.5 -13v-117q0 -7 6.5 -12.5t12.5 -5.5h100 q8 0 13.5 -5.5t5.5 -13.5v-104q0 -8 -5.5 -13.5t-13.5 -5.5h-205q-6 0 -12 6t-6 13v117q0 7 -5.5 12.5t-13.5 5.5h-153q-8 0 -13.5 5.5t-5.5 12.5z" />
<glyph unicode="&#xac;" d="M61 428v117q0 7 5.5 12.5t13.5 5.5h823q8 0 13.5 -5.5t5.5 -12.5v-393q0 -8 -6 -13.5t-13 -5.5h-117q-7 0 -12.5 5.5t-5.5 13.5v239q0 8 -5.5 13.5t-12.5 5.5h-670q-8 0 -13.5 5.5t-5.5 12.5z" />
<glyph unicode="&#xad;" d="M246 428v117q0 7 5 12.5t13 5.5h578q8 0 13 -5.5t5 -12.5v-117q0 -8 -5 -13t-13 -5h-578q-8 0 -13 5t-5 13z" />
<glyph unicode="&#xae;" d="M0 18v1450q0 8 5.5 13.5t12.5 5.5h947q7 0 12.5 -5.5t5.5 -13.5v-1450q0 -8 -5.5 -13t-12.5 -5h-947q-8 0 -13 5t-5 13zM154 160q0 -8 5.5 -13.5t12.5 -5.5h639q7 0 12.5 5.5t5.5 13.5v1167q0 8 -5.5 13.5t-12.5 5.5h-639q-7 0 -12.5 -5.5t-5.5 -13.5v-1167zM250 276v934 q0 8 5.5 13.5t12.5 5.5h449q6 0 12 -6t6 -13v-520q0 -6 -6 -12t-12 -6h-55q6 0 12 -6t6 -13v-377q0 -7 -6 -12.5t-12 -5.5h-117q-8 0 -13.5 5.5t-5.5 12.5v377q0 7 -6 13t-12 6h-86q-7 0 -13 6t-6 12v-414q0 -7 -6 -12.5t-12 -5.5h-117q-8 0 -13 5t-5 13zM403 831 q0 -6 6 -12t13 -6h141q6 0 12.5 6t6.5 12v238q0 7 -6.5 12.5t-12.5 5.5h-141q-8 0 -13.5 -5.5t-5.5 -12.5v-238z" />
<glyph unicode="&#xaf;" d="M295 1352v116q0 8 5.5 13.5t12.5 5.5h480q7 0 12.5 -5.5t5.5 -13.5v-116q0 -8 -5.5 -13.5t-12.5 -5.5h-480q-7 0 -12.5 5.5t-5.5 13.5z" />
<glyph unicode="&#xb0;" d="M27 928v540q0 8 5.5 13.5t12.5 5.5h449q7 0 12.5 -5.5t5.5 -13.5v-540q0 -8 -5.5 -13.5t-12.5 -5.5h-449q-7 0 -12.5 5.5t-5.5 13.5zM131 1020q0 -8 5.5 -13.5t13.5 -5.5h239q7 0 13 5.5t6 13.5v356q0 8 -6 13.5t-13 5.5h-239q-8 0 -13.5 -5.5t-5.5 -13.5v-356z" />
<glyph unicode="&#xb1;" d="M0 18v105q0 7 5 12.5t13 5.5h947q7 0 12.5 -5.5t5.5 -12.5v-105q0 -8 -5.5 -13t-12.5 -5h-947q-8 0 -13 5t-5 13zM0 582v104q0 8 5.5 13.5t12.5 5.5h363q7 0 12.5 5.5t5.5 12.5v229q0 8 5.5 13.5t13.5 5.5h147q7 0 13 -5.5t6 -13.5v-266q0 8 5.5 13.5t12.5 5.5h363 q7 0 12.5 -5.5t5.5 -13.5v-104q0 -8 -5.5 -13.5t-12.5 -5.5h-363q-8 0 -13 -5.5t-5 -12.5v-232q0 -7 -5.5 -12.5t-13.5 -5.5h-147q-8 0 -13.5 5.5t-5.5 12.5v269q0 -8 -5.5 -13.5t-12.5 -5.5h-363q-7 0 -12.5 5.5t-5.5 13.5z" />
<glyph unicode="&#xb4;" d="M342 1204v105q0 7 5 12.5t13 5.5h123q7 0 13 5.5t6 13.5v122q0 8 5.5 13.5t12.5 5.5h105q7 0 12.5 -5.5t5.5 -13.5v-264q0 -8 -5.5 -13t-12.5 -5h-265q-8 0 -13 5t-5 13z" />
<glyph unicode="&#xb6;" d="M0 313v1155q0 8 5.5 13.5t12.5 5.5h947q7 0 12.5 -5.5t5.5 -13.5v-104q0 -8 -5.5 -13t-12.5 -5h-93q-7 0 -12.5 -5.5t-5.5 -13.5v-1833q0 -8 -5 -13t-13 -5h-117q-8 0 -13.5 5.5t-5.5 12.5v1833q0 7 6 13t13 6h-197q-7 0 -12.5 -5.5t-5.5 -13.5v-1833q0 -7 -5.5 -12.5 t-13.5 -5.5h-116q-8 0 -13.5 5.5t-5.5 12.5v1833q0 7 6 13t13 6h-197q-7 0 -12.5 -5.5t-5.5 -13.5v-1014q0 -7 -5.5 -12.5t-13.5 -5.5h-117q-8 0 -13 5.5t-5 12.5z" />
<glyph unicode="&#xb7;" d="M399 805v147q0 8 5.5 13.5t13.5 5.5h147q7 0 13 -5.5t6 -13.5v-147q0 -7 -6 -13t-13 -6h-147q-8 0 -13.5 6t-5.5 13z" />
<glyph unicode="&#xb8;" d="M74 -401q0 7 5 12.5t13 5.5h379q6 0 12 5.5t6 12.5v254q0 7 5.5 13t13.5 6h117q6 0 12 -6t6 -13v-395q0 -7 -6 -12.5t-12 -5.5h-533q-8 0 -13 5t-5 13v105z" />
<glyph unicode="&#xba;" d="M98 928v540q0 8 6 13.5t13 5.5h448q7 0 13 -5.5t6 -13.5v-540q0 -8 -6 -13.5t-13 -5.5h-448q-7 0 -13 5.5t-6 13.5zM252 1069q0 -7 5 -12.5t13 -5.5h142q8 0 13 5.5t5 12.5v258q0 8 -5.5 13.5t-12.5 5.5h-142q-7 0 -12.5 -5.5t-5.5 -13.5v-258z" />
<glyph unicode="&#xbb;" d="M18 166v104q0 8 6 13.5t13 5.5h100q8 0 13.5 5.5t5.5 12.5v117q0 8 5 13t13 5h160q7 0 12.5 5.5t5.5 13.5v49q0 8 -5 13t-13 5h-160q-7 0 -12.5 6.5t-5.5 12.5v117q0 7 -5.5 12.5t-13.5 5.5h-100q-7 0 -13 6t-6 12v105q0 7 5.5 12.5t13.5 5.5h205q8 0 13 -5.5t5 -12.5 v-117q0 -6 6 -12t13 -6h153q8 0 13.5 -6t5.5 -13v-332q0 -7 -5.5 -12.5t-13.5 -5.5h-153q-8 0 -13.5 -5.5t-5.5 -12.5v-117q0 -8 -5.5 -13.5t-12.5 -5.5h-205q-7 0 -13 5.5t-6 13.5zM530 166v104q0 8 6 13.5t13 5.5h100q8 0 13.5 5.5t5.5 12.5v117q0 8 5 13t13 5h160 q7 0 12.5 5.5t5.5 13.5v49q0 8 -5 13t-13 5h-160q-7 0 -12.5 6.5t-5.5 12.5v117q0 7 -5.5 12.5t-13.5 5.5h-100q-7 0 -13 6t-6 12v105q0 7 5.5 12.5t13.5 5.5h205q8 0 13 -5.5t5 -12.5v-117q0 -6 6 -12t13 -6h153q8 0 13.5 -6t5.5 -13v-332q0 -7 -5.5 -12.5t-13.5 -5.5h-153 q-8 0 -13.5 -5.5t-5.5 -12.5v-117q0 -8 -5.5 -13.5t-12.5 -5.5h-205q-7 0 -13 5.5t-6 13.5z" />
<glyph unicode="&#xbc;" d="M37 18v105q0 7 5.5 12.5t12.5 5.5h140q6 0 12 6t6 13v635q0 7 5.5 12.5t12.5 5.5h369q6 0 12 6t6 12v637q0 8 6 13.5t13 5.5h291q7 0 12.5 -5.5t5.5 -13.5v-104q0 -8 -5 -13t-13 -5h-137q-7 0 -13 -6t-6 -13v-637q0 -6 -6 -12t-12 -6h-369q-7 0 -12.5 -5.5t-5.5 -13.5 v-635q0 -7 -6.5 -12.5t-12.5 -5.5h-293q-7 0 -12.5 5t-5.5 13zM37 928v104q0 8 5.5 13.5t12.5 5.5h166q-7 0 -12.5 5.5t-5.5 12.5v258q0 7 -5.5 13t-13.5 6h-129q-7 0 -12.5 5t-5.5 13v104q0 8 5.5 13.5t12.5 5.5h283q7 0 12.5 -5.5t5.5 -13.5v-399q0 -7 5.5 -12.5 t13.5 -5.5h129q7 0 12.5 -5.5t5.5 -13.5v-104q0 -8 -5.5 -13.5t-12.5 -5.5h-449q-7 0 -12.5 5.5t-5.5 13.5zM461 236v323q0 8 5.5 13.5t12.5 5.5h117q7 0 12.5 -5.5t5.5 -13.5v-182q0 -6 6 -12.5t13 -6.5h141q8 0 13.5 -5.5t5.5 -12.5v219q0 8 5.5 13.5t12.5 5.5h117 q7 0 12.5 -5.5t5.5 -13.5v-541q0 -8 -5 -13t-13 -5h-115q-20 0 -20 18v181q0 7 -5.5 12.5t-13.5 5.5h-295q-7 0 -12.5 6.5t-5.5 12.5z" />
<glyph unicode="&#xbd;" d="M37 18v105q0 7 5.5 12.5t12.5 5.5h140q6 0 12 6t6 13v635q0 7 5.5 12.5t12.5 5.5h369q6 0 12 6t6 12v637q0 8 6 13.5t13 5.5h291q7 0 12.5 -5.5t5.5 -13.5v-104q0 -8 -5 -13t-13 -5h-137q-7 0 -13 -6t-6 -13v-637q0 -6 -6 -12t-12 -6h-369q-7 0 -12.5 -5.5t-5.5 -13.5 v-635q0 -7 -6.5 -12.5t-12.5 -5.5h-293q-7 0 -12.5 5t-5.5 13zM37 928v104q0 8 5.5 13.5t12.5 5.5h166q-7 0 -12.5 5.5t-5.5 12.5v258q0 7 -5.5 13t-13.5 6h-129q-7 0 -12.5 5t-5.5 13v104q0 8 5.5 13.5t12.5 5.5h283q7 0 12.5 -5.5t5.5 -13.5v-399q0 -7 5.5 -12.5 t13.5 -5.5h129q7 0 12.5 -5.5t5.5 -13.5v-104q0 -8 -5.5 -13.5t-12.5 -5.5h-449q-7 0 -12.5 5.5t-5.5 13.5zM461 18v322q0 8 5.5 13t12.5 5h295q7 0 13 6.5t6 12.5v41q0 7 -5.5 12.5t-13.5 5.5h-295q-7 0 -12.5 5.5t-5.5 13.5v104q0 8 5.5 13.5t12.5 5.5h449q7 0 12.5 -5.5 t5.5 -13.5v-323q0 -6 -5.5 -12.5t-12.5 -6.5h-295q-8 0 -13.5 -5.5t-5.5 -12.5v-39q0 -8 6 -13.5t13 -5.5h295q8 0 13 -5.5t5 -12.5v-105q0 -8 -5 -13t-13 -5h-449q-7 0 -12.5 5t-5.5 13z" />
<glyph unicode="&#xbe;" d="M37 18v105q0 7 5.5 12.5t12.5 5.5h140q6 0 12 6t6 13v635q0 7 5.5 12.5t12.5 5.5h369q6 0 12 6t6 12v637q0 8 6 13.5t13 5.5h291q7 0 12.5 -5.5t5.5 -13.5v-104q0 -8 -5 -13t-13 -5h-137q-7 0 -13 -6t-6 -13v-637q0 -6 -6 -12t-12 -6h-369q-7 0 -12.5 -5.5t-5.5 -13.5 v-635q0 -7 -6.5 -12.5t-12.5 -5.5h-293q-7 0 -12.5 5t-5.5 13zM37 928v104q0 8 5.5 13.5t12.5 5.5h295q8 0 13.5 5.5t5.5 12.5v39q0 7 -5.5 12.5t-13.5 5.5h-295q-7 0 -12.5 6.5t-5.5 12.5v104q0 8 5.5 13.5t12.5 5.5h295q8 0 13.5 -6t5.5 -13v78q0 7 -5.5 13t-13.5 6h-295 q-7 0 -12.5 5t-5.5 13v104q0 8 5.5 13.5t12.5 5.5h449q7 0 12.5 -5.5t5.5 -13.5v-540q0 -8 -5.5 -13.5t-12.5 -5.5h-449q-7 0 -12.5 5.5t-5.5 13.5zM461 236v323q0 8 5.5 13.5t12.5 5.5h117q7 0 12.5 -5.5t5.5 -13.5v-182q0 -6 6 -12.5t13 -6.5h141q8 0 13.5 -5.5t5.5 -12.5 v219q0 8 5.5 13.5t12.5 5.5h117q7 0 12.5 -5.5t5.5 -13.5v-541q0 -8 -5 -13t-13 -5h-115q-20 0 -20 18v181q0 7 -5.5 12.5t-13.5 5.5h-295q-7 0 -12.5 6.5t-5.5 12.5z" />
<glyph unicode="&#xbf;" d="M0 18v768q0 8 5.5 13.5t12.5 5.5h363q7 0 12.5 5.5t5.5 12.5v277q0 7 5.5 12.5t13.5 5.5h147q8 0 13.5 -5.5t5.5 -12.5v-418q0 -7 -5.5 -12.5t-13.5 -5.5h-393q-7 0 -12.5 -5.5t-5.5 -13.5v-485q0 -8 5.5 -13.5t12.5 -5.5h793q7 0 12.5 -5.5t5.5 -12.5v-105 q0 -8 -5.5 -13t-12.5 -5h-947q-8 0 -13 5t-5 13zM399 1321v147q0 8 5.5 13.5t13.5 5.5h147q7 0 13 -5.5t6 -13.5v-147q0 -7 -5.5 -12.5t-13.5 -5.5h-147q-8 0 -13.5 5.5t-5.5 12.5z" />
<glyph unicode="&#xc0;" d="M0 18v1450q0 8 5.5 13.5t12.5 5.5h947q7 0 12.5 -5.5t5.5 -13.5v-1450q0 -8 -5.5 -13t-12.5 -5h-117q-8 0 -13.5 5.5t-5.5 12.5v1309q0 8 -5.5 13.5t-12.5 5.5h-639q-7 0 -12.5 -5.5t-5.5 -13.5v-375q0 8 5.5 13.5t12.5 5.5h545q7 0 12.5 -5.5t5.5 -13.5v-104 q0 -8 -5.5 -13.5t-12.5 -5.5h-545q-8 0 -13 -5.5t-5 -12.5v-793q0 -7 -5.5 -12.5t-13.5 -5.5h-117q-8 0 -13 5t-5 13zM342 1624v264q0 8 5.5 13.5t12.5 5.5h105q7 0 12.5 -5.5t5.5 -13.5v-123q0 -7 5.5 -12.5t13.5 -5.5h123q7 0 12.5 -5.5t5.5 -12.5v-105q0 -8 -5.5 -13 t-12.5 -5h-265q-8 0 -13 5t-5 13z" />
<glyph unicode="&#xc1;" d="M0 18v1450q0 8 5.5 13.5t12.5 5.5h947q7 0 12.5 -5.5t5.5 -13.5v-1450q0 -8 -5.5 -13t-12.5 -5h-117q-8 0 -13.5 5.5t-5.5 12.5v1309q0 8 -5.5 13.5t-12.5 5.5h-639q-7 0 -12.5 -5.5t-5.5 -13.5v-375q0 8 5.5 13.5t12.5 5.5h545q7 0 12.5 -5.5t5.5 -13.5v-104 q0 -8 -5.5 -13.5t-12.5 -5.5h-545q-8 0 -13 -5.5t-5 -12.5v-793q0 -7 -5.5 -12.5t-13.5 -5.5h-117q-8 0 -13 5t-5 13zM342 1624v105q0 7 5 12.5t13 5.5h123q8 0 13.5 5.5t5.5 12.5v123q0 8 5.5 13.5t12.5 5.5h105q7 0 12.5 -5.5t5.5 -13.5v-264q0 -8 -5.5 -13t-12.5 -5h-265 q-8 0 -13 5t-5 13z" />
<glyph unicode="&#xc2;" d="M0 18v1450q0 8 5.5 13.5t12.5 5.5h947q7 0 12.5 -5.5t5.5 -13.5v-1450q0 -8 -5.5 -13t-12.5 -5h-117q-8 0 -13.5 5.5t-5.5 12.5v1309q0 8 -5.5 13.5t-12.5 5.5h-639q-7 0 -12.5 -5.5t-5.5 -13.5v-375q0 8 5.5 13.5t12.5 5.5h545q6 0 12 -6t6 -13v-104q0 -7 -6 -13t-12 -6 h-545q-8 0 -13 -5.5t-5 -12.5v-793q0 -7 -5.5 -12.5t-13.5 -5.5h-117q-8 0 -13 5t-5 13zM219 1624v105q0 7 5.5 12.5t13.5 5.5h49q6 0 12 5.5t6 12.5v123q0 8 5.5 13.5t13.5 5.5h338q6 0 12 -6t6 -13v-123q0 -7 5 -12.5t13 -5.5h50q6 0 12 -5.5t6 -12.5v-105q0 -7 -6 -12.5 t-12 -5.5h-173q-7 0 -12.5 5t-5.5 13v123q0 7 -6 12.5t-12 5.5h-93q-8 0 -13 -5.5t-5 -12.5v-123q0 -7 -6 -12.5t-12 -5.5h-172q-8 0 -13.5 5.5t-5.5 12.5z" />
<glyph unicode="&#xc3;" d="M0 18v1450q0 8 5.5 13.5t12.5 5.5h947q7 0 12.5 -5.5t5.5 -13.5v-1450q0 -8 -5.5 -13t-12.5 -5h-117q-8 0 -13.5 5.5t-5.5 12.5v1309q0 8 -5.5 13.5t-12.5 5.5h-639q-7 0 -12.5 -5.5t-5.5 -13.5v-375q0 8 5.5 13.5t12.5 5.5h545q6 0 12 -6t6 -13v-104q0 -7 -6 -13t-12 -6 h-545q-8 0 -13 -5.5t-5 -12.5v-793q0 -7 -5.5 -12.5t-13.5 -5.5h-117q-8 0 -13 5t-5 13zM260 1624v105q0 7 6.5 12.5t12.5 5.5h122q8 0 13.5 5.5t5.5 12.5v123q0 7 6 13t12 6h264q8 0 13.5 -5.5t5.5 -13.5v-104q0 -8 -5.5 -13.5t-13.5 -5.5h-122q-6 0 -12.5 -5.5t-6.5 -12.5 v-123q0 -8 -5.5 -13t-12.5 -5h-264q-6 0 -12.5 5.5t-6.5 12.5z" />
<glyph unicode="&#xc4;" d="M0 18v1450q0 8 5.5 13.5t12.5 5.5h947q7 0 12.5 -5.5t5.5 -13.5v-1450q0 -8 -5.5 -13t-12.5 -5h-117q-8 0 -13.5 5.5t-5.5 12.5v1309q0 8 -5.5 13.5t-12.5 5.5h-639q-7 0 -12.5 -5.5t-5.5 -13.5v-375q0 8 5.5 13.5t12.5 5.5h545q6 0 12 -6t6 -13v-104q0 -7 -6 -13t-12 -6 h-545q-8 0 -13 -5.5t-5 -12.5v-793q0 -7 -5.5 -12.5t-13.5 -5.5h-117q-8 0 -13 5t-5 13zM217 1624v141q0 7 6.5 13t12.5 6h172q7 0 12.5 -5.5t5.5 -13.5v-141q0 -8 -5 -13t-13 -5h-172q-6 0 -12.5 5.5t-6.5 12.5zM555 1624v141q0 7 6 13t12 6h172q7 0 13 -6t6 -13v-141 q0 -7 -5.5 -12.5t-13.5 -5.5h-172q-6 0 -12 5.5t-6 12.5z" />
<glyph unicode="&#xc5;" d="M0 18v1450q0 8 5.5 13.5t12.5 5.5h947q7 0 12.5 -5.5t5.5 -13.5v-1450q0 -8 -5.5 -13t-12.5 -5h-117q-8 0 -13.5 5.5t-5.5 12.5v1309q0 8 -5.5 13.5t-12.5 5.5h-639q-7 0 -12.5 -5.5t-5.5 -13.5v-375q0 8 5.5 13.5t12.5 5.5h545q6 0 12 -6t6 -13v-104q0 -7 -6 -13t-12 -6 h-545q-8 0 -13 -5.5t-5 -12.5v-793q0 -7 -5.5 -12.5t-13.5 -5.5h-117q-8 0 -13 5t-5 13zM342 1624v264q0 8 5.5 13.5t12.5 5.5h265q7 0 12.5 -5.5t5.5 -13.5v-264q0 -8 -5.5 -13t-12.5 -5h-265q-8 0 -13 5t-5 13zM416 1698q0 -8 5.5 -13.5t12.5 -5.5h117q7 0 12.5 5.5 t5.5 13.5v117q0 7 -5.5 12.5t-12.5 5.5h-117q-8 0 -13 -5.5t-5 -12.5v-117z" />
<glyph unicode="&#xc6;" d="M0 18v1450q0 8 5.5 13.5t12.5 5.5h945q7 0 12.5 -5.5t5.5 -13.5v-104q0 -8 -5.5 -13t-12.5 -5h-310q-7 0 -12.5 -5.5t-5.5 -13.5v-375q0 8 5.5 13.5t12.5 5.5h310q7 0 12.5 -5.5t5.5 -13.5v-104q0 -8 -5.5 -13.5t-12.5 -5.5h-310q-7 0 -12.5 -5.5t-5.5 -12.5v-651 q0 -8 5.5 -13.5t12.5 -5.5h310q7 0 12.5 -5.5t5.5 -12.5v-105q0 -8 -5.5 -13t-12.5 -5h-463q-8 0 -13.5 5.5t-5.5 12.5v1309q0 7 5.5 13t13.5 6h-328q-7 0 -12.5 -5.5t-5.5 -13.5v-375q0 8 5.5 13.5t12.5 5.5h195q7 0 12.5 -5.5t5.5 -13.5v-104q0 -8 -5.5 -13.5t-12.5 -5.5 h-195q-8 0 -13 -5.5t-5 -12.5v-793q0 -7 -5.5 -12.5t-13.5 -5.5h-117q-8 0 -13 5t-5 13z" />
<glyph unicode="&#xc7;" d="M0 18v1450q0 8 5.5 13.5t12.5 5.5h947q7 0 12.5 -5.5t5.5 -13.5v-104q0 -8 -5.5 -13t-12.5 -5h-793q-7 0 -12.5 -5.5t-5.5 -13.5v-1167q0 -8 5.5 -13.5t12.5 -5.5h793q7 0 12.5 -5.5t5.5 -12.5v-105q0 -8 -5.5 -13t-12.5 -5h-947q-8 0 -13 5t-5 13zM74 -401q0 7 5 12.5 t13 5.5h379q6 0 12 5.5t6 12.5v254q0 7 5.5 13t13.5 6h117q6 0 12 -6t6 -13v-395q0 -7 -6 -12.5t-12 -5.5h-533q-8 0 -13 5t-5 13v105z" />
<glyph unicode="&#xc8;" d="M0 18v1450q0 8 5.5 13.5t12.5 5.5h947q7 0 12.5 -5.5t5.5 -13.5v-104q0 -8 -5.5 -13t-12.5 -5h-793q-7 0 -12.5 -5.5t-5.5 -13.5v-375q0 8 5.5 13.5t12.5 5.5h545q6 0 12 -6t6 -13v-104q0 -7 -6 -13t-12 -6h-545q-8 0 -13 -5.5t-5 -12.5v-651q0 -8 5.5 -13.5t12.5 -5.5 h793q7 0 12.5 -5.5t5.5 -12.5v-105q0 -8 -5.5 -13t-12.5 -5h-947q-8 0 -13 5t-5 13zM342 1624v264q0 8 5.5 13.5t12.5 5.5h105q7 0 12.5 -5.5t5.5 -13.5v-123q0 -7 5.5 -12.5t13.5 -5.5h123q7 0 12.5 -5.5t5.5 -12.5v-105q0 -8 -5.5 -13t-12.5 -5h-265q-8 0 -13 5t-5 13z " />
<glyph unicode="&#xc9;" d="M0 18v1450q0 8 5.5 13.5t12.5 5.5h947q7 0 12.5 -5.5t5.5 -13.5v-104q0 -8 -5.5 -13t-12.5 -5h-793q-7 0 -12.5 -5.5t-5.5 -13.5v-375q0 8 5.5 13.5t12.5 5.5h545q6 0 12 -6t6 -13v-104q0 -7 -6 -13t-12 -6h-545q-8 0 -13 -5.5t-5 -12.5v-651q0 -8 5.5 -13.5t12.5 -5.5 h793q7 0 12.5 -5.5t5.5 -12.5v-105q0 -8 -5.5 -13t-12.5 -5h-947q-8 0 -13 5t-5 13zM342 1624v105q0 7 5 12.5t13 5.5h123q8 0 13.5 5.5t5.5 12.5v123q0 8 5.5 13.5t12.5 5.5h105q7 0 12.5 -5.5t5.5 -13.5v-264q0 -8 -5.5 -13t-12.5 -5h-265q-8 0 -13 5t-5 13z" />
<glyph unicode="&#xca;" d="M0 18v1450q0 8 5.5 13.5t12.5 5.5h947q7 0 12.5 -5.5t5.5 -13.5v-104q0 -8 -5.5 -13t-12.5 -5h-793q-7 0 -12.5 -5.5t-5.5 -13.5v-375q0 8 5.5 13.5t12.5 5.5h545q6 0 12 -6t6 -13v-104q0 -7 -6 -13t-12 -6h-545q-8 0 -13 -5.5t-5 -12.5v-651q0 -8 5.5 -13.5t12.5 -5.5 h793q7 0 12.5 -5.5t5.5 -12.5v-105q0 -8 -5.5 -13t-12.5 -5h-947q-8 0 -13 5t-5 13zM219 1624v105q0 7 5.5 12.5t13.5 5.5h49q6 0 12 5.5t6 12.5v123q0 8 5.5 13.5t13.5 5.5h338q6 0 12 -6t6 -13v-123q0 -7 5 -12.5t13 -5.5h50q6 0 12 -5.5t6 -12.5v-105q0 -7 -6 -12.5 t-12 -5.5h-173q-7 0 -12.5 5t-5.5 13v123q0 7 -6 12.5t-12 5.5h-93q-8 0 -13 -5.5t-5 -12.5v-123q0 -7 -6 -12.5t-12 -5.5h-172q-8 0 -13.5 5.5t-5.5 12.5z" />
<glyph unicode="&#xcb;" d="M0 18v1450q0 8 5.5 13.5t12.5 5.5h947q7 0 12.5 -5.5t5.5 -13.5v-104q0 -8 -5.5 -13t-12.5 -5h-793q-7 0 -12.5 -5.5t-5.5 -13.5v-375q0 8 5.5 13.5t12.5 5.5h545q6 0 12 -6t6 -13v-104q0 -7 -6 -13t-12 -6h-545q-8 0 -13 -5.5t-5 -12.5v-651q0 -8 5.5 -13.5t12.5 -5.5 h793q7 0 12.5 -5.5t5.5 -12.5v-105q0 -8 -5.5 -13t-12.5 -5h-947q-8 0 -13 5t-5 13zM217 1624v141q0 7 6.5 13t12.5 6h172q7 0 12.5 -5.5t5.5 -13.5v-141q0 -8 -5 -13t-13 -5h-172q-6 0 -12.5 5.5t-6.5 12.5zM555 1624v141q0 7 6 13t12 6h172q7 0 13 -6t6 -13v-141 q0 -7 -5.5 -12.5t-13.5 -5.5h-172q-6 0 -12 5.5t-6 12.5z" />
<glyph unicode="&#xcc;" d="M0 18v105q0 7 5 12.5t13 5.5h379q6 0 12.5 6t6.5 13v1167q0 8 5.5 13.5t12.5 5.5h-416q-8 0 -13 5t-5 13v104q0 8 5.5 13.5t12.5 5.5h988q7 0 12.5 -5.5t5.5 -13.5v-104q0 -8 -5 -13t-13 -5h-418q-8 0 -13.5 -6t-5.5 -13v-1167q0 -7 -6 -13t-12 -6h414q7 0 12.5 -5.5 t5.5 -12.5v-105q0 -8 -5.5 -13t-12.5 -5h-947q-8 0 -13 5t-5 13zM342 1624v264q0 8 5.5 13.5t12.5 5.5h105q7 0 12.5 -5.5t5.5 -13.5v-123q0 -7 5.5 -12.5t13.5 -5.5h123q7 0 12.5 -5.5t5.5 -12.5v-105q0 -8 -5.5 -13t-12.5 -5h-265q-8 0 -13 5t-5 13z" />
<glyph unicode="&#xcd;" d="M0 18v105q0 7 5 12.5t13 5.5h379q6 0 12.5 6t6.5 13v1167q0 8 5.5 13.5t12.5 5.5h-416q-8 0 -13 5t-5 13v104q0 8 5.5 13.5t12.5 5.5h988q7 0 12.5 -5.5t5.5 -13.5v-104q0 -8 -5 -13t-13 -5h-418q-8 0 -13.5 -6t-5.5 -13v-1167q0 -7 -6 -13t-12 -6h414q7 0 12.5 -5.5 t5.5 -12.5v-105q0 -8 -5.5 -13t-12.5 -5h-947q-8 0 -13 5t-5 13zM342 1624v105q0 7 5 12.5t13 5.5h123q8 0 13.5 5.5t5.5 12.5v123q0 8 5.5 13.5t12.5 5.5h105q7 0 12.5 -5.5t5.5 -13.5v-264q0 -8 -5.5 -13t-12.5 -5h-265q-8 0 -13 5t-5 13z" />
<glyph unicode="&#xce;" d="M0 18v105q0 7 5 12.5t13 5.5h379q6 0 12.5 6t6.5 13v1167q0 8 5.5 13.5t12.5 5.5h-416q-8 0 -13 5t-5 13v104q0 8 5.5 13.5t12.5 5.5h988q7 0 12.5 -5.5t5.5 -13.5v-104q0 -8 -5 -13t-13 -5h-418q-8 0 -13.5 -6t-5.5 -13v-1167q0 -7 -6 -13t-12 -6h414q7 0 12.5 -5.5 t5.5 -12.5v-105q0 -8 -5.5 -13t-12.5 -5h-947q-8 0 -13 5t-5 13zM219 1624v105q0 7 5.5 12.5t13.5 5.5h49q6 0 12 5.5t6 12.5v123q0 8 5.5 13.5t13.5 5.5h338q6 0 12 -6t6 -13v-123q0 -7 5 -12.5t13 -5.5h50q6 0 12 -5.5t6 -12.5v-105q0 -7 -6 -12.5t-12 -5.5h-173 q-7 0 -12.5 5t-5.5 13v123q0 7 -6 12.5t-12 5.5h-93q-8 0 -13 -5.5t-5 -12.5v-123q0 -7 -6 -12.5t-12 -5.5h-172q-8 0 -13.5 5.5t-5.5 12.5z" />
<glyph unicode="&#xcf;" d="M0 18v105q0 7 5 12.5t13 5.5h379q6 0 12.5 6t6.5 13v1167q0 8 5.5 13.5t12.5 5.5h-416q-8 0 -13 5t-5 13v104q0 8 5.5 13.5t12.5 5.5h988q7 0 12.5 -5.5t5.5 -13.5v-104q0 -8 -5 -13t-13 -5h-418q-8 0 -13.5 -6t-5.5 -13v-1167q0 -7 -6 -13t-12 -6h414q7 0 12.5 -5.5 t5.5 -12.5v-105q0 -8 -5.5 -13t-12.5 -5h-947q-8 0 -13 5t-5 13zM217 1624v141q0 7 6.5 13t12.5 6h172q7 0 12.5 -5.5t5.5 -13.5v-141q0 -8 -5 -13t-13 -5h-172q-6 0 -12.5 5.5t-6.5 12.5zM555 1624v141q0 7 6 13t12 6h172q7 0 13 -6t6 -13v-141q0 -7 -5.5 -12.5t-13.5 -5.5 h-172q-6 0 -12 5.5t-6 12.5z" />
<glyph unicode="&#xd0;" d="M-72 850v104q0 8 6 13.5t13 5.5h35q7 0 12.5 6t5.5 12v477q0 8 5.5 13.5t12.5 5.5h947q7 0 12.5 -5.5t5.5 -13.5v-1450q0 -8 -5.5 -13t-12.5 -5h-947q-8 0 -13 5t-5 13v617q0 7 5 12.5t13 5.5h117q8 0 13.5 -5.5t5.5 -12.5v-475q0 -8 5.5 -13.5t12.5 -5.5h639 q7 0 12.5 5.5t5.5 13.5v1167q0 8 -5.5 13.5t-12.5 5.5h-639q-7 0 -12.5 -5.5t-5.5 -13.5v-336q0 -6 5.5 -12t12.5 -6h147q7 0 13 -5.5t6 -13.5v-104q0 -6 -6 -12.5t-13 -6.5h-372q-7 0 -13 6.5t-6 12.5z" />
<glyph unicode="&#xd1;" d="M0 18v1450q0 8 5.5 13.5t12.5 5.5h533q6 0 12 -6t6 -13v-1308q0 -8 5.5 -13.5t13.5 -5.5h223q7 0 12.5 5.5t5.5 13.5v1308q0 8 5.5 13.5t13.5 5.5h117q7 0 12.5 -5.5t5.5 -13.5v-1450q0 -8 -5.5 -13t-12.5 -5h-531q-8 0 -13 5t-5 13v1309q0 7 -6.5 13t-12.5 6h-225 q-7 0 -12.5 -5.5t-5.5 -13.5v-1309q0 -7 -5.5 -12.5t-13.5 -5.5h-117q-8 0 -13 5t-5 13zM260 1624v105q0 7 6.5 12.5t12.5 5.5h122q8 0 13.5 5.5t5.5 12.5v123q0 7 6 13t12 6h264q8 0 13.5 -5.5t5.5 -13.5v-104q0 -8 -5.5 -13.5t-13.5 -5.5h-122q-6 0 -12.5 -5.5t-6.5 -12.5 v-123q0 -8 -5.5 -13t-12.5 -5h-264q-6 0 -12.5 5.5t-6.5 12.5z" />
<glyph unicode="&#xd2;" d="M0 18v1450q0 8 5.5 13.5t12.5 5.5h947q7 0 12.5 -5.5t5.5 -13.5v-1450q0 -8 -5.5 -13t-12.5 -5h-947q-8 0 -13 5t-5 13zM154 160q0 -8 5.5 -13.5t12.5 -5.5h639q7 0 12.5 5.5t5.5 13.5v1167q0 8 -5.5 13.5t-12.5 5.5h-639q-7 0 -12.5 -5.5t-5.5 -13.5v-1167zM342 1624 v264q0 8 5.5 13.5t12.5 5.5h105q7 0 12.5 -5.5t5.5 -13.5v-123q0 -7 5.5 -12.5t13.5 -5.5h123q7 0 12.5 -5.5t5.5 -12.5v-105q0 -8 -5.5 -13t-12.5 -5h-265q-8 0 -13 5t-5 13z" />
<glyph unicode="&#xd3;" d="M0 18v1450q0 8 5.5 13.5t12.5 5.5h947q7 0 12.5 -5.5t5.5 -13.5v-1450q0 -8 -5.5 -13t-12.5 -5h-947q-8 0 -13 5t-5 13zM154 160q0 -8 5.5 -13.5t12.5 -5.5h639q7 0 12.5 5.5t5.5 13.5v1167q0 8 -5.5 13.5t-12.5 5.5h-639q-7 0 -12.5 -5.5t-5.5 -13.5v-1167zM342 1624 v105q0 7 5 12.5t13 5.5h123q8 0 13.5 5.5t5.5 12.5v123q0 8 5.5 13.5t12.5 5.5h105q7 0 12.5 -5.5t5.5 -13.5v-264q0 -8 -5.5 -13t-12.5 -5h-265q-8 0 -13 5t-5 13z" />
<glyph unicode="&#xd4;" d="M0 18v1450q0 8 5.5 13.5t12.5 5.5h947q7 0 12.5 -5.5t5.5 -13.5v-1450q0 -8 -5.5 -13t-12.5 -5h-947q-8 0 -13 5t-5 13zM154 160q0 -8 5.5 -13.5t12.5 -5.5h639q7 0 12.5 5.5t5.5 13.5v1167q0 8 -5.5 13.5t-12.5 5.5h-639q-7 0 -12.5 -5.5t-5.5 -13.5v-1167zM219 1624 v105q0 7 5.5 12.5t13.5 5.5h49q6 0 12 5.5t6 12.5v123q0 8 5.5 13.5t13.5 5.5h338q6 0 12 -6t6 -13v-123q0 -7 5 -12.5t13 -5.5h50q6 0 12 -5.5t6 -12.5v-105q0 -7 -6 -12.5t-12 -5.5h-173q-7 0 -12.5 5t-5.5 13v123q0 7 -6 12.5t-12 5.5h-93q-8 0 -13 -5.5t-5 -12.5v-123 q0 -7 -6 -12.5t-12 -5.5h-172q-8 0 -13.5 5.5t-5.5 12.5z" />
<glyph unicode="&#xd5;" d="M0 18v1450q0 8 5.5 13.5t12.5 5.5h947q7 0 12.5 -5.5t5.5 -13.5v-1450q0 -8 -5.5 -13t-12.5 -5h-947q-8 0 -13 5t-5 13zM154 160q0 -8 5.5 -13.5t12.5 -5.5h639q7 0 12.5 5.5t5.5 13.5v1167q0 8 -5.5 13.5t-12.5 5.5h-639q-7 0 -12.5 -5.5t-5.5 -13.5v-1167zM260 1624 v105q0 7 6.5 12.5t12.5 5.5h122q8 0 13.5 5.5t5.5 12.5v123q0 7 6 13t12 6h264q8 0 13.5 -5.5t5.5 -13.5v-104q0 -8 -5.5 -13.5t-13.5 -5.5h-122q-6 0 -12.5 -5.5t-6.5 -12.5v-123q0 -8 -5.5 -13t-12.5 -5h-264q-6 0 -12.5 5.5t-6.5 12.5z" />
<glyph unicode="&#xd6;" d="M0 18v1450q0 8 5.5 13.5t12.5 5.5h947q7 0 12.5 -5.5t5.5 -13.5v-1450q0 -8 -5.5 -13t-12.5 -5h-947q-8 0 -13 5t-5 13zM154 160q0 -8 5.5 -13.5t12.5 -5.5h639q7 0 12.5 5.5t5.5 13.5v1167q0 8 -5.5 13.5t-12.5 5.5h-639q-7 0 -12.5 -5.5t-5.5 -13.5v-1167zM217 1624 v141q0 7 6.5 13t12.5 6h172q7 0 12.5 -5.5t5.5 -13.5v-141q0 -8 -5 -13t-13 -5h-172q-6 0 -12.5 5.5t-6.5 12.5zM555 1624v141q0 7 6 13t12 6h172q7 0 13 -6t6 -13v-141q0 -7 -5.5 -12.5t-13.5 -5.5h-172q-6 0 -12 5.5t-6 12.5z" />
<glyph unicode="&#xd7;" d="M0 434v105q0 7 5 12.5t13 5.5h363q7 0 12.5 -5.5t5.5 -12.5v116q0 8 -5.5 13.5t-12.5 5.5h-289q-8 0 -13 5t-5 13v260q0 8 5.5 13.5t12.5 5.5h148q7 0 12.5 -5.5t5.5 -13.5v-118q0 -8 5.5 -13.5t12.5 -5.5h289q8 0 13.5 -5.5t5.5 -12.5v-222q0 -7 5 -12.5t13 -5.5h363 q7 0 12.5 -5.5t5.5 -12.5v-105q0 -8 -5.5 -13t-12.5 -5h-363q-8 0 -13 5t-5 13v-117q0 -7 5 -12.5t13 -5.5h289q7 0 12.5 -5.5t5.5 -12.5v-263q0 -8 -5.5 -13t-12.5 -5h-148q-7 0 -12.5 5t-5.5 13v121q0 8 -5.5 13.5t-12.5 5.5h-289q-8 0 -13.5 5.5t-5.5 12.5v221 q0 8 -5.5 13.5t-12.5 5.5h-363q-8 0 -13 5t-5 13z" />
<glyph unicode="&#xd8;" d="M0 18v105q0 7 5 12.5t13 5.5h111q-7 0 -12.5 5.5t-5.5 13.5v1308q0 8 5.5 13.5t12.5 5.5h836q7 0 12.5 -5.5t5.5 -13.5v-104q0 -8 -5.5 -13t-12.5 -5h-111q7 0 12.5 -5.5t5.5 -13.5v-1309q0 -8 -5 -13t-13 -5h-836q-8 0 -13 5t-5 13zM264 160q0 -8 6 -13.5t13 -5.5h417 q8 0 13.5 5.5t5.5 13.5v530q0 -6 -6 -12t-13 -6h-417q-7 0 -13 -6t-6 -13v-493zM264 795q0 7 5.5 12.5t13.5 5.5h417q7 0 13 6t6 12v496q0 7 -5.5 13t-13.5 6h-417q-7 0 -13 -6t-6 -13v-532z" />
<glyph unicode="&#xd9;" d="M0 18v1450q0 8 5.5 13.5t12.5 5.5h117q7 0 13 -5.5t6 -13.5v-1308q0 -8 5.5 -13.5t12.5 -5.5h639q7 0 12.5 5.5t5.5 13.5v1308q0 8 5.5 13.5t13.5 5.5h117q7 0 12.5 -5.5t5.5 -13.5v-1450q0 -8 -5.5 -13t-12.5 -5h-947q-8 0 -13 5t-5 13zM342 1624v264q0 8 5.5 13.5 t12.5 5.5h105q7 0 12.5 -5.5t5.5 -13.5v-123q0 -7 5.5 -12.5t13.5 -5.5h123q7 0 12.5 -5.5t5.5 -12.5v-105q0 -8 -5.5 -13t-12.5 -5h-265q-8 0 -13 5t-5 13z" />
<glyph unicode="&#xda;" d="M0 18v1450q0 8 5.5 13.5t12.5 5.5h117q7 0 13 -5.5t6 -13.5v-1308q0 -8 5.5 -13.5t12.5 -5.5h639q7 0 12.5 5.5t5.5 13.5v1308q0 8 5.5 13.5t13.5 5.5h117q7 0 12.5 -5.5t5.5 -13.5v-1450q0 -8 -5.5 -13t-12.5 -5h-947q-8 0 -13 5t-5 13zM342 1624v105q0 7 5 12.5t13 5.5 h123q8 0 13.5 5.5t5.5 12.5v123q0 8 5.5 13.5t12.5 5.5h105q7 0 12.5 -5.5t5.5 -13.5v-264q0 -8 -5.5 -13t-12.5 -5h-265q-8 0 -13 5t-5 13z" />
<glyph unicode="&#xdb;" d="M0 18v1450q0 8 5.5 13.5t12.5 5.5h117q7 0 13 -5.5t6 -13.5v-1308q0 -8 5.5 -13.5t12.5 -5.5h639q7 0 12.5 5.5t5.5 13.5v1308q0 8 5.5 13.5t13.5 5.5h117q7 0 12.5 -5.5t5.5 -13.5v-1450q0 -8 -5.5 -13t-12.5 -5h-947q-8 0 -13 5t-5 13zM219 1624v105q0 7 5.5 12.5 t13.5 5.5h49q6 0 12 5.5t6 12.5v123q0 8 5.5 13.5t13.5 5.5h338q6 0 12 -6t6 -13v-123q0 -7 5 -12.5t13 -5.5h50q6 0 12 -5.5t6 -12.5v-105q0 -7 -6 -12.5t-12 -5.5h-173q-7 0 -12.5 5t-5.5 13v123q0 7 -6 12.5t-12 5.5h-93q-8 0 -13 -5.5t-5 -12.5v-123q0 -7 -6 -12.5 t-12 -5.5h-172q-8 0 -13.5 5.5t-5.5 12.5z" />
<glyph unicode="&#xdc;" d="M0 18v1450q0 8 5.5 13.5t12.5 5.5h117q7 0 13 -5.5t6 -13.5v-1308q0 -8 5.5 -13.5t12.5 -5.5h639q7 0 12.5 5.5t5.5 13.5v1308q0 8 5.5 13.5t13.5 5.5h117q7 0 12.5 -5.5t5.5 -13.5v-1450q0 -8 -5.5 -13t-12.5 -5h-947q-8 0 -13 5t-5 13zM217 1624v141q0 7 6.5 13t12.5 6 h172q7 0 12.5 -5.5t5.5 -13.5v-141q0 -8 -5 -13t-13 -5h-172q-6 0 -12.5 5.5t-6.5 12.5zM555 1624v141q0 7 6 13t12 6h172q7 0 13 -6t6 -13v-141q0 -7 -5.5 -12.5t-13.5 -5.5h-172q-6 0 -12 5.5t-6 12.5z" />
<glyph unicode="&#xdd;" d="M0 848v620q0 8 5.5 13.5t12.5 5.5h117q7 0 13 -5.5t6 -13.5v-479q0 -7 5 -12.5t13 -5.5h639q7 0 12.5 5.5t5.5 12.5v479q0 8 5.5 13.5t13.5 5.5h117q7 0 12.5 -5.5t5.5 -13.5v-620q0 -8 -5.5 -13.5t-12.5 -5.5h-414q6 0 12 -5.5t6 -12.5v-793q0 -7 -6 -12.5t-12 -5.5 h-117q-8 0 -13 5t-5 13v793q0 7 -6.5 12.5t-12.5 5.5h-379q-7 0 -12.5 5.5t-5.5 13.5zM342 1624v105q0 7 5 12.5t13 5.5h123q8 0 13.5 5.5t5.5 12.5v123q0 8 5.5 13.5t12.5 5.5h105q7 0 12.5 -5.5t5.5 -13.5v-264q0 -8 -5.5 -13t-12.5 -5h-265q-8 0 -13 5t-5 13z" />
<glyph unicode="&#xde;" d="M0 18v1487q0 8 5.5 13.5t12.5 5.5h117q7 0 13 -6t6 -13v-411q0 8 5 13t13 5h793q7 0 12.5 -5t5.5 -13v-664q0 -8 -5.5 -13t-12.5 -5h-793q-8 0 -13 5t-5 13v-412q0 -7 -5.5 -12.5t-13.5 -5.5h-117q-8 0 -13 5t-5 13zM154 571q0 -7 5 -12.5t13 -5.5h639q7 0 12.5 5.5 t5.5 12.5v381q0 8 -5.5 13.5t-12.5 5.5h-639q-7 0 -12.5 -5.5t-5.5 -13.5v-381z" />
<glyph unicode="&#xdf;" d="M0 18v1450q0 8 5.5 13.5t12.5 5.5h873q7 0 12.5 -5.5t5.5 -13.5v-362q0 -8 -5.5 -13.5t-12.5 -5.5h-469q-8 0 -13.5 -5.5t-5.5 -12.5v-80q0 -7 5.5 -12.5t13.5 -5.5h543q7 0 12.5 -5.5t5.5 -13.5v-934q0 -8 -5.5 -13t-12.5 -5h-707q-8 0 -13 5t-5 13v105q0 7 5 12.5 t13 5.5h553q7 0 12.5 5.5t5.5 13.5v651q0 7 -5.5 12.5t-12.5 5.5h-543q-7 0 -12.5 5.5t-5.5 13.5v362q0 8 5.5 13.5t12.5 5.5h469q8 0 13.5 5.5t5.5 12.5v80q0 7 -6 13t-13 6h-565q-7 0 -12.5 -5.5t-5.5 -13.5v-1309q0 -7 -5.5 -12.5t-13.5 -5.5h-117q-8 0 -13 5t-5 13z" />
<glyph unicode="&#xe0;" d="M0 18v639q0 8 5.5 13.5t12.5 5.5h699q6 0 12 -6t6 -13v-104q0 -7 -6 -12.5t-12 -5.5h-545q-7 0 -12.5 -5.5t-5.5 -13.5v-356q0 -8 5.5 -13.5t12.5 -5.5h639q7 0 12.5 5.5t5.5 13.5v651q0 7 -5.5 12.5t-12.5 5.5h-793q-7 0 -12.5 5.5t-5.5 13.5v104q0 8 5.5 13.5t12.5 5.5 h947q7 0 12.5 -5.5t5.5 -13.5v-934q0 -8 -5.5 -13t-12.5 -5h-947q-8 0 -13 5t-5 13zM342 1204v264q0 8 5.5 13.5t12.5 5.5h105q6 0 12 -6t6 -13v-122q0 -8 5.5 -13.5t13.5 -5.5h123q6 0 12 -5.5t6 -12.5v-105q0 -7 -6 -12.5t-12 -5.5h-265q-8 0 -13 5t-5 13z" />
<glyph unicode="&#xe1;" d="M2 18v639q0 8 5.5 13.5t12.5 5.5h697q7 0 12.5 -5.5t5.5 -13.5v-104q0 -7 -5.5 -12.5t-12.5 -5.5h-543q-7 0 -12.5 -5.5t-5.5 -13.5v-356q0 -8 5.5 -13.5t12.5 -5.5h639q7 0 12.5 5.5t5.5 13.5v651q0 7 -5.5 12.5t-12.5 5.5h-793q-7 0 -12.5 5.5t-5.5 13.5v104 q0 8 5.5 13.5t12.5 5.5h947q7 0 12.5 -5.5t5.5 -13.5v-934q0 -8 -5.5 -13t-12.5 -5h-947q-8 0 -13 5t-5 13zM342 1204v105q0 7 5 12.5t13 5.5h123q7 0 13 5.5t6 13.5v122q0 8 5.5 13.5t12.5 5.5h105q7 0 12.5 -5.5t5.5 -13.5v-264q0 -8 -5.5 -13t-12.5 -5h-265q-8 0 -13 5 t-5 13z" />
<glyph unicode="&#xe2;" d="M0 18v639q0 8 5.5 13.5t12.5 5.5h697q7 0 12.5 -5.5t5.5 -13.5v-104q0 -7 -5.5 -12.5t-12.5 -5.5h-543q-7 0 -12.5 -5.5t-5.5 -13.5v-356q0 -8 5.5 -13.5t12.5 -5.5h639q7 0 12.5 5.5t5.5 13.5v651q0 7 -5.5 12.5t-12.5 5.5h-793q-7 0 -12.5 5.5t-5.5 13.5v104 q0 8 5.5 13.5t12.5 5.5h947q7 0 12.5 -5.5t5.5 -13.5v-934q0 -8 -5.5 -13t-12.5 -5h-947q-8 0 -13 5t-5 13zM219 1204v105q0 7 5.5 12.5t13.5 5.5h49q6 0 12 6t6 13v122q0 8 5.5 13.5t13.5 5.5h338q6 0 12 -6t6 -13v-122q0 -8 5.5 -13.5t12.5 -5.5h50q6 0 12 -5.5t6 -12.5 v-105q0 -7 -6 -12.5t-12 -5.5h-173q-7 0 -12.5 5t-5.5 13v123q0 7 -6 13t-12 6h-93q-7 0 -12.5 -5.5t-5.5 -13.5v-123q0 -7 -6 -12.5t-12 -5.5h-172q-8 0 -13.5 5.5t-5.5 12.5z" />
<glyph unicode="&#xe3;" d="M0 18v639q0 8 5.5 13.5t12.5 5.5h697q7 0 12.5 -5.5t5.5 -13.5v-104q0 -7 -5.5 -12.5t-12.5 -5.5h-543q-7 0 -12.5 -5.5t-5.5 -13.5v-356q0 -8 5.5 -13.5t12.5 -5.5h639q7 0 12.5 5.5t5.5 13.5v651q0 7 -5.5 12.5t-12.5 5.5h-793q-7 0 -12.5 5.5t-5.5 13.5v104 q0 8 5.5 13.5t12.5 5.5h947q7 0 12.5 -5.5t5.5 -13.5v-934q0 -8 -5.5 -13t-12.5 -5h-947q-8 0 -13 5t-5 13zM260 1204v105q0 7 6.5 12.5t12.5 5.5h122q7 0 13 5.5t6 13.5v122q0 7 6 13t12 6h264q8 0 13.5 -5.5t5.5 -13.5v-104q0 -7 -5.5 -12.5t-13.5 -5.5h-122 q-6 0 -12.5 -6t-6.5 -13v-123q0 -8 -5.5 -13t-12.5 -5h-264q-6 0 -12.5 5.5t-6.5 12.5z" />
<glyph unicode="&#xe4;" d="M0 18v639q0 8 5.5 13.5t12.5 5.5h697q7 0 12.5 -5.5t5.5 -13.5v-104q0 -7 -5.5 -12.5t-12.5 -5.5h-543q-7 0 -12.5 -5.5t-5.5 -13.5v-356q0 -8 5.5 -13.5t12.5 -5.5h639q7 0 12.5 5.5t5.5 13.5v651q0 7 -5.5 12.5t-12.5 5.5h-793q-7 0 -12.5 5.5t-5.5 13.5v104 q0 8 5.5 13.5t12.5 5.5h947q7 0 12.5 -5.5t5.5 -13.5v-934q0 -8 -5.5 -13t-12.5 -5h-947q-8 0 -13 5t-5 13zM217 1327v141q0 7 6.5 13t12.5 6h172q7 0 12.5 -5.5t5.5 -13.5v-141q0 -7 -5 -12.5t-13 -5.5h-172q-6 0 -12.5 5.5t-6.5 12.5zM555 1327v141q0 7 6 13t12 6h172 q7 0 13 -5.5t6 -13.5v-141q0 -7 -5.5 -12.5t-13.5 -5.5h-172q-6 0 -12 5.5t-6 12.5z" />
<glyph unicode="&#xe5;" d="M2 18v639q0 8 5.5 13.5t12.5 5.5h697q7 0 12.5 -5.5t5.5 -13.5v-104q0 -7 -5.5 -12.5t-12.5 -5.5h-543q-7 0 -12.5 -5.5t-5.5 -13.5v-356q0 -8 5.5 -13.5t12.5 -5.5h639q7 0 12.5 5.5t5.5 13.5v651q0 7 -5.5 12.5t-12.5 5.5h-793q-7 0 -12.5 5.5t-5.5 13.5v104 q0 8 5.5 13.5t12.5 5.5h947q7 0 12.5 -5.5t5.5 -13.5v-934q0 -8 -5.5 -13t-12.5 -5h-947q-8 0 -13 5t-5 13zM342 1204v264q0 8 5.5 13.5t12.5 5.5h265q7 0 12.5 -5.5t5.5 -13.5v-264q0 -8 -5.5 -13t-12.5 -5h-265q-8 0 -13 5t-5 13zM416 1278q0 -8 5 -13t13 -5h117 q7 0 12.5 5t5.5 13v117q0 7 -5.5 12.5t-12.5 5.5h-117q-8 0 -13 -5.5t-5 -12.5v-117z" />
<glyph unicode="&#xe6;" d="M0 18v639q0 8 5.5 13.5t12.5 5.5h322q7 0 12.5 -5.5t5.5 -13.5v-104q0 -7 -5 -12.5t-13 -5.5h-168q-7 0 -12.5 -5.5t-5.5 -13.5v-356q0 -8 5.5 -13.5t12.5 -5.5h299q-7 0 -12.5 5.5t-5.5 13.5v651q0 7 5.5 12.5t12.5 5.5h-453q-7 0 -12.5 5.5t-5.5 13.5v104q0 8 5.5 13.5 t12.5 5.5h947q7 0 12.5 -5.5t5.5 -13.5v-540q0 -8 -5.5 -13.5t-12.5 -5.5h-242q-7 0 -12.5 5.5t-5.5 13.5v104q0 8 5.5 13.5t12.5 5.5h88q7 0 12.5 5.5t5.5 12.5v258q0 7 -5.5 12.5t-12.5 5.5h-184q-8 0 -13.5 -5.5t-5.5 -12.5v-651q0 -8 6 -13.5t13 -5.5h338q7 0 12.5 -5.5 t5.5 -12.5v-105q0 -8 -5.5 -13t-12.5 -5h-947q-8 0 -13 5t-5 13z" />
<glyph unicode="&#xe7;" d="M0 18v934q0 8 5.5 13.5t12.5 5.5h947q7 0 12.5 -5.5t5.5 -13.5v-104q0 -8 -5.5 -13.5t-12.5 -5.5h-793q-8 0 -13 -5.5t-5 -12.5v-651q0 -8 5.5 -13.5t12.5 -5.5h793q7 0 12.5 -5.5t5.5 -12.5v-105q0 -8 -5.5 -13t-12.5 -5h-947q-8 0 -13 5t-5 13zM74 -401q0 7 5 12.5 t13 5.5h379q6 0 12 5.5t6 12.5v254q0 7 5.5 13t13.5 6h117q6 0 12 -6t6 -13v-395q0 -7 -6 -12.5t-12 -5.5h-533q-8 0 -13 5t-5 13v105z" />
<glyph unicode="&#xe8;" d="M0 18v934q0 8 5.5 13.5t12.5 5.5h947q7 0 12.5 -5.5t5.5 -13.5v-540q0 -8 -5.5 -13.5t-12.5 -5.5h-697q-7 0 -12.5 5.5t-5.5 13.5v104q0 8 5.5 13.5t12.5 5.5h543q7 0 12.5 5.5t5.5 12.5v258q0 7 -5.5 12.5t-12.5 5.5h-639q-8 0 -13 -5.5t-5 -12.5v-651q0 -8 5.5 -13.5 t12.5 -5.5h793q7 0 12.5 -5.5t5.5 -12.5v-105q0 -8 -5.5 -13t-12.5 -5h-947q-8 0 -13 5t-5 13zM342 1204v264q0 8 5.5 13.5t12.5 5.5h105q6 0 12 -6t6 -13v-122q0 -8 5.5 -13.5t13.5 -5.5h123q6 0 12 -5.5t6 -12.5v-105q0 -7 -6 -12.5t-12 -5.5h-265q-8 0 -13 5t-5 13z" />
<glyph unicode="&#xe9;" d="M0 18v934q0 8 5.5 13.5t12.5 5.5h947q7 0 12.5 -5.5t5.5 -13.5v-540q0 -8 -5.5 -13.5t-12.5 -5.5h-697q-7 0 -12.5 5.5t-5.5 13.5v104q0 8 5.5 13.5t12.5 5.5h543q7 0 12.5 5.5t5.5 12.5v258q0 7 -5.5 12.5t-12.5 5.5h-639q-8 0 -13 -5.5t-5 -12.5v-651q0 -8 5.5 -13.5 t12.5 -5.5h793q7 0 12.5 -5.5t5.5 -12.5v-105q0 -8 -5.5 -13t-12.5 -5h-947q-8 0 -13 5t-5 13zM342 1204v105q0 7 5 12.5t13 5.5h123q7 0 13 5.5t6 13.5v122q0 8 5.5 13.5t12.5 5.5h105q7 0 12.5 -5.5t5.5 -13.5v-264q0 -8 -5.5 -13t-12.5 -5h-265q-8 0 -13 5t-5 13z" />
<glyph unicode="&#xea;" d="M0 18v934q0 8 5.5 13.5t12.5 5.5h947q7 0 12.5 -5.5t5.5 -13.5v-540q0 -8 -5.5 -13.5t-12.5 -5.5h-697q-7 0 -12.5 5.5t-5.5 13.5v104q0 8 5.5 13.5t12.5 5.5h543q7 0 12.5 5.5t5.5 12.5v258q0 7 -5.5 12.5t-12.5 5.5h-639q-8 0 -13 -5.5t-5 -12.5v-651q0 -8 5.5 -13.5 t12.5 -5.5h793q7 0 12.5 -5.5t5.5 -12.5v-105q0 -8 -5.5 -13t-12.5 -5h-947q-8 0 -13 5t-5 13zM219 1204v105q0 7 5.5 12.5t13.5 5.5h49q6 0 12 6t6 13v122q0 8 5.5 13.5t13.5 5.5h338q6 0 12 -6t6 -13v-122q0 -8 5.5 -13.5t12.5 -5.5h50q6 0 12 -5.5t6 -12.5v-105 q0 -7 -6 -12.5t-12 -5.5h-173q-7 0 -12.5 5t-5.5 13v123q0 7 -6 13t-12 6h-93q-7 0 -12.5 -5.5t-5.5 -13.5v-123q0 -7 -6 -12.5t-12 -5.5h-172q-8 0 -13.5 5.5t-5.5 12.5z" />
<glyph unicode="&#xeb;" d="M0 18v934q0 8 5.5 13.5t12.5 5.5h947q7 0 12.5 -5.5t5.5 -13.5v-540q0 -8 -5.5 -13.5t-12.5 -5.5h-697q-7 0 -12.5 5.5t-5.5 13.5v104q0 8 5.5 13.5t12.5 5.5h543q7 0 12.5 5.5t5.5 12.5v258q0 7 -5.5 12.5t-12.5 5.5h-639q-8 0 -13 -5.5t-5 -12.5v-651q0 -8 5.5 -13.5 t12.5 -5.5h793q7 0 12.5 -5.5t5.5 -12.5v-105q0 -8 -5.5 -13t-12.5 -5h-947q-8 0 -13 5t-5 13zM217 1327v141q0 7 6.5 13t12.5 6h172q7 0 12.5 -5.5t5.5 -13.5v-141q0 -7 -5 -12.5t-13 -5.5h-172q-6 0 -12.5 5.5t-6.5 12.5zM555 1327v141q0 7 6 13t12 6h172q7 0 13 -5.5 t6 -13.5v-141q0 -7 -5.5 -12.5t-13.5 -5.5h-172q-6 0 -12 5.5t-6 12.5z" />
<glyph unicode="&#xec;" d="M0 18v105q0 7 5 12.5t13 5.5h416q-7 0 -12.5 5.5t-5.5 13.5v792q0 8 5.5 13.5t12.5 5.5h117q6 0 12 -6t6 -13v-792q0 -8 5.5 -13.5t13.5 -5.5h377q7 0 12.5 -5.5t5.5 -12.5v-105q0 -8 -5.5 -13t-12.5 -5h-947q-8 0 -13 5t-5 13zM342 1204v264q0 8 5.5 13.5t12.5 5.5h105 q6 0 12 -6t6 -13v-122q0 -8 5.5 -13.5t13.5 -5.5h123q6 0 12 -5.5t6 -12.5v-105q0 -7 -6 -12.5t-12 -5.5h-265q-8 0 -13 5t-5 13z" />
<glyph unicode="&#xed;" d="M0 18v105q0 7 5 12.5t13 5.5h416q-7 0 -12.5 5.5t-5.5 13.5v792q0 8 5.5 13.5t12.5 5.5h117q6 0 12 -6t6 -13v-792q0 -8 5.5 -13.5t13.5 -5.5h377q7 0 12.5 -5.5t5.5 -12.5v-105q0 -8 -5.5 -13t-12.5 -5h-947q-8 0 -13 5t-5 13zM342 1204v105q0 7 5 12.5t13 5.5h123 q7 0 13 5.5t6 13.5v122q0 8 5.5 13.5t12.5 5.5h105q7 0 12.5 -5.5t5.5 -13.5v-264q0 -8 -5.5 -13t-12.5 -5h-265q-8 0 -13 5t-5 13z" />
<glyph unicode="&#xee;" d="M0 18v105q0 7 5 12.5t13 5.5h416q-7 0 -12.5 5.5t-5.5 13.5v792q0 8 5.5 13.5t12.5 5.5h117q6 0 12 -6t6 -13v-792q0 -8 5.5 -13.5t13.5 -5.5h377q7 0 12.5 -5.5t5.5 -12.5v-105q0 -8 -5.5 -13t-12.5 -5h-947q-8 0 -13 5t-5 13zM219 1204v105q0 7 5.5 12.5t13.5 5.5h49 q6 0 12 6t6 13v122q0 8 5.5 13.5t13.5 5.5h338q6 0 12 -6t6 -13v-122q0 -8 5.5 -13.5t12.5 -5.5h50q6 0 12 -5.5t6 -12.5v-105q0 -7 -6 -12.5t-12 -5.5h-173q-7 0 -12.5 5t-5.5 13v123q0 7 -6 13t-12 6h-93q-7 0 -12.5 -5.5t-5.5 -13.5v-123q0 -7 -6 -12.5t-12 -5.5h-172 q-8 0 -13.5 5.5t-5.5 12.5z" />
<glyph unicode="&#xef;" d="M0 18v105q0 7 5 12.5t13 5.5h416q-7 0 -12.5 5.5t-5.5 13.5v792q0 8 5.5 13.5t12.5 5.5h117q6 0 12 -6t6 -13v-792q0 -8 5.5 -13.5t13.5 -5.5h377q7 0 12.5 -5.5t5.5 -12.5v-105q0 -8 -5.5 -13t-12.5 -5h-947q-8 0 -13 5t-5 13zM217 1327v141q0 7 6.5 13t12.5 6h172 q7 0 12.5 -5.5t5.5 -13.5v-141q0 -7 -5 -12.5t-13 -5.5h-172q-6 0 -12.5 5.5t-6.5 12.5zM555 1327v141q0 7 6 13t12 6h172q7 0 13 -5.5t6 -13.5v-141q0 -7 -5.5 -12.5t-13.5 -5.5h-172q-6 0 -12 5.5t-6 12.5z" />
<glyph unicode="&#xf0;" d="M0 18v934q0 8 5.5 13.5t12.5 5.5h699q6 0 12 -6t6 -13v-104q-4 -19 -18 -19h-545q-8 0 -13 -5.5t-5 -12.5v-651q0 -8 5.5 -13.5t12.5 -5.5h639q7 0 12.5 5.5t5.5 13.5v1167q0 8 -5.5 13.5t-12.5 5.5h-223q-8 0 -13.5 -6t-5.5 -13v-166q0 -7 -6 -12.5t-12 -5.5h-117 q-8 0 -13 5.5t-5 12.5v166q0 8 5.5 13.5t12.5 5.5h-416q-8 0 -13 5t-5 13v104q0 8 5.5 13.5t12.5 5.5h379q6 0 12.5 5.5t6.5 12.5q0 8 5.5 13.5t12.5 5.5h117q6 0 12 -6t6 -13t-6 -12.5t-12 -5.5h414q7 0 12.5 -5.5t5.5 -13.5v-1450q0 -8 -5.5 -13t-12.5 -5h-947q-8 0 -13 5 t-5 13z" />
<glyph unicode="&#xf1;" d="M0 18v934q0 8 5.5 13.5t12.5 5.5h947q7 0 12.5 -5.5t5.5 -13.5v-934q0 -8 -5.5 -13t-12.5 -5h-117q-8 0 -13.5 5.5t-5.5 12.5v793q0 7 -5.5 12.5t-12.5 5.5h-639q-8 0 -13 -5.5t-5 -12.5v-793q0 -7 -5.5 -12.5t-13.5 -5.5h-117q-8 0 -13 5t-5 13zM260 1204v105 q0 7 6.5 12.5t12.5 5.5h122q7 0 13 5.5t6 13.5v122q0 7 6 13t12 6h264q8 0 13.5 -5.5t5.5 -13.5v-104q0 -7 -5.5 -12.5t-13.5 -5.5h-122q-6 0 -12.5 -6t-6.5 -13v-123q0 -8 -5.5 -13t-12.5 -5h-264q-6 0 -12.5 5.5t-6.5 12.5z" />
<glyph unicode="&#xf2;" d="M0 18v934q0 8 5.5 13.5t12.5 5.5h947q7 0 12.5 -5.5t5.5 -13.5v-934q0 -8 -5.5 -13t-12.5 -5h-947q-8 0 -13 5t-5 13zM154 160q0 -8 5.5 -13.5t12.5 -5.5h639q7 0 12.5 5.5t5.5 13.5v651q0 7 -5.5 12.5t-12.5 5.5h-639q-8 0 -13 -5.5t-5 -12.5v-651zM342 1204v264 q0 8 5.5 13.5t12.5 5.5h105q6 0 12 -6t6 -13v-122q0 -8 5.5 -13.5t13.5 -5.5h123q6 0 12 -5.5t6 -12.5v-105q0 -7 -6 -12.5t-12 -5.5h-265q-8 0 -13 5t-5 13z" />
<glyph unicode="&#xf3;" d="M0 18v934q0 8 5.5 13.5t12.5 5.5h947q7 0 12.5 -5.5t5.5 -13.5v-934q0 -8 -5.5 -13t-12.5 -5h-947q-8 0 -13 5t-5 13zM154 160q0 -8 5.5 -13.5t12.5 -5.5h639q7 0 12.5 5.5t5.5 13.5v651q0 7 -5.5 12.5t-12.5 5.5h-639q-8 0 -13 -5.5t-5 -12.5v-651zM342 1204v105 q0 7 5 12.5t13 5.5h123q7 0 13 5.5t6 13.5v122q0 8 5.5 13.5t12.5 5.5h105q7 0 12.5 -5.5t5.5 -13.5v-264q0 -8 -5.5 -13t-12.5 -5h-265q-8 0 -13 5t-5 13z" />
<glyph unicode="&#xf4;" d="M0 18v934q0 8 5.5 13.5t12.5 5.5h947q7 0 12.5 -5.5t5.5 -13.5v-934q0 -8 -5.5 -13t-12.5 -5h-947q-8 0 -13 5t-5 13zM154 160q0 -8 5.5 -13.5t12.5 -5.5h639q7 0 12.5 5.5t5.5 13.5v651q0 7 -5.5 12.5t-12.5 5.5h-639q-8 0 -13 -5.5t-5 -12.5v-651zM219 1204v105 q0 7 5.5 12.5t13.5 5.5h49q6 0 12 6t6 13v122q0 8 5.5 13.5t13.5 5.5h338q6 0 12 -6t6 -13v-122q0 -8 5.5 -13.5t12.5 -5.5h50q6 0 12 -5.5t6 -12.5v-105q0 -7 -6 -12.5t-12 -5.5h-173q-7 0 -12.5 5t-5.5 13v123q0 7 -6 13t-12 6h-93q-7 0 -12.5 -5.5t-5.5 -13.5v-123 q0 -7 -6 -12.5t-12 -5.5h-172q-8 0 -13.5 5.5t-5.5 12.5z" />
<glyph unicode="&#xf5;" d="M0 18v934q0 8 5.5 13.5t12.5 5.5h947q7 0 12.5 -5.5t5.5 -13.5v-934q0 -8 -5.5 -13t-12.5 -5h-947q-8 0 -13 5t-5 13zM154 160q0 -8 5.5 -13.5t12.5 -5.5h639q7 0 12.5 5.5t5.5 13.5v651q0 7 -5.5 12.5t-12.5 5.5h-639q-8 0 -13 -5.5t-5 -12.5v-651zM260 1204v105 q0 7 6.5 12.5t12.5 5.5h122q7 0 13 5.5t6 13.5v122q0 7 6 13t12 6h264q8 0 13.5 -5.5t5.5 -13.5v-104q0 -7 -5.5 -12.5t-13.5 -5.5h-122q-6 0 -12.5 -6t-6.5 -13v-123q0 -8 -5.5 -13t-12.5 -5h-264q-6 0 -12.5 5.5t-6.5 12.5z" />
<glyph unicode="&#xf6;" d="M0 18v934q0 8 5.5 13.5t12.5 5.5h947q7 0 12.5 -5.5t5.5 -13.5v-934q0 -8 -5.5 -13t-12.5 -5h-947q-8 0 -13 5t-5 13zM154 160q0 -8 5.5 -13.5t12.5 -5.5h639q7 0 12.5 5.5t5.5 13.5v651q0 7 -5.5 12.5t-12.5 5.5h-639q-8 0 -13 -5.5t-5 -12.5v-651zM217 1327v141 q0 7 6.5 13t12.5 6h172q7 0 12.5 -5.5t5.5 -13.5v-141q0 -7 -5 -12.5t-13 -5.5h-172q-6 0 -12.5 5.5t-6.5 12.5zM555 1327v141q0 7 6 13t12 6h172q7 0 13 -5.5t6 -13.5v-141q0 -7 -5.5 -12.5t-13.5 -5.5h-172q-6 0 -12 5.5t-6 12.5z" />
<glyph unicode="&#xf7;" d="M0 428v117q0 7 5 12.5t13 5.5h947q7 0 12.5 -5.5t5.5 -12.5v-117q0 -8 -5.5 -13t-12.5 -5h-947q-8 0 -13 5t-5 13zM399 18v148q0 7 5.5 12.5t13.5 5.5h147q8 0 13.5 -5.5t5.5 -12.5v-148q0 -7 -5.5 -12.5t-13.5 -5.5h-147q-8 0 -13.5 5.5t-5.5 12.5zM399 805v147 q0 8 5.5 13.5t13.5 5.5h147q7 0 13 -5.5t6 -13.5v-145q0 -7 -6 -13t-13 -6v-2h-147q-8 0 -13.5 6t-5.5 13z" />
<glyph unicode="&#xf8;" d="M0 18v105q0 7 5 12.5t13 5.5h111q-7 0 -12.5 5.5t-5.5 13.5v792q0 8 5.5 13.5t12.5 5.5h836q7 0 12.5 -5.5t5.5 -13.5v-104q0 -8 -5.5 -13.5t-12.5 -5.5h-111q8 0 13 -5.5t5 -12.5v-793q0 -8 -5 -13t-13 -5h-836q-8 0 -13 5t-5 13zM264 160q0 -8 6 -13.5t13 -5.5h417 q8 0 13.5 5.5t5.5 13.5v274q0 -7 -5.5 -12.5t-13.5 -5.5h-417q-7 0 -13 -6t-6 -13v-237zM264 539q0 7 5.5 12.5t13.5 5.5h417q8 0 13.5 5.5t5.5 12.5v236q0 7 -5.5 12.5t-13.5 5.5h-417q-8 0 -13.5 -5.5t-5.5 -12.5v-272z" />
<glyph unicode="&#xf9;" d="M0 18v934q0 8 5.5 13.5t12.5 5.5h117q7 0 13 -5.5t6 -13.5v-792q0 -8 5.5 -13.5t12.5 -5.5h639q7 0 12.5 5.5t5.5 13.5v792q0 8 5.5 13.5t13.5 5.5h117q7 0 12.5 -5.5t5.5 -13.5v-934q0 -8 -5.5 -13t-12.5 -5h-947q-8 0 -13 5t-5 13zM342 1204v264q0 8 5.5 13.5t12.5 5.5 h105q6 0 12 -6t6 -13v-122q0 -8 5.5 -13.5t13.5 -5.5h123q6 0 12 -5.5t6 -12.5v-105q0 -7 -6 -12.5t-12 -5.5h-265q-8 0 -13 5t-5 13z" />
<glyph unicode="&#xfa;" d="M0 18v934q0 8 5.5 13.5t12.5 5.5h117q7 0 13 -5.5t6 -13.5v-792q0 -8 5.5 -13.5t12.5 -5.5h639q7 0 12.5 5.5t5.5 13.5v792q0 8 5.5 13.5t13.5 5.5h117q7 0 12.5 -5.5t5.5 -13.5v-934q0 -8 -5.5 -13t-12.5 -5h-947q-8 0 -13 5t-5 13zM342 1204v105q0 7 5 12.5t13 5.5h123 q7 0 13 5.5t6 13.5v122q0 8 5.5 13.5t12.5 5.5h105q7 0 12.5 -5.5t5.5 -13.5v-264q0 -8 -5.5 -13t-12.5 -5h-265q-8 0 -13 5t-5 13z" />
<glyph unicode="&#xfb;" d="M0 18v934q0 8 5.5 13.5t12.5 5.5h117q7 0 13 -5.5t6 -13.5v-792q0 -8 5.5 -13.5t12.5 -5.5h639q7 0 12.5 5.5t5.5 13.5v792q0 8 5.5 13.5t13.5 5.5h117q7 0 12.5 -5.5t5.5 -13.5v-934q0 -8 -5.5 -13t-12.5 -5h-947q-8 0 -13 5t-5 13zM219 1204v105q0 7 5.5 12.5t13.5 5.5 h49q6 0 12 6t6 13v122q0 8 5.5 13.5t13.5 5.5h338q6 0 12 -6t6 -13v-122q0 -8 5.5 -13.5t12.5 -5.5h50q6 0 12 -5.5t6 -12.5v-105q0 -7 -6 -12.5t-12 -5.5h-173q-7 0 -12.5 5t-5.5 13v123q0 7 -6 13t-12 6h-93q-7 0 -12.5 -5.5t-5.5 -13.5v-123q0 -7 -6 -12.5t-12 -5.5h-172 q-8 0 -13.5 5.5t-5.5 12.5z" />
<glyph unicode="&#xfc;" d="M0 18v934q0 8 5.5 13.5t12.5 5.5h117q7 0 13 -5.5t6 -13.5v-792q0 -8 5.5 -13.5t12.5 -5.5h639q7 0 12.5 5.5t5.5 13.5v792q0 8 5.5 13.5t13.5 5.5h117q7 0 12.5 -5.5t5.5 -13.5v-934q0 -8 -5.5 -13t-12.5 -5h-947q-8 0 -13 5t-5 13zM217 1327v141q0 7 6.5 13t12.5 6h172 q7 0 12.5 -5.5t5.5 -13.5v-141q0 -7 -5 -12.5t-13 -5.5h-172q-6 0 -12.5 5.5t-6.5 12.5zM555 1327v141q0 7 6 13t12 6h172q7 0 13 -5.5t6 -13.5v-141q0 -7 -5.5 -12.5t-13.5 -5.5h-172q-6 0 -12 5.5t-6 12.5z" />
<glyph unicode="&#xfd;" d="M0 18v934q0 8 5.5 13.5t12.5 5.5h117q7 0 13 -5.5t6 -13.5v-792q0 -8 5.5 -13.5t12.5 -5.5h639q7 0 12.5 5.5t5.5 13.5v792q0 8 5.5 13.5t13.5 5.5h117q7 0 12.5 -5.5t5.5 -13.5v-1458q0 -8 -5.5 -13t-12.5 -5h-947q-8 0 -13 5t-5 13v105q0 7 5 12.5t13 5.5h793 q7 0 12.5 5.5t5.5 12.5v383q0 -8 -5.5 -13t-12.5 -5h-793q-8 0 -13 5t-5 13zM342 1204v105q0 7 5 12.5t13 5.5h123q7 0 13 5.5t6 13.5v122q0 8 5.5 13.5t12.5 5.5h105q7 0 12.5 -5.5t5.5 -13.5v-264q0 -8 -5.5 -13t-12.5 -5h-265q-8 0 -13 5t-5 13z" />
<glyph unicode="&#xfe;" d="M0 -506v2011q0 8 5.5 13.5t12.5 5.5h117q7 0 13 -6t6 -13v-1345q0 -8 5.5 -13.5t12.5 -5.5h639q7 0 12.5 5.5t5.5 13.5v651q0 7 -5.5 12.5t-12.5 5.5h-543q-7 0 -12.5 5.5t-5.5 13.5v104q0 8 5.5 13.5t12.5 5.5h697q7 0 12.5 -5.5t5.5 -13.5v-934q0 -8 -5.5 -13t-12.5 -5 h-793q-8 0 -13 5t-5 13v-524q0 -7 -5.5 -12.5t-13.5 -5.5h-117q-8 0 -13 5t-5 13z" />
<glyph unicode="&#xff;" d="M0 18v934q0 8 5.5 13.5t12.5 5.5h117q7 0 13 -5.5t6 -13.5v-792q0 -8 5.5 -13.5t12.5 -5.5h639q7 0 12.5 5.5t5.5 13.5v792q0 8 5.5 13.5t13.5 5.5h117q7 0 12.5 -5.5t5.5 -13.5v-1458q0 -8 -5.5 -13t-12.5 -5h-947q-8 0 -13 5t-5 13v105q0 7 5 12.5t13 5.5h793 q7 0 12.5 5.5t5.5 12.5v383q0 -8 -5.5 -13t-12.5 -5h-793q-8 0 -13 5t-5 13zM217 1327v141q0 7 6.5 13t12.5 6h172q7 0 12.5 -5.5t5.5 -13.5v-141q0 -7 -5 -12.5t-13 -5.5h-172q-6 0 -12.5 5.5t-6.5 12.5zM555 1327v141q0 7 6 13t12 6h172q7 0 13 -5.5t6 -13.5v-141 q0 -7 -5.5 -12.5t-13.5 -5.5h-172q-6 0 -12 5.5t-6 12.5z" />
<glyph unicode="&#x152;" d="M0 18v1450q0 8 5.5 13.5t12.5 5.5h945q7 0 12.5 -5.5t5.5 -13.5v-104q0 -8 -5.5 -13t-12.5 -5h-310q-7 0 -12.5 -5.5t-5.5 -13.5v-375q0 8 5.5 13.5t12.5 5.5h310q7 0 12.5 -5.5t5.5 -13.5v-104q0 -8 -5.5 -13.5t-12.5 -5.5h-310q-7 0 -12.5 -5.5t-5.5 -12.5v-651 q0 -8 5.5 -13.5t12.5 -5.5h310q7 0 12.5 -5.5t5.5 -12.5v-105q0 -8 -5.5 -13t-12.5 -5h-945q-8 0 -13 5t-5 13zM154 160q0 -8 5.5 -13.5t12.5 -5.5h328q-8 0 -13.5 5.5t-5.5 13.5v1167q0 7 5.5 13t13.5 6h-328q-7 0 -12.5 -5.5t-5.5 -13.5v-1167z" />
<glyph unicode="&#x153;" d="M0 18v934q0 8 5.5 13.5t12.5 5.5h947q7 0 12.5 -5.5t5.5 -13.5v-540q0 -8 -5.5 -13.5t-12.5 -5.5h-242q-7 0 -12.5 5.5t-5.5 13.5v104q0 8 5.5 13.5t12.5 5.5h88q7 0 12.5 5.5t5.5 12.5v258q0 7 -5.5 12.5t-12.5 5.5h-184q-8 0 -13.5 -5.5t-5.5 -12.5v-651q0 -8 6 -13.5 t13 -5.5h338q7 0 12.5 -5.5t5.5 -12.5v-105q0 -8 -5.5 -13t-12.5 -5h-947q-8 0 -13 5t-5 13zM154 160q0 -8 5.5 -13.5t12.5 -5.5h299q-7 0 -12.5 5.5t-5.5 13.5v651q0 7 5.5 12.5t12.5 5.5h-299q-8 0 -13 -5.5t-5 -12.5v-651z" />
<glyph unicode="&#x178;" d="M0 848v620q0 8 5.5 13.5t12.5 5.5h117q7 0 13 -5.5t6 -13.5v-479q0 -7 5 -12.5t13 -5.5h639q7 0 12.5 5.5t5.5 12.5v479q0 8 5.5 13.5t13.5 5.5h117q7 0 12.5 -5.5t5.5 -13.5v-620q0 -8 -5.5 -13.5t-12.5 -5.5h-414q6 0 12 -5.5t6 -12.5v-793q0 -7 -6 -12.5t-12 -5.5 h-117q-8 0 -13 5t-5 13v793q0 7 -6.5 12.5t-12.5 5.5h-379q-7 0 -12.5 5.5t-5.5 13.5zM217 1624v141q0 7 6.5 13t12.5 6h172q7 0 12.5 -5.5t5.5 -13.5v-141q0 -8 -5 -13t-13 -5h-172q-6 0 -12.5 5.5t-6.5 12.5zM555 1624v141q0 7 6 13t12 6h172q7 0 13 -6t6 -13v-141 q0 -7 -5.5 -12.5t-13.5 -5.5h-172q-6 0 -12 5.5t-6 12.5z" />
<glyph unicode="&#x2c6;" d="M219 1204v105q0 7 5.5 12.5t13.5 5.5h49q6 0 12 6t6 13v122q0 8 5.5 13.5t13.5 5.5h338q6 0 12 -6t6 -13v-122q0 -8 5.5 -13.5t12.5 -5.5h50q6 0 12 -5.5t6 -12.5v-105q0 -7 -6 -12.5t-12 -5.5h-173q-7 0 -12.5 5t-5.5 13v123q0 7 -6 13t-12 6h-93q-7 0 -12.5 -5.5 t-5.5 -13.5v-123q0 -7 -6 -12.5t-12 -5.5h-172q-8 0 -13.5 5.5t-5.5 12.5z" />
<glyph unicode="&#x2dc;" d="M0 1204v105q0 7 6 12.5t12 5.5h123q7 0 13 5.5t6 13.5v122q0 7 6 13t12 6h264q8 0 13.5 -5.5t5.5 -13.5v-104q0 -7 -5.5 -12.5t-13.5 -5.5h-123q-6 0 -12 -6t-6 -13v-123q0 -8 -5.5 -13t-12.5 -5h-265q-6 0 -12 5.5t-6 12.5z" />
<glyph unicode="&#x2000;" horiz-adv-x="953" />
<glyph unicode="&#x2001;" horiz-adv-x="1907" />
<glyph unicode="&#x2002;" horiz-adv-x="953" />
<glyph unicode="&#x2003;" horiz-adv-x="1907" />
<glyph unicode="&#x2004;" horiz-adv-x="635" />
<glyph unicode="&#x2005;" horiz-adv-x="476" />
<glyph unicode="&#x2006;" horiz-adv-x="317" />
<glyph unicode="&#x2007;" horiz-adv-x="317" />
<glyph unicode="&#x2008;" horiz-adv-x="238" />
<glyph unicode="&#x2009;" horiz-adv-x="381" />
<glyph unicode="&#x200a;" horiz-adv-x="105" />
<glyph unicode="&#x2010;" d="M246 428v117q0 7 5 12.5t13 5.5h578q8 0 13 -5.5t5 -12.5v-117q0 -8 -5 -13t-13 -5h-578q-8 0 -13 5t-5 13z" />
<glyph unicode="&#x2011;" d="M246 428v117q0 7 5 12.5t13 5.5h578q8 0 13 -5.5t5 -12.5v-117q0 -8 -5 -13t-13 -5h-578q-8 0 -13 5t-5 13z" />
<glyph unicode="&#x2012;" d="M246 428v117q0 7 5 12.5t13 5.5h578q8 0 13 -5.5t5 -12.5v-117q0 -8 -5 -13t-13 -5h-578q-8 0 -13 5t-5 13z" />
<glyph unicode="&#x2013;" d="M86 428v117q0 7 5 12.5t13 5.5h824q8 0 13 -5.5t5 -12.5v-117q0 -8 -5 -13t-13 -5h-824q-8 0 -13 5t-5 13z" />
<glyph unicode="&#x2014;" d="M25 428v117q0 7 5.5 12.5t12.5 5.5h946q8 0 13.5 -5.5t5.5 -12.5v-117q0 -7 -5.5 -12.5t-13.5 -5.5h-946q-7 0 -12.5 5t-5.5 13z" />
<glyph unicode="&#x2018;" d="M399 1118v350q0 8 5.5 13.5t13.5 5.5h55q7 0 13 -5.5t6 -13.5v-168q3 -16 18 -16h55q8 0 13.5 -5.5t5.5 -12.5v-148q0 -7 -5.5 -12.5t-13.5 -5.5h-147q-8 0 -13.5 5.5t-5.5 12.5z" />
<glyph unicode="&#x2019;" d="M399 1321v147q0 8 5.5 13.5t13.5 5.5h147q7 0 13 -5.5t6 -13.5v-350q0 -7 -5.5 -12.5t-13.5 -5.5h-55q-8 0 -13 5t-5 13v168q-3 17 -19 17h-55q-8 0 -13.5 5.5t-5.5 12.5z" />
<glyph unicode="&#x201c;" d="M252 1118v350q0 8 5.5 13.5t12.5 5.5h56q7 0 12.5 -5.5t5.5 -13.5v-168q3 -16 18 -16h56q8 0 13 -5t5 -13v-148q0 -8 -5 -13t-13 -5h-148q-8 0 -13 5t-5 13zM547 1118v350q0 8 5.5 13.5t12.5 5.5h56q7 0 12.5 -5.5t5.5 -13.5v-168q3 -16 18 -16h56q7 0 12.5 -5t5.5 -13 v-148q0 -8 -5.5 -13t-12.5 -5h-148q-7 0 -12.5 5t-5.5 13z" />
<glyph unicode="&#x201d;" d="M252 1321v147q0 8 5.5 13.5t12.5 5.5h148q7 0 12.5 -5.5t5.5 -13.5v-350q0 -8 -5 -13t-13 -5h-56q-8 0 -13 5t-5 13v168q-3 17 -18 17h-56q-8 0 -13 5.5t-5 12.5zM547 1321v147q0 8 5.5 13.5t12.5 5.5h148q7 0 12.5 -5.5t5.5 -13.5v-350q0 -8 -5.5 -13t-12.5 -5h-56 q-7 0 -12.5 5t-5.5 13v168q-3 17 -18 17h-56q-7 0 -12.5 5.5t-5.5 12.5z" />
<glyph unicode="&#x201e;" d="M252 18v148q0 8 5 13t13 5h148q8 0 13 -5t5 -13v-350q0 -8 -5.5 -13.5t-12.5 -5.5h-56q-7 0 -12.5 5.5t-5.5 13.5v168q-3 16 -18 16h-56q-8 0 -13 5t-5 13zM547 18v148q0 8 5.5 13t12.5 5h148q7 0 12.5 -5t5.5 -13v-350q0 -8 -5.5 -13.5t-12.5 -5.5h-56q-7 0 -12.5 5.5 t-5.5 13.5v168q-3 16 -18 16h-56q-7 0 -12.5 5t-5.5 13z" />
<glyph unicode="&#x2022;" d="M350 707v245q0 8 6 13.5t13 5.5h227q7 0 12.5 -5.5t5.5 -13.5v-245q0 -8 -5.5 -13.5t-12.5 -5.5h-227q-7 0 -13 6t-6 13z" />
<glyph unicode="&#x2026;" d="M0 18v148q0 8 5 13t13 5h148q8 0 13 -5t5 -13v-148q0 -8 -5 -13t-13 -5h-148q-8 0 -13 5t-5 13zM395 18v148q0 7 5.5 12.5t13.5 5.5h147q8 0 13.5 -5.5t5.5 -12.5v-148q0 -7 -5.5 -12.5t-13.5 -5.5h-147q-8 0 -13.5 5.5t-5.5 12.5zM788 166q0 7 5.5 12.5t13.5 5.5h147 q8 0 13.5 -5.5t5.5 -12.5h2v-148h-2q0 -7 -5.5 -12.5t-13.5 -5.5h-145q-7 0 -12.5 5t-5.5 13v148h-3z" />
<glyph unicode="&#x202f;" horiz-adv-x="381" />
<glyph unicode="&#x2039;" d="M166 319v332q0 8 5.5 13.5t12.5 5.5h154q7 0 12.5 6t5.5 12v117q0 7 5.5 12.5t13.5 5.5h205q8 0 13 -5.5t5 -12.5v-105q0 -6 -5.5 -12t-12.5 -6h-101q-7 0 -12.5 -5t-5.5 -13v-117q0 -6 -6 -12.5t-13 -6.5h-159q-8 0 -13.5 -5.5t-5.5 -12.5v-49q0 -7 6 -13t13 -6h159 q8 0 13.5 -5.5t5.5 -12.5v-117q0 -7 5.5 -12.5t12.5 -5.5h101q7 0 12.5 -5.5t5.5 -13.5v-104q0 -8 -5.5 -13.5t-12.5 -5.5h-205q-7 0 -13 5.5t-6 13.5v117q0 7 -5 12.5t-13 5.5h-154q-8 0 -13 5.5t-5 12.5z" />
<glyph unicode="&#x203a;" d="M166 166v104q0 8 5.5 13.5t12.5 5.5h101q7 0 12.5 5.5t5.5 12.5v117q0 7 5.5 12.5t13.5 5.5h159q7 0 13 6t6 13v49q0 7 -5.5 12.5t-13.5 5.5h-159q-7 0 -13 6.5t-6 12.5v117q0 8 -5.5 13t-12.5 5h-101q-7 0 -12.5 6t-5.5 12v105q0 7 5 12.5t13 5.5h205q8 0 13.5 -5.5 t5.5 -12.5v-117q0 -6 5.5 -12t12.5 -6h154q7 0 12.5 -5.5t5.5 -13.5v-332q0 -7 -5 -12.5t-13 -5.5h-154q-8 0 -13 -5.5t-5 -12.5v-117q0 -8 -6 -13.5t-13 -5.5h-205q-7 0 -12.5 5.5t-5.5 13.5z" />
<glyph unicode="&#x205f;" horiz-adv-x="476" />
<glyph unicode="&#x20ac;" d="M0 530v117q0 6 5.5 12.5t12.5 6.5h222q7 0 12.5 -6.5t5.5 -12.5v154q0 6 -5.5 12t-12.5 6h-222q-7 0 -12.5 5.5t-5.5 13.5v116q0 6 5.5 12.5t12.5 6.5h222q7 0 12.5 -6.5t5.5 -12.5v514q0 8 5.5 13.5t12.5 5.5h689q7 0 12.5 -5.5t5.5 -13.5v-104q0 -8 -5.5 -13t-12.5 -5 h-535q-7 0 -12.5 -5.5t-5.5 -13.5v-336q0 -7 5 -12.5t13 -5.5h461q7 0 12.5 -6.5t5.5 -12.5v-116q0 -8 -5.5 -13.5t-12.5 -5.5h-461q-7 0 -12.5 5.5t-5.5 13.5v-154q0 -8 5 -13t13 -5h387q7 0 13 -6.5t6 -12.5v-117q0 -7 -5.5 -12.5t-13.5 -5.5h-387q-8 0 -13 5t-5 13v-370 q0 -8 5.5 -13.5t12.5 -5.5h535q7 0 12.5 -5.5t5.5 -12.5v-105q0 -8 -5.5 -13t-12.5 -5h-689q-8 0 -13 5t-5 13v476q0 6 -5.5 12t-12.5 6h-222q-8 0 -13 5t-5 13z" />
<glyph unicode="&#x2122;" d="M0 1364v104q0 8 5.5 13.5t12.5 5.5h375q7 0 13 -5.5t6 -13.5v-104q0 -7 -5.5 -12.5t-13.5 -5.5h-129q8 0 13.5 -6t5.5 -13v-399q0 -8 -5.5 -13.5t-13.5 -5.5h-117q-7 0 -12.5 5.5t-5.5 13.5v399q0 8 -5.5 13.5t-12.5 5.5h-93q-8 0 -13 5t-5 13zM449 928v540q0 8 5.5 13.5 t12.5 5.5h485q8 0 13.5 -5.5t5.5 -13.5v-540q0 -8 -5.5 -13.5t-13.5 -5.5h-116q-8 0 -13.5 5.5t-5.5 13.5v399q0 8 -5.5 13.5t-12.5 5.5h-49q7 0 12.5 -5.5t5.5 -13.5v-399q0 -8 -5.5 -13.5t-12.5 -5.5h-80q-8 0 -13.5 5.5t-5.5 13.5v399q0 8 -5.5 13.5t-12.5 5.5h-12 q-7 0 -13 -6t-6 -13v-399q0 -8 -5.5 -13.5t-12.5 -5.5h-117q-7 0 -12.5 5.5t-5.5 13.5z" />
<glyph unicode="&#x25fc;" horiz-adv-x="972" d="M0 0v973h973v-973h-973z" />
</font>
</defs>
</svg>
