<?xml version="1.0" standalone="no"?>
<!DOCTYPE svg PUBLIC "-//W3C//DTD SVG 1.1//EN" "http://www.w3.org/Graphics/SVG/1.1/DTD/svg11.dtd" >
<svg xmlns="http://www.w3.org/2000/svg">
<metadata></metadata>
<defs>
<font id="half51" horiz-adv-x="1228" >
<font-face units-per-em="2048" ascent="1524" descent="-524" />
<missing-glyph horiz-adv-x="500" />
<glyph horiz-adv-x="0" />
<glyph horiz-adv-x="682" />
<glyph unicode=" " />
<glyph unicode="!" d="M418 43v147q0 8 5.5 13.5t12.5 5.5h111q7 0 12.5 -5.5t5.5 -13.5v-147q0 -7 -5.5 -12.5t-12.5 -5.5h-111q-8 0 -13 5.5t-5 12.5zM438 387v1057q0 7 5.5 12.5t13.5 5.5h67q8 0 13.5 -5.5t5.5 -12.5v-1057q0 -7 -5.5 -12.5t-13.5 -5.5h-67q-8 0 -13.5 5.5t-5.5 12.5z" />
<glyph unicode="&#x22;" d="M311 1118v326q0 7 5.5 12.5t13.5 5.5h67q8 0 13.5 -5.5t5.5 -12.5v-326q0 -7 -5.5 -12.5t-13.5 -5.5h-67q-8 0 -13.5 5.5t-5.5 12.5zM532 1118v326q0 7 5.5 12.5t13.5 5.5h67q8 0 13.5 -5.5t5.5 -12.5v-326q0 -7 -5.5 -12.5t-13.5 -5.5h-67q-8 0 -13.5 5.5t-5.5 12.5z " />
<glyph unicode="#" d="M25 559v55q0 8 5.5 13.5t12.5 5.5h172q7 0 12.5 5.5t5.5 12.5v221q0 -8 -5.5 -13t-12.5 -5h-172q-7 0 -12.5 5t-5.5 13v56q0 8 5.5 13t12.5 5h172q7 0 12.5 5.5t5.5 13.5v479q0 7 5.5 12.5t13.5 5.5h67q8 0 13.5 -5.5t5.5 -12.5v-516q0 8 5 13t13 5h275q6 0 12 6t6 13 v479q0 7 5.5 12.5t13.5 5.5h67q6 0 12.5 -5.5t6.5 -12.5v-516q0 8 5 13t13 5h168q8 0 13 -5t5 -13v-56q0 -8 -5 -13t-13 -5h-168q-8 0 -13 -5t-5 -13v-222q0 8 5.5 13.5t12.5 5.5h168q7 0 12.5 -5.5t5.5 -13.5v-55q0 -7 -5 -12.5t-13 -5.5h-168q-7 0 -12.5 -5.5t-5.5 -13.5 v-479q0 -7 -6.5 -12.5t-12.5 -5.5h-67q-8 0 -13.5 5.5t-5.5 12.5v516q0 -7 -6 -12.5t-12 -5.5h-275q-7 0 -12.5 -5.5t-5.5 -13.5v-479q0 -7 -5.5 -12.5t-13.5 -5.5h-67q-8 0 -13.5 5.5t-5.5 12.5v516q0 -7 -5.5 -12.5t-12.5 -5.5h-172q-7 0 -12.5 5.5t-5.5 12.5zM338 614 q0 8 5.5 13.5t12.5 5.5h275q6 0 12 5.5t6 12.5v221q0 -7 -6 -12.5t-12 -5.5h-275q-8 0 -13 -5t-5 -13v-222z" />
<glyph unicode="$" d="M25 43v55q0 8 5.5 13.5t12.5 5.5h793q8 0 13 5.5t5 12.5v287q0 8 -5 13t-13 5h-793q-7 0 -12.5 5.5t-5.5 13.5v469q0 8 5.5 13t12.5 5h416q-7 0 -13 6t-6 13v479q0 7 5.5 12.5t13.5 5.5h67q6 0 12.5 -5.5t6.5 -12.5v-479q0 -8 5.5 -13.5t12.5 -5.5h377q8 0 13 -5t5 -13 v-56q0 -8 -5 -13t-13 -5h-793q-7 0 -12.5 -5t-5.5 -13v-285q0 -8 5.5 -13.5t12.5 -5.5h793q8 0 13 -5t5 -13v-471q0 -7 -5 -12.5t-13 -5.5h-377q-7 0 -12.5 -5.5t-5.5 -13.5v-487q0 -7 -6.5 -13t-12.5 -6h-67q-7 0 -13 6t-6 13v487q0 8 6 13.5t13 5.5h-416q-7 0 -12.5 5.5 t-5.5 12.5z" />
<glyph unicode="%" d="M37 43v55q0 8 5.5 13.5t12.5 5.5h164q6 0 12.5 5.5t6.5 12.5v635q0 8 5 13t13 5h369q6 0 12 6.5t6 12.5v637q0 7 5.5 12.5t13.5 5.5h266q8 0 13 -5t5 -13v-55q0 -8 -5.5 -13.5t-12.5 -5.5h-162q-8 0 -13 -5t-5 -13v-637q0 -6 -6.5 -12.5t-12.5 -6.5h-369q-8 0 -13 -5 t-5 -13v-635q0 -7 -6 -12.5t-12 -5.5h-269q-7 0 -12.5 5.5t-5.5 12.5zM61 952v492q0 7 5.5 12.5t13.5 5.5h399q8 0 13.5 -5.5t5.5 -12.5v-492q0 -7 -5.5 -12.5t-13.5 -5.5h-399q-8 0 -13.5 5.5t-5.5 12.5zM166 1044q0 -8 5 -13t13 -5h191q7 0 12.5 5t5.5 13v308q0 8 -5.5 13 t-12.5 5h-191q-8 0 -13 -5t-5 -13v-308zM485 43v492q0 7 5.5 12.5t13.5 5.5h399q8 0 13.5 -5.5t5.5 -12.5v-492q0 -7 -5.5 -12.5t-13.5 -5.5h-399q-8 0 -13.5 5.5t-5.5 12.5zM590 135q0 -7 5 -12.5t13 -5.5h191q7 0 12.5 5.5t5.5 12.5v307q0 8 -5.5 13.5t-12.5 5.5h-191 q-7 0 -12.5 -5.5t-5.5 -13.5v-307z" />
<glyph unicode="&#x26;" d="M25 43v1401q0 8 5.5 13t12.5 5h428q6 0 12 -5.5t6 -12.5v-55q0 -7 -6 -13t-12 -6h-324q-7 0 -12.5 -5t-5.5 -13v-424q0 8 5.5 13t12.5 5h443q7 0 12.5 5.5t5.5 13.5v516q0 7 5.5 12.5t13.5 5.5h67q8 0 13.5 -5.5t5.5 -12.5v-553q0 8 5.5 13t12.5 5h209q8 0 13 -5t5 -13 v-56q0 -8 -5 -13t-13 -5h-209q-7 0 -12.5 -5t-5.5 -13v-701q0 -7 5.5 -12.5t12.5 -5.5h209q7 0 12.5 -5.5t5.5 -13.5v-55q0 -7 -5 -12.5t-13 -5.5h-897q-7 0 -12.5 5.5t-5.5 12.5zM129 135q0 -7 5.5 -12.5t12.5 -5.5h443q8 0 13 5.5t5 12.5v737q0 -8 -5 -13t-13 -5h-443 q-7 0 -12.5 -5t-5.5 -13v-701z" />
<glyph unicode="'" d="M416 1118v326q0 8 5 13t13 5h68q8 0 13 -5t5 -13v-326q0 -8 -5 -13t-13 -5h-68q-8 0 -13 5t-5 13z" />
<glyph unicode="(" d="M324 -340v1643q0 7 5 12.5t13 5.5h190q8 0 13.5 5.5t5.5 12.5v105q0 8 5.5 13t12.5 5h68q7 0 12.5 -5t5.5 -13v-197q0 -7 -5.5 -12.5t-12.5 -5.5h-191q-7 0 -12.5 -5.5t-5.5 -13.5v-1458q0 -8 5 -13t13 -5h191q7 0 12.5 -5.5t5.5 -13.5v-196q0 -8 -5.5 -13.5t-12.5 -5.5 h-68q-7 0 -12.5 5.5t-5.5 13.5v104q0 7 -5.5 13t-13.5 6h-190q-8 0 -13 5t-5 13z" />
<glyph unicode=")" d="M324 -285q0 8 5.5 13.5t12.5 5.5h190q8 0 13.5 5.5t5.5 12.5v1458q0 8 -5.5 13.5t-13.5 5.5h-190q-8 0 -13 5.5t-5 12.5v197q0 8 5 13t13 5h68q8 0 13 -5t5 -13v-105q0 -7 5 -12.5t13 -5.5h191q7 0 12.5 -5.5t5.5 -12.5v-1643q0 -8 -5.5 -13t-12.5 -5h-191 q-7 0 -12.5 -5.5t-5.5 -13.5v-104q0 -8 -5.5 -13.5t-12.5 -5.5h-68q-7 0 -12.5 5.5t-5.5 13.5v196z" />
<glyph unicode="*" d="M18 1169v56q0 7 5.5 12.5t13.5 5.5h209q-7 0 -13 6.5t-6 12.5v182q0 7 5.5 12.5t13.5 5.5h67q8 0 13.5 -5.5t5.5 -12.5v-182q0 -6 5.5 -12.5t12.5 -6.5h172q8 0 13.5 -5.5t5.5 -12.5v-56q0 -6 -6 -12t-13 -6h-80q-8 0 -13 -5.5t-5 -12.5v-181q0 -8 -5 -13t-13 -5h-68 q-8 0 -13.5 5.5t-5.5 12.5v181q0 7 5.5 12.5t13.5 5.5h-80q-8 0 -13 -5.5t-5 -12.5v-181q0 -7 -5.5 -12.5t-13.5 -5.5h-67q-8 0 -13.5 5.5t-5.5 12.5v181q0 14 12 18h-110q-7 0 -13 6t-6 12z" />
<glyph unicode="+" d="M25 459v55q0 8 5.5 13t12.5 5h379q7 0 12.5 5.5t5.5 13.5v377q0 7 5.5 12.5t13.5 5.5h67q8 0 13.5 -5.5t5.5 -12.5v-414q0 8 5.5 13t12.5 5h377q8 0 13 -5t5 -13v-55q0 -8 -5.5 -13.5t-12.5 -5.5h-377q-7 0 -12.5 -5t-5.5 -13v-379q0 -7 -5.5 -12.5t-13.5 -5.5h-67 q-8 0 -13.5 5.5t-5.5 12.5v416q0 -8 -5.5 -13.5t-12.5 -5.5h-379q-7 0 -12.5 5.5t-5.5 13.5z" />
<glyph unicode="," d="M399 43v147q0 8 5.5 13.5t13.5 5.5h110q8 0 13.5 -5.5t5.5 -13.5v-350q0 -7 -5.5 -12.5t-13.5 -5.5h-55q-7 0 -12.5 5t-5.5 13v168q-3 17 -19 17h-18q-8 0 -13.5 5.5t-5.5 12.5z" />
<glyph unicode="-" d="M244 459v55q0 8 5 13t13 5h529q7 0 12.5 -5t5.5 -13v-55q0 -8 -5.5 -13.5t-12.5 -5.5h-529q-7 0 -12.5 5.5t-5.5 13.5z" />
<glyph unicode="." d="M399 43v147q0 8 5.5 13.5t13.5 5.5h110q8 0 13.5 -5.5t5.5 -13.5v-147q0 -7 -5.5 -12.5t-13.5 -5.5h-110q-8 0 -13.5 5.5t-5.5 12.5z" />
<glyph unicode="/" d="M209 -481v989q0 8 5.5 13t12.5 5h369q7 0 12.5 6.5t5.5 12.5v899q0 7 5.5 12.5t13.5 5.5h67q8 0 13.5 -5.5t5.5 -12.5v-991q0 -6 -6 -12.5t-13 -6.5h-368q-8 0 -13.5 -5.5t-5.5 -12.5v-897q0 -8 -5.5 -13.5t-12.5 -5.5h-68q-7 0 -12.5 5.5t-5.5 13.5z" />
<glyph unicode="0" d="M25 43v1401q0 8 5.5 13t12.5 5h897q8 0 13 -5t5 -13v-1401q0 -7 -5 -12.5t-13 -5.5h-897q-7 0 -12.5 5.5t-5.5 12.5zM129 135q0 -7 5.5 -12.5t12.5 -5.5h689q8 0 13 5.5t5 12.5v1217q0 8 -5 13t-13 5h-689q-7 0 -12.5 -5t-5.5 -13v-1217z" />
<glyph unicode="1" d="M25 43v55q0 8 5.5 13.5t12.5 5.5h416q-8 0 -13.5 5.5t-5.5 12.5v1217q0 7 -6 12.5t-12 5.5h-379q-7 0 -12.5 5.5t-5.5 13.5v55q0 8 5.5 13t12.5 5h483q6 0 12.5 -5.5t6.5 -12.5v-1309q0 -7 5.5 -12.5t12.5 -5.5h377q7 0 12.5 -5.5t5.5 -13.5v-55q0 -7 -5 -12.5t-13 -5.5 h-897q-7 0 -12.5 5.5t-5.5 12.5z" />
<glyph unicode="2" d="M25 43v586q0 7 5.5 12.5t12.5 5.5h793q7 0 12.5 6.5t5.5 12.5v686q0 8 -5 13t-13 5h-689q-7 0 -12.5 -5t-5.5 -13v-387q0 -8 -5.5 -13.5t-12.5 -5.5h-68q-7 0 -12.5 5.5t-5.5 13.5v479q0 8 5.5 13t12.5 5h897q8 0 13 -5t5 -13v-871q0 -6 -5.5 -12t-12.5 -6h-793 q-7 0 -12.5 -5.5t-5.5 -12.5v-402q0 -7 5.5 -12.5t12.5 -5.5h793q7 0 12.5 -5.5t5.5 -13.5v-55q0 -7 -5 -12.5t-13 -5.5h-897q-7 0 -12.5 5.5t-5.5 12.5z" />
<glyph unicode="3" d="M25 43v55q0 8 5.5 13.5t12.5 5.5h793q8 0 13 5.5t5 12.5v580q0 -6 -5.5 -12.5t-12.5 -6.5h-793q-7 0 -12.5 6.5t-5.5 12.5v55q0 8 5.5 13t12.5 5h793q7 0 12.5 6.5t5.5 12.5v545q0 8 -5 13t-13 5h-793q-7 0 -12.5 5.5t-5.5 13.5v55q0 8 5.5 13t12.5 5h897q8 0 13 -5 t5 -13v-1401q0 -7 -5 -12.5t-13 -5.5h-897q-7 0 -12.5 5.5t-5.5 12.5z" />
<glyph unicode="4" d="M25 715v729q0 8 5.5 13t12.5 5h68q7 0 12.5 -5t5.5 -13v-637q0 -6 5.5 -12.5t12.5 -6.5h689q7 0 12.5 6.5t5.5 12.5v637q0 8 5 13t13 5h68q8 0 13 -5t5 -13v-1401q0 -7 -5 -12.5t-13 -5.5h-68q-8 0 -13 5.5t-5 12.5v672q0 -6 -5.5 -12.5t-12.5 -6.5h-793q-7 0 -12.5 6.5 t-5.5 12.5z" />
<glyph unicode="5" d="M25 43v326q0 7 5.5 12.5t12.5 5.5h68q7 0 12.5 -5.5t5.5 -12.5v-234q0 -7 5.5 -12.5t12.5 -5.5h689q8 0 13 5.5t5 12.5v701q0 8 -5 13t-13 5h-793q-7 0 -12.5 5t-5.5 13v572q0 8 5.5 13t12.5 5h897q8 0 13 -5t5 -13v-55q0 -8 -5.5 -13.5t-12.5 -5.5h-793q-7 0 -12.5 -5 t-5.5 -13v-387q0 -8 5.5 -13.5t12.5 -5.5h793q8 0 13 -5t5 -13v-885q0 -7 -5 -12.5t-13 -5.5h-897q-7 0 -12.5 5.5t-5.5 12.5z" />
<glyph unicode="6" d="M25 43v1401q0 8 5.5 13t12.5 5h897q8 0 13 -5t5 -13v-55q0 -8 -5.5 -13.5t-12.5 -5.5h-793q-7 0 -12.5 -5t-5.5 -13v-1217q0 -7 5.5 -12.5t12.5 -5.5h689q8 0 13 5.5t5 12.5v701q0 8 -5 13t-13 5h-568q-8 0 -13 5t-5 13v56q0 8 5 13t13 5h672q8 0 13 -5t5 -13v-885 q0 -7 -5 -12.5t-13 -5.5h-897q-7 0 -12.5 5.5t-5.5 12.5z" />
<glyph unicode="7" d="M25 1389v55q0 8 5.5 13t12.5 5h897q8 0 13 -5t5 -13v-1401q0 -7 -5 -12.5t-13 -5.5h-68q-8 0 -13 5.5t-5 12.5v1309q0 8 -5 13t-13 5h-793q-7 0 -12.5 5.5t-5.5 13.5z" />
<glyph unicode="8" d="M25 43v885q0 8 5.5 13t12.5 5h135q8 0 13.5 6t5.5 13v479q0 8 5.5 13t12.5 5h553q8 0 13 -5t5 -13v-479q0 -8 -5.5 -13.5t-12.5 -5.5h172q8 0 13 -5t5 -13v-885q0 -7 -5 -12.5t-13 -5.5h-897q-7 0 -12.5 5.5t-5.5 12.5zM129 135q0 -7 5.5 -12.5t12.5 -5.5h689q8 0 13 5.5 t5 12.5v701q0 8 -5 13t-13 5h-689q-7 0 -12.5 -5t-5.5 -13v-701zM283 946h381q7 0 12.5 5.5t5.5 13.5v387q0 8 -5 13t-13 5h-345q-7 0 -12.5 -5t-5.5 -13v-387q0 -8 -5.5 -13.5t-12.5 -5.5z" />
<glyph unicode="9" d="M25 43v55q0 8 5.5 13.5t12.5 5.5h793q8 0 13 5.5t5 12.5v1217q0 8 -5 13t-13 5h-689q-7 0 -12.5 -5t-5.5 -13v-701q0 -7 5.5 -12.5t12.5 -5.5h570q6 0 12 -6t6 -13v-55q0 -7 -6 -12.5t-12 -5.5h-674q-7 0 -12.5 5.5t-5.5 12.5v885q0 8 5.5 13t12.5 5h897q8 0 13 -5t5 -13 v-1401q0 -7 -5 -12.5t-13 -5.5h-897q-7 0 -12.5 5.5t-5.5 12.5z" />
<glyph unicode=":" d="M399 43v147q0 8 5.5 13.5t13.5 5.5h110q8 0 13.5 -5.5t5.5 -13.5v-147q0 -7 -5.5 -12.5t-13.5 -5.5h-110q-8 0 -13.5 5.5t-5.5 12.5zM399 782v146q0 7 5.5 12.5t13.5 5.5h110q8 0 13.5 -5.5t5.5 -12.5v-146q0 -7 -5.5 -12.5t-13.5 -5.5h-110q-8 0 -13.5 5.5t-5.5 12.5z " />
<glyph unicode=";" d="M399 43v147q0 8 5.5 13.5t13.5 5.5h110q8 0 13.5 -5.5t5.5 -13.5v-350q0 -7 -5.5 -12.5t-13.5 -5.5h-55q-7 0 -12.5 5t-5.5 13v168q-3 17 -19 17h-18q-8 0 -13.5 5.5t-5.5 12.5zM399 782v146q0 7 5.5 12.5t13.5 5.5h110q8 0 13.5 -5.5t5.5 -12.5v-146q0 -7 -5.5 -12.5 t-13.5 -5.5h-110q-8 0 -13.5 5.5t-5.5 12.5z" />
<glyph unicode="&#x3c;" d="M18 197v577q0 8 6 13.5t13 5.5h430q7 0 12.5 6t5.5 12v117q0 7 5.5 12.5t13.5 5.5h436q8 0 13 -5t5 -13v-56q0 -6 -5.5 -12t-12.5 -6h-295q-7 0 -12.5 -5t-5.5 -13v-117q0 -6 -6 -12.5t-13 -6.5h-467q-7 0 -12.5 -5t-5.5 -13v-393q0 -8 5.5 -13.5t12.5 -5.5h467 q8 0 13.5 -5.5t5.5 -12.5v-117q0 -7 5.5 -12.5t12.5 -5.5h295q7 0 12.5 -5.5t5.5 -13.5v-55q0 -7 -5 -12.5t-13 -5.5h-436q-8 0 -13.5 5.5t-5.5 12.5v117q0 8 -5.5 13t-12.5 5h-430q-7 0 -13 6t-6 13z" />
<glyph unicode="=" d="M25 305v55q0 8 5.5 13.5t12.5 5.5h897q7 0 12.5 -5.5t5.5 -13.5v-55q0 -7 -5 -12.5t-13 -5.5h-897q-7 0 -12.5 5.5t-5.5 12.5zM25 612v56q0 8 5.5 13t12.5 5h897q8 0 13 -5t5 -13v-56q0 -8 -5 -13t-13 -5h-897q-7 0 -12.5 5t-5.5 13z" />
<glyph unicode="&#x3e;" d="M18 43v55q0 8 6 13.5t13 5.5h295q8 0 13 5.5t5 12.5v117q0 7 5.5 12.5t13.5 5.5h467q7 0 12.5 5.5t5.5 13.5v391q0 8 -5 13t-13 5h-467q-7 0 -13 6.5t-6 12.5v117q0 8 -5 13t-13 5h-295q-7 0 -13 6t-6 12v56q0 7 5.5 12.5t13.5 5.5h436q8 0 13.5 -5.5t5.5 -12.5v-117 q0 -6 5.5 -12t12.5 -6h430q7 0 12.5 -5.5t5.5 -13.5v-575q0 -8 -5.5 -13.5t-12.5 -5.5h-430q-8 0 -13 -5t-5 -13v-117q0 -7 -5.5 -12.5t-13.5 -5.5h-436q-8 0 -13.5 5.5t-5.5 12.5z" />
<glyph unicode="?" d="M25 1389v55q0 8 5.5 13t12.5 5h897q8 0 13 -5t5 -13v-719q0 -7 -5 -12.5t-13 -5.5h-379q-7 0 -12.5 -5.5t-5.5 -13.5v-301q0 -7 -5.5 -12.5t-13.5 -5.5h-67q-8 0 -13.5 5.5t-5.5 12.5v393q0 8 6 13.5t13 5.5h379q8 0 13 5.5t5 12.5v535q0 8 -5 13t-13 5h-793 q-7 0 -12.5 5.5t-5.5 13.5zM418 43v147q0 8 5.5 13.5t12.5 5.5h111q7 0 12.5 -5.5t5.5 -13.5v-147q0 -7 -5.5 -12.5t-12.5 -5.5h-111q-8 0 -13 5.5t-5 12.5z" />
<glyph unicode="@" d="M25 43v1131q0 8 5.5 13t12.5 5h649q6 0 12.5 -5.5t6.5 -12.5v-867q0 -7 -6.5 -12.5t-12.5 -5.5h-399q-8 0 -13.5 5.5t-5.5 12.5v596q0 7 6 13t13 6h174q7 0 12.5 -5.5t5.5 -13.5v-55q0 -8 -5.5 -13.5t-12.5 -5.5h-70q-7 0 -12.5 -5.5t-5.5 -12.5v-412q0 -7 5.5 -12.5 t12.5 -5.5h191q6 0 12 5.5t6 12.5v682q0 7 -6 13t-12 6h-441q-7 0 -12.5 -5.5t-5.5 -13.5v-946q0 -7 5.5 -12.5t12.5 -5.5h689q8 0 13 5.5t5 12.5v1217q0 8 -5 13t-13 5h-793q-7 0 -12.5 5.5t-5.5 13.5v55q0 8 5.5 13t12.5 5h897q8 0 13 -5t5 -13v-1401q0 -7 -5 -12.5 t-13 -5.5h-897q-7 0 -12.5 5.5t-5.5 12.5z" />
<glyph unicode="A" d="M25 43v1401q0 8 5.5 13t12.5 5h897q8 0 13 -5t5 -13v-1401q0 -7 -5 -12.5t-13 -5.5h-68q-8 0 -13 5.5t-5 12.5v1309q0 8 -5 13t-13 5h-689q-7 0 -12.5 -5t-5.5 -13v-424q0 8 5.5 13t12.5 5h570q6 0 12 -5.5t6 -12.5v-56q0 -7 -6 -12.5t-12 -5.5h-570q-7 0 -12.5 -5 t-5.5 -13v-793q0 -7 -5.5 -12.5t-12.5 -5.5h-68q-7 0 -12.5 5.5t-5.5 12.5z" />
<glyph unicode="B" d="M25 43v1401q0 8 5.5 13t12.5 5h686q6 0 12.5 -5.5t6.5 -12.5v-553q0 -7 -6.5 -13t-12.5 -6h211q8 0 13 -5t5 -13v-811q0 -7 -5 -12.5t-13 -5.5h-897q-7 0 -12.5 5.5t-5.5 12.5zM129 135q0 -7 5.5 -12.5t12.5 -5.5h689q8 0 13 5.5t5 12.5v627q0 8 -5 13t-13 5h-568 q-7 0 -12.5 5.5t-5.5 13.5v55q0 8 5 13t13 5h357q6 0 12 6t6 13v461q0 7 -6 12.5t-12 5.5h-478q-7 0 -12.5 -5t-5.5 -13v-1217z" />
<glyph unicode="C" d="M25 43v1401q0 8 5.5 13t12.5 5h897q8 0 13 -5t5 -13v-55q0 -8 -5.5 -13.5t-12.5 -5.5h-793q-7 0 -12.5 -5t-5.5 -13v-1217q0 -7 5.5 -12.5t12.5 -5.5h793q7 0 12.5 -5.5t5.5 -13.5v-55q0 -7 -5 -12.5t-13 -5.5h-897q-7 0 -12.5 5.5t-5.5 12.5z" />
<glyph unicode="D" d="M25 43v592q0 7 5.5 12.5t12.5 5.5h68q7 0 12.5 -5.5t5.5 -12.5v-500q0 -7 5.5 -12.5t12.5 -5.5h689q8 0 13 5.5t5 12.5v1217q0 8 -5 13t-13 5h-689q-7 0 -12.5 -5t-5.5 -13v-502q0 -6 -5.5 -12.5t-12.5 -6.5h-68q-7 0 -12.5 6.5t-5.5 12.5v594q0 8 5.5 13t12.5 5h897 q8 0 13 -5t5 -13v-1401q0 -7 -5 -12.5t-13 -5.5h-897q-7 0 -12.5 5.5t-5.5 12.5z" />
<glyph unicode="E" d="M25 43v1401q0 8 5.5 13t12.5 5h897q8 0 13 -5t5 -13v-55q0 -8 -5.5 -13.5t-12.5 -5.5h-793q-7 0 -12.5 -5t-5.5 -13v-424q0 8 5.5 13t12.5 5h570q6 0 12 -5.5t6 -12.5v-56q0 -7 -6 -12.5t-12 -5.5h-570q-7 0 -12.5 -5t-5.5 -13v-701q0 -7 5.5 -12.5t12.5 -5.5h793 q7 0 12.5 -5.5t5.5 -13.5v-55q0 -7 -5 -12.5t-13 -5.5h-897q-7 0 -12.5 5.5t-5.5 12.5z" />
<glyph unicode="F" d="M25 43v1401q0 8 5.5 13t12.5 5h897q8 0 13 -5t5 -13v-55q0 -8 -5.5 -13.5t-12.5 -5.5h-793q-7 0 -12.5 -5t-5.5 -13v-424q0 8 5.5 13t12.5 5h570q6 0 12 -5.5t6 -12.5v-56q0 -7 -6 -12.5t-12 -5.5h-570q-7 0 -12.5 -5t-5.5 -13v-793q0 -7 -5.5 -12.5t-12.5 -5.5h-68 q-7 0 -12.5 5.5t-5.5 12.5z" />
<glyph unicode="G" d="M25 43v1401q0 8 5.5 13t12.5 5h897q8 0 13 -5t5 -13v-55q0 -8 -5.5 -13.5t-12.5 -5.5h-793q-7 0 -12.5 -5t-5.5 -13v-1217q0 -7 5.5 -12.5t12.5 -5.5h689q8 0 13 5.5t5 12.5v543q0 8 -5 13t-13 5h-328q-7 0 -13 6.5t-6 12.5v55q0 7 5.5 12.5t13.5 5.5h432q8 0 13 -5 t5 -13v-727q0 -7 -5 -12.5t-13 -5.5h-897q-7 0 -12.5 5.5t-5.5 12.5z" />
<glyph unicode="H" d="M25 43v1401q0 8 5.5 13t12.5 5h68q7 0 12.5 -5t5.5 -13v-516q0 8 5.5 13t12.5 5h689q7 0 12.5 5.5t5.5 13.5v479q0 8 5 13t13 5h68q8 0 13 -5t5 -13v-1401q0 -7 -5 -12.5t-13 -5.5h-68q-8 0 -13 5.5t-5 12.5v829q0 -8 -5 -13t-13 -5h-689q-7 0 -12.5 -5t-5.5 -13v-793 q0 -7 -5.5 -12.5t-12.5 -5.5h-68q-7 0 -12.5 5.5t-5.5 12.5z" />
<glyph unicode="I" d="M25 43v55q0 8 5.5 13.5t12.5 5.5h379q6 0 12 5.5t6 12.5v1217q0 7 5.5 12.5t13.5 5.5h-416q-7 0 -12.5 5.5t-5.5 13.5v55q0 8 5.5 13t12.5 5h897q8 0 13 -5t5 -13v-55q0 -8 -5.5 -13.5t-12.5 -5.5h-377q-7 0 -12.5 -5t-5.5 -13v-1217q0 -7 -6.5 -12.5t-12.5 -5.5h414 q7 0 12.5 -5.5t5.5 -13.5v-55q0 -7 -5 -12.5t-13 -5.5h-897q-7 0 -12.5 5.5t-5.5 12.5z" />
<glyph unicode="J" d="M25 43v55q0 8 5.5 13.5t12.5 5.5h793q8 0 13 5.5t5 12.5v1309q0 8 5 13t13 5h68q8 0 13 -5t5 -13v-1401q0 -7 -5 -12.5t-13 -5.5h-897q-7 0 -12.5 5.5t-5.5 12.5z" />
<glyph unicode="K" d="M25 43v1401q0 8 5.5 13t12.5 5h68q7 0 12.5 -5t5.5 -13v-553q0 -8 5.5 -13.5t12.5 -5.5h478q6 0 12 6t6 13v553q0 7 5.5 12.5t13.5 5.5h67q6 0 12.5 -5.5t6.5 -12.5v-553q0 -7 -6.5 -13t-12.5 -6h211q8 0 13 -5t5 -13v-811q0 -7 -5 -12.5t-13 -5.5h-68q-8 0 -13 5.5 t-5 12.5v719q0 8 -5 13t-13 5h-689q-7 0 -12.5 -5t-5.5 -13v-719q0 -7 -5.5 -12.5t-12.5 -5.5h-68q-7 0 -12.5 5.5t-5.5 12.5z" />
<glyph unicode="L" d="M25 43v1401q0 8 5.5 13t12.5 5h68q7 0 12.5 -5t5.5 -13v-1309q0 -7 5.5 -12.5t12.5 -5.5h793q7 0 12.5 -5.5t5.5 -13.5v-55q0 -7 -5 -12.5t-13 -5.5h-897q-7 0 -12.5 5.5t-5.5 12.5z" />
<glyph unicode="M" d="M25 43v1401q0 8 5.5 13t12.5 5h897q8 0 13 -5t5 -13v-1401q0 -7 -5 -12.5t-13 -5.5h-68q-8 0 -13 5.5t-5 12.5v1309q0 8 -5 13t-13 5h-310q6 0 12.5 -5.5t6.5 -12.5v-1309q0 -7 -6.5 -12.5t-12.5 -5.5h-67q-8 0 -13.5 5.5t-5.5 12.5v1309q0 7 -6 12.5t-12 5.5h-275 q-7 0 -12.5 -5t-5.5 -13v-1309q0 -7 -5.5 -12.5t-12.5 -5.5h-68q-7 0 -12.5 5.5t-5.5 12.5z" />
<glyph unicode="N" d="M25 43v1401q0 8 5.5 13t12.5 5h483q6 0 12.5 -5.5t6.5 -12.5v-1309q0 -7 5.5 -12.5t12.5 -5.5h273q8 0 13 5.5t5 12.5v1309q0 8 5 13t13 5h68q8 0 13 -5t5 -13v-1401q0 -7 -5 -12.5t-13 -5.5h-481q-8 0 -13.5 5.5t-5.5 12.5v1309q0 7 -6 12.5t-12 5.5h-275q-7 0 -12.5 -5 t-5.5 -13v-1309q0 -7 -5.5 -12.5t-12.5 -5.5h-68q-7 0 -12.5 5.5t-5.5 12.5z" />
<glyph unicode="O" d="M25 43v1401q0 8 5.5 13t12.5 5h897q8 0 13 -5t5 -13v-1401q0 -7 -5 -12.5t-13 -5.5h-897q-7 0 -12.5 5.5t-5.5 12.5zM129 135q0 -7 5.5 -12.5t12.5 -5.5h689q8 0 13 5.5t5 12.5v1217q0 8 -5 13t-13 5h-689q-7 0 -12.5 -5t-5.5 -13v-1217z" />
<glyph unicode="P" d="M25 43v1401q0 8 5.5 13t12.5 5h897q8 0 13 -5t5 -13v-719q0 -7 -5 -12.5t-13 -5.5h-672q-8 0 -13 5.5t-5 12.5v55q0 8 5.5 13.5t12.5 5.5h568q8 0 13 5.5t5 12.5v535q0 8 -5 13t-13 5h-689q-7 0 -12.5 -5t-5.5 -13v-1309q0 -7 -5.5 -12.5t-12.5 -5.5h-68q-7 0 -12.5 5.5 t-5.5 12.5z" />
<glyph unicode="Q" d="M25 43v1401q0 8 5.5 13t12.5 5h897q8 0 13 -5t5 -13v-1401q0 -7 -5 -12.5t-13 -5.5h-414q6 0 12.5 -6t6.5 -13v-250q0 -7 -6.5 -12.5t-12.5 -5.5h-67q-8 0 -13.5 5.5t-5.5 12.5v250q0 7 -6 13t-12 6h-379q-7 0 -12.5 5.5t-5.5 12.5zM129 135q0 -7 5.5 -12.5t12.5 -5.5 h312q-8 0 -13.5 5.5t-5.5 12.5v250q0 7 5.5 12.5t13.5 5.5h67q6 0 12.5 -5.5t6.5 -12.5v-250q0 -7 5.5 -12.5t12.5 -5.5h273q8 0 13 5.5t5 12.5v1217q0 8 -5 13t-13 5h-689q-7 0 -12.5 -5t-5.5 -13v-1217z" />
<glyph unicode="R" d="M25 43v1401q0 8 5.5 13t12.5 5h897q8 0 13 -5t5 -13v-719q0 -7 -5 -12.5t-13 -5.5h-211q6 0 12.5 -6t6.5 -13v-645q0 -7 -6.5 -12.5t-12.5 -5.5h-67q-8 0 -13.5 5.5t-5.5 12.5v645q0 7 -6 13t-12 6h-357q-8 0 -13 5.5t-5 12.5v55q0 8 5.5 13.5t12.5 5.5h568q8 0 13 5.5 t5 12.5v535q0 8 -5 13t-13 5h-689q-7 0 -12.5 -5t-5.5 -13v-1309q0 -7 -5.5 -12.5t-12.5 -5.5h-68q-7 0 -12.5 5.5t-5.5 12.5z" />
<glyph unicode="S" d="M25 43v55q0 8 5.5 13.5t12.5 5.5h793q8 0 13 5.5t5 12.5v701q0 8 -5 13t-13 5h-793q-7 0 -12.5 5t-5.5 13v572q0 8 5.5 13t12.5 5h897q8 0 13 -5t5 -13v-55q0 -8 -5.5 -13.5t-12.5 -5.5h-793q-7 0 -12.5 -5t-5.5 -13v-387q0 -8 5.5 -13.5t12.5 -5.5h793q8 0 13 -5t5 -13 v-885q0 -7 -5 -12.5t-13 -5.5h-897q-7 0 -12.5 5.5t-5.5 12.5z" />
<glyph unicode="T" d="M25 1389v55q0 8 5.5 13t12.5 5h938q7 0 12.5 -5t5.5 -13v-55q0 -8 -5.5 -13.5t-12.5 -5.5h-418q-7 0 -12.5 -5t-5.5 -13v-1309q0 -7 -6.5 -12.5t-12.5 -5.5h-67q-8 0 -13.5 5.5t-5.5 12.5v1309q0 7 -6 12.5t-12 5.5h-379q-7 0 -12.5 5.5t-5.5 13.5z" />
<glyph unicode="U" d="M25 43v1401q0 8 5.5 13t12.5 5h68q7 0 12.5 -5t5.5 -13v-1309q0 -7 5.5 -12.5t12.5 -5.5h689q8 0 13 5.5t5 12.5v1309q0 8 5 13t13 5h68q8 0 13 -5t5 -13v-1401q0 -7 -5 -12.5t-13 -5.5h-897q-7 0 -12.5 5.5t-5.5 12.5z" />
<glyph unicode="V" d="M25 872v572q0 8 5.5 13t12.5 5h68q7 0 12.5 -5t5.5 -13v-479q0 -8 5.5 -13.5t12.5 -5.5h117q8 0 13.5 -5.5t5.5 -12.5v-793q0 -7 5.5 -12.5t12.5 -5.5h381q8 0 13 5.5t5 12.5v793q0 7 5.5 12.5t13.5 5.5h117q7 0 12.5 5.5t5.5 13.5v479q0 8 5 13t13 5h68q8 0 13 -5t5 -13 v-572q0 -8 -5 -13t-13 -5h-117q-7 0 -12.5 -5t-5.5 -13v-793q0 -7 -5.5 -12.5t-13.5 -5.5h-589q-8 0 -13.5 5.5t-5.5 12.5v793q0 8 -5 13t-13 5h-117q-7 0 -12.5 5t-5.5 13z" />
<glyph unicode="W" d="M25 43v1401q0 8 5.5 13t12.5 5h68q7 0 12.5 -5t5.5 -13v-1309q0 -7 5.5 -12.5t12.5 -5.5h275q6 0 12 5.5t6 12.5v1075q0 8 6 13.5t13 5.5h67q6 0 12.5 -6t6.5 -13v-1075q0 -7 -6.5 -12.5t-12.5 -5.5h310q8 0 13 5.5t5 12.5v1309q0 8 5 13t13 5h68q8 0 13 -5t5 -13v-1401 q0 -7 -5 -12.5t-13 -5.5h-897q-7 0 -12.5 5.5t-5.5 12.5z" />
<glyph unicode="X" d="M25 43v885q0 8 5.5 13t12.5 5h135q8 0 13.5 6t5.5 13v479q0 8 5.5 13t12.5 5h68q7 0 12.5 -5t5.5 -13v-479q0 -8 -5.5 -13.5t-12.5 -5.5h381q7 0 12.5 5.5t5.5 13.5v479q0 8 5 13t13 5h68q8 0 13 -5t5 -13v-479q0 -8 -5.5 -13.5t-12.5 -5.5h172q8 0 13 -5t5 -13v-885 q0 -7 -5 -12.5t-13 -5.5h-68q-8 0 -13 5.5t-5 12.5v793q0 8 -5 13t-13 5h-689q-7 0 -12.5 -5t-5.5 -13v-793q0 -7 -5.5 -12.5t-12.5 -5.5h-68q-7 0 -12.5 5.5t-5.5 12.5z" />
<glyph unicode="Y" d="M25 872v572q0 8 5.5 13t12.5 5h68q7 0 12.5 -5t5.5 -13v-479q0 -8 5.5 -13.5t12.5 -5.5h689q7 0 12.5 5.5t5.5 13.5v479q0 8 5 13t13 5h68q8 0 13 -5t5 -13v-572q0 -8 -5 -13t-13 -5h-414q6 0 12.5 -5.5t6.5 -12.5v-793q0 -7 -6.5 -12.5t-12.5 -5.5h-67q-8 0 -13.5 5.5 t-5.5 12.5v793q0 7 -6 12.5t-12 5.5h-379q-7 0 -12.5 5t-5.5 13z" />
<glyph unicode="Z" d="M25 43v727q0 8 5.5 13t12.5 5h793q7 0 12.5 6.5t5.5 12.5v545q0 8 -5 13t-13 5h-793q-7 0 -12.5 5.5t-5.5 13.5v55q0 8 5.5 13t12.5 5h897q8 0 13 -5t5 -13v-729q0 -6 -5.5 -12.5t-12.5 -6.5h-793q-7 0 -12.5 -5t-5.5 -13v-543q0 -7 5.5 -12.5t12.5 -5.5h793 q7 0 12.5 -5.5t5.5 -13.5v-55q0 -7 -5 -12.5t-13 -5.5h-897q-7 0 -12.5 5.5t-5.5 12.5z" />
<glyph unicode="[" d="M324 -481v1925q0 8 5 13t13 5h295q7 0 12.5 -5t5.5 -13v-55q0 -8 -5.5 -13.5t-12.5 -5.5h-191q-8 0 -13 -5t-5 -13v-1741q0 -8 5.5 -13.5t12.5 -5.5h191q7 0 12.5 -5t5.5 -13v-55q0 -8 -5.5 -13.5t-12.5 -5.5h-295q-7 0 -12.5 5.5t-5.5 13.5z" />
<glyph unicode="\" d="M209 453v991q0 8 5.5 13t12.5 5h68q6 0 12 -5.5t6 -12.5v-899q0 -6 6 -12.5t13 -6.5h368q6 0 12.5 -5.5t6.5 -12.5v-989q0 -7 -6.5 -13t-12.5 -6h-67q-7 0 -13 6t-6 13v897q0 7 -6 12.5t-12 5.5h-369q-7 0 -12.5 6.5t-5.5 12.5z" />
<glyph unicode="]" d="M324 -426q0 8 5 13t13 5h190q8 0 13.5 6t5.5 13v1741q0 7 -5.5 12.5t-13.5 5.5h-190q-7 0 -12.5 5.5t-5.5 13.5v55q0 8 5 13t13 5h295q7 0 12.5 -5t5.5 -13v-1925q0 -8 -5.5 -13.5t-12.5 -5.5h-295q-7 0 -12.5 5.5t-5.5 13.5v55z" />
<glyph unicode="^" d="M25 535v430q0 7 5.5 12.5t12.5 5.5h117q8 0 13 5.5t5 12.5v447q0 7 5.5 12.5t13.5 5.5h589q8 0 13.5 -5.5t5.5 -12.5v-447q0 -7 5.5 -12.5t12.5 -5.5h117q8 0 13 -5.5t5 -12.5v-430q0 -8 -5.5 -13.5t-12.5 -5.5h-68q-7 0 -12.5 5.5t-5.5 13.5v337q0 8 -5.5 13.5 t-12.5 5.5h-117q-8 0 -13.5 5.5t-5.5 12.5v447q0 8 -5 13t-13 5h-381q-7 0 -12.5 -5t-5.5 -13v-447q0 -7 -5.5 -12.5t-13.5 -5.5h-117q-7 0 -12.5 -5.5t-5.5 -13.5v-337q0 -8 -5.5 -13.5t-12.5 -5.5h-68q-7 0 -12.5 5.5t-5.5 13.5z" />
<glyph unicode="_" d="M25 -197q0 8 5.5 13.5t12.5 5.5h774q7 0 13 -6t6 -13v-55q0 -7 -5.5 -12.5t-13.5 -5.5h-774q-7 0 -12.5 5t-5.5 13v55z" />
<glyph unicode="`" d="M0 1219v225q0 8 5 13t13 5h68q8 0 13 -5t5 -13v-115q0 -6 6 -12t13 -6h117q7 0 12.5 -5.5t5.5 -13.5v-73q0 -6 -5.5 -12.5t-12.5 -6.5h-222q-7 0 -12.5 6.5t-5.5 12.5z" />
<glyph unicode="a" d="M25 43v590q0 7 5.5 12.5t12.5 5.5h674q6 0 12 -5.5t6 -12.5v-55q0 -7 -6 -13t-12 -6h-570q-7 0 -12.5 -5.5t-5.5 -12.5v-406q0 -7 5.5 -12.5t12.5 -5.5h689q8 0 13 5.5t5 12.5v701q0 8 -5 13t-13 5h-793q-7 0 -12.5 5t-5.5 13v56q0 8 5.5 13t12.5 5h897q8 0 13 -5t5 -13 v-885q0 -7 -5 -12.5t-13 -5.5h-897q-7 0 -12.5 5.5t-5.5 12.5z" />
<glyph unicode="b" d="M25 43v1438q0 7 5.5 12.5t12.5 5.5h68q7 0 12.5 -5.5t5.5 -12.5v-1346q0 -7 5.5 -12.5t12.5 -5.5h689q8 0 13 5.5t5 12.5v701q0 8 -5 13t-13 5h-568q-8 0 -13 5t-5 13v56q0 8 5 13t13 5h672q8 0 13 -5t5 -13v-885q0 -7 -5 -12.5t-13 -5.5h-897q-7 0 -12.5 5.5t-5.5 12.5z " />
<glyph unicode="c" d="M25 43v885q0 8 5.5 13t12.5 5h897q8 0 13 -5t5 -13v-56q0 -8 -5 -13t-13 -5h-793q-7 0 -12.5 -5t-5.5 -13v-701q0 -7 5.5 -12.5t12.5 -5.5h793q7 0 12.5 -5.5t5.5 -13.5v-55q0 -7 -5 -12.5t-13 -5.5h-897q-7 0 -12.5 5.5t-5.5 12.5z" />
<glyph unicode="d" d="M25 43v885q0 8 5.5 13t12.5 5h674q6 0 12 -5.5t6 -12.5v-56q0 -7 -6 -12.5t-12 -5.5h-570q-7 0 -12.5 -5t-5.5 -13v-701q0 -7 5.5 -12.5t12.5 -5.5h689q8 0 13 5.5t5 12.5v1346q0 7 5 12.5t13 5.5h68q8 0 13 -5.5t5 -12.5v-1438q0 -7 -5 -12.5t-13 -5.5h-897 q-7 0 -12.5 5.5t-5.5 12.5z" />
<glyph unicode="e" d="M25 43v885q0 8 5.5 13t12.5 5h897q8 0 13 -5t5 -13v-492q0 -8 -5 -13t-13 -5h-672q-8 0 -13 5t-5 13v58q0 8 5 13t13 5h568q8 0 13 5t5 13v306q0 8 -5 13t-13 5h-689q-7 0 -12.5 -5t-5.5 -13v-701q0 -7 5.5 -12.5t12.5 -5.5h793q7 0 12.5 -5.5t5.5 -13.5v-55 q0 -7 -5 -12.5t-13 -5.5h-897q-7 0 -12.5 5.5t-5.5 12.5z" />
<glyph unicode="f" d="M25 872v56q0 8 5.5 13t12.5 5h258q7 0 12.5 5.5t5.5 13.5v516q0 7 5.5 12.5t13.5 5.5h584q8 0 13 -5.5t5 -12.5v-56q0 -7 -5 -12.5t-13 -5.5h-480q-8 0 -13 -5.5t-5 -12.5v-461q0 8 5 13t13 5h498q8 0 13 -5t5 -13v-56q0 -8 -5 -13t-13 -5h-498q-8 0 -13 -5t-5 -13v-793 q0 -7 -5 -12.5t-13 -5.5h-68q-8 0 -13.5 5.5t-5.5 12.5v829q0 -8 -5.5 -13t-12.5 -5h-258q-7 0 -12.5 5t-5.5 13z" />
<glyph unicode="g" d="M25 43v885q0 8 5.5 13t12.5 5h897q8 0 13 -5t5 -13v-1409q0 -8 -5.5 -13.5t-12.5 -5.5h-897q-7 0 -12.5 5.5t-5.5 13.5v55q0 8 5.5 13t12.5 5h793q7 0 12.5 5.5t5.5 13.5v1225q0 8 -5 13t-13 5h-689q-7 0 -12.5 -5t-5.5 -13v-701q0 -7 5.5 -12.5t12.5 -5.5h570q6 0 12 -6 t6 -13v-55q0 -7 -6 -12.5t-12 -5.5h-674q-7 0 -12.5 5.5t-5.5 12.5z" />
<glyph unicode="h" d="M25 43v1438q0 7 5.5 12.5t12.5 5.5h68q7 0 12.5 -5.5t5.5 -12.5v-553q0 8 5.5 13t12.5 5h793q8 0 13 -5t5 -13v-885q0 -7 -5 -12.5t-13 -5.5h-68q-8 0 -13 5.5t-5 12.5v793q0 8 -5 13t-13 5h-689q-7 0 -12.5 -5t-5.5 -13v-793q0 -7 -5.5 -12.5t-12.5 -5.5h-68 q-7 0 -12.5 5.5t-5.5 12.5z" />
<glyph unicode="i" d="M25 43v55q0 8 5.5 13.5t12.5 5.5h416q-8 0 -13.5 5.5t-5.5 12.5v793q0 7 5.5 12.5t13.5 5.5h67q6 0 12.5 -5.5t6.5 -12.5v-793q0 -7 5.5 -12.5t12.5 -5.5h377q7 0 12.5 -5.5t5.5 -13.5v-55q0 -7 -5 -12.5t-13 -5.5h-897q-7 0 -12.5 5.5t-5.5 12.5z" />
<glyph unicode="j" d="M25 -426q0 8 5.5 13t12.5 5h793q7 0 12.5 5.5t5.5 13.5v1317q0 8 5 13t13 5h68q8 0 13 -5t5 -13v-1409q0 -8 -5.5 -13.5t-12.5 -5.5h-897q-7 0 -12.5 5.5t-5.5 13.5v55z" />
<glyph unicode="k" d="M25 43v1438q0 7 5.5 12.5t12.5 5.5h68q7 0 12.5 -5.5t5.5 -12.5v-856q0 7 5.5 12.5t12.5 5.5h478q6 0 12 6t6 13v266q0 7 5.5 12.5t13.5 5.5h67q6 0 12.5 -5.5t6.5 -12.5v-266q0 -7 -6.5 -13t-12.5 -6h211q8 0 13 -5.5t5 -12.5v-582q0 -7 -5 -12.5t-13 -5.5h-68 q-8 0 -13 5.5t-5 12.5v489q0 8 -5.5 13.5t-12.5 5.5h-689q-7 0 -12.5 -5.5t-5.5 -13.5v-489q0 -7 -5.5 -12.5t-12.5 -5.5h-68q-7 0 -12.5 5.5t-5.5 12.5z" />
<glyph unicode="l" d="M25 1425v56q0 7 5.5 12.5t12.5 5.5h473q8 0 13.5 -5.5t5.5 -12.5v-1346q0 -7 5.5 -12.5t12.5 -5.5h387q7 0 12.5 -5.5t5.5 -13.5v-55q0 -7 -5 -12.5t-13 -5.5h-491q-8 0 -13.5 5.5t-5.5 12.5v1346q0 7 -5 12.5t-13 5.5h-369q-7 0 -12.5 5.5t-5.5 12.5z" />
<glyph unicode="m" d="M25 43v885q0 8 5.5 13t12.5 5h897q8 0 13 -5t5 -13v-885q0 -7 -5 -12.5t-13 -5.5h-68q-8 0 -13 5.5t-5 12.5v793q0 8 -5 13t-13 5h-310q6 0 12.5 -5.5t6.5 -12.5v-793q0 -7 -6.5 -12.5t-12.5 -5.5h-67q-8 0 -13.5 5.5t-5.5 12.5v793q0 7 -6 12.5t-12 5.5h-275 q-7 0 -12.5 -5t-5.5 -13v-793q0 -7 -5.5 -12.5t-12.5 -5.5h-68q-7 0 -12.5 5.5t-5.5 12.5z" />
<glyph unicode="n" d="M25 43v885q0 8 5.5 13t12.5 5h897q8 0 13 -5t5 -13v-885q0 -7 -5 -12.5t-13 -5.5h-68q-8 0 -13 5.5t-5 12.5v793q0 8 -5 13t-13 5h-689q-7 0 -12.5 -5t-5.5 -13v-793q0 -7 -5.5 -12.5t-12.5 -5.5h-68q-7 0 -12.5 5.5t-5.5 12.5z" />
<glyph unicode="o" d="M25 43v885q0 8 5.5 13t12.5 5h897q8 0 13 -5t5 -13v-885q0 -7 -5 -12.5t-13 -5.5h-897q-7 0 -12.5 5.5t-5.5 12.5zM129 135q0 -7 5.5 -12.5t12.5 -5.5h689q8 0 13 5.5t5 12.5v701q0 8 -5 13t-13 5h-689q-7 0 -12.5 -5t-5.5 -13v-701z" />
<glyph unicode="p" d="M25 -481v1409q0 8 5.5 13t12.5 5h897q8 0 13 -5t5 -13v-885q0 -7 -5 -12.5t-13 -5.5h-672q-8 0 -13 5.5t-5 12.5v55q0 8 5.5 13.5t12.5 5.5h568q8 0 13 5.5t5 12.5v701q0 8 -5 13t-13 5h-689q-7 0 -12.5 -5t-5.5 -13v-1317q0 -8 -5.5 -13.5t-12.5 -5.5h-68 q-7 0 -12.5 5.5t-5.5 13.5z" />
<glyph unicode="q" d="M25 43v885q0 8 5.5 13t12.5 5h897q8 0 13 -5t5 -13v-1409q0 -8 -5.5 -13.5t-12.5 -5.5h-68q-7 0 -12.5 5.5t-5.5 13.5v1317q0 8 -5 13t-13 5h-689q-7 0 -12.5 -5t-5.5 -13v-701q0 -7 5.5 -12.5t12.5 -5.5h570q6 0 12 -6t6 -13v-55q0 -7 -6 -12.5t-12 -5.5h-674 q-7 0 -12.5 5.5t-5.5 12.5z" />
<glyph unicode="r" d="M25 43v885q0 8 5.5 13t12.5 5h897q8 0 13 -5t5 -13v-56q0 -8 -5 -13t-13 -5h-793q-7 0 -12.5 -5t-5.5 -13v-793q0 -7 -5.5 -12.5t-12.5 -5.5h-68q-7 0 -12.5 5.5t-5.5 12.5z" />
<glyph unicode="s" d="M25 43v55q0 8 5.5 13.5t12.5 5.5h793q8 0 13 5.5t5 12.5v287q0 8 -5 13t-13 5h-793q-7 0 -12.5 5.5t-5.5 13.5v469q0 8 5.5 13t12.5 5h897q8 0 13 -5t5 -13v-56q0 -8 -5 -13t-13 -5h-793q-7 0 -12.5 -5t-5.5 -13v-285q0 -8 5.5 -13.5t12.5 -5.5h793q8 0 13 -5t5 -13v-471 q0 -7 -5 -12.5t-13 -5.5h-897q-7 0 -12.5 5.5t-5.5 12.5z" />
<glyph unicode="t" d="M25 872v56q0 8 5.5 13t12.5 5h293q6 0 12 6t6 13v516q0 7 5.5 12.5t13.5 5.5h67q6 0 12.5 -5.5t6.5 -12.5v-553q0 8 5.5 13t12.5 5h463q8 0 13 -5t5 -13v-56q0 -8 -5 -13t-13 -5h-463q-7 0 -12.5 -5t-5.5 -13v-701q0 -7 5.5 -12.5t12.5 -5.5h463q7 0 12.5 -5.5t5.5 -13.5 v-55q0 -7 -5 -12.5t-13 -5.5h-567q-8 0 -13.5 5.5t-5.5 12.5v829q0 -7 -6 -12.5t-12 -5.5h-293q-7 0 -12.5 5t-5.5 13z" />
<glyph unicode="u" d="M25 43v885q0 8 5.5 13t12.5 5h68q7 0 12.5 -5t5.5 -13v-793q0 -7 5.5 -12.5t12.5 -5.5h689q8 0 13 5.5t5 12.5v793q0 8 5 13t13 5h68q8 0 13 -5t5 -13v-885q0 -7 -5 -12.5t-13 -5.5h-897q-7 0 -12.5 5.5t-5.5 12.5z" />
<glyph unicode="v" d="M25 528v400q0 8 5.5 13t12.5 5h68q7 0 12.5 -5t5.5 -13v-307q0 -8 5.5 -13.5t12.5 -5.5h117q8 0 13.5 -5.5t5.5 -12.5v-449q0 -7 5.5 -12.5t12.5 -5.5h381q8 0 13 5.5t5 12.5v449q0 7 5.5 12.5t13.5 5.5h117q7 0 12.5 5.5t5.5 13.5v307q0 8 5 13t13 5h68q8 0 13 -5t5 -13 v-400q0 -8 -5 -13t-13 -5h-117q-7 0 -12.5 -5t-5.5 -13v-449q0 -7 -5.5 -12.5t-13.5 -5.5h-589q-8 0 -13.5 5.5t-5.5 12.5v449q0 8 -5 13t-13 5h-117q-7 0 -12.5 5t-5.5 13z" />
<glyph unicode="w" d="M25 43v885q0 8 5.5 13t12.5 5h68q7 0 12.5 -5t5.5 -13v-793q0 -7 5.5 -12.5t12.5 -5.5h275q6 0 12 5.5t6 12.5v793q0 7 5.5 12.5t13.5 5.5h67q6 0 12.5 -5.5t6.5 -12.5v-793q0 -7 -6.5 -12.5t-12.5 -5.5h310q8 0 13 5.5t5 12.5v793q0 8 5 13t13 5h68q8 0 13 -5t5 -13 v-885q0 -7 -5 -12.5t-13 -5.5h-897q-7 0 -12.5 5.5t-5.5 12.5z" />
<glyph unicode="x" d="M25 43v541q0 8 5.5 13t12.5 5h135q8 0 13.5 6t5.5 13v307q0 8 5.5 13t12.5 5h68q7 0 12.5 -5t5.5 -13v-307q0 -8 -5.5 -13.5t-12.5 -5.5h381q7 0 12.5 5.5t5.5 13.5v307q0 8 5 13t13 5h68q8 0 13 -5t5 -13v-307q0 -8 -5.5 -13.5t-12.5 -5.5h172q8 0 13 -5t5 -13v-541 q0 -7 -5 -12.5t-13 -5.5h-68q-8 0 -13 5.5t-5 12.5v449q0 8 -5 13t-13 5h-689q-7 0 -12.5 -5t-5.5 -13v-449q0 -7 -5.5 -12.5t-12.5 -5.5h-68q-7 0 -12.5 5.5t-5.5 12.5z" />
<glyph unicode="y" d="M25 43v885q0 8 5.5 13t12.5 5h68q7 0 12.5 -5t5.5 -13v-793q0 -7 5.5 -12.5t12.5 -5.5h689q8 0 13 5.5t5 12.5v793q0 8 5 13t13 5h68q8 0 13 -5t5 -13v-1409q0 -8 -5.5 -13.5t-12.5 -5.5h-897q-7 0 -12.5 5.5t-5.5 13.5v55q0 8 5.5 13t12.5 5h793q7 0 12.5 5.5t5.5 13.5 v432q0 -7 -5 -12.5t-13 -5.5h-793q-7 0 -12.5 5.5t-5.5 12.5z" />
<glyph unicode="z" d="M25 43v471q0 8 5.5 13t12.5 5h793q7 0 12.5 5.5t5.5 13.5v285q0 8 -5 13t-13 5h-793q-7 0 -12.5 5t-5.5 13v56q0 8 5.5 13t12.5 5h897q8 0 13 -5t5 -13v-469q0 -8 -5.5 -13.5t-12.5 -5.5h-793q-7 0 -12.5 -5t-5.5 -13v-287q0 -7 5.5 -12.5t12.5 -5.5h793q7 0 12.5 -5.5 t5.5 -13.5v-55q0 -7 -5 -12.5t-13 -5.5h-897q-7 0 -12.5 5.5t-5.5 12.5z" />
<glyph unicode="{" d="M25 307v393q0 8 5.5 13.5t12.5 5.5h190q7 0 13 6t6 12v707q0 8 5 13t13 5h355q7 0 12.5 -5t5.5 -13v-55q0 -8 -5.5 -13.5t-12.5 -5.5h-250q-8 0 -13.5 -5.5t-5.5 -12.5v-707q0 -6 -5.5 -12t-12.5 -6h-191q-7 0 -12.5 -5.5t-5.5 -13.5v-209q0 -7 5.5 -12.5t12.5 -5.5h191 q7 0 12.5 -5.5t5.5 -13.5v-751q0 -7 6 -13t13 -6h239q8 0 13.5 -5.5t5.5 -12.5v-55q0 -7 -5.5 -13t-13.5 -6h-344q-7 0 -12.5 5.5t-5.5 13.5v751q0 8 -6 13.5t-13 5.5h-190q-7 0 -12.5 5.5t-5.5 12.5z" />
<glyph unicode="|" d="M438 -481v1925q0 7 5.5 12.5t13.5 5.5h67q8 0 13.5 -5.5t5.5 -12.5v-1925q0 -7 -5.5 -13t-13.5 -6h-67q-7 0 -13 6t-6 13z" />
<glyph unicode="}" d="M274 -426q0 7 5.5 12.5t13.5 5.5h250q7 0 12.5 5.5t5.5 13.5v704q0 7 5.5 13t13.5 6h190q7 0 12.5 6t5.5 12v211q0 8 -5.5 13.5t-12.5 5.5h-190q-8 0 -13.5 5.5t-5.5 12.5v752q0 8 -5.5 13t-12.5 5h-240q-7 0 -12.5 5.5t-5.5 13.5v55q0 8 5.5 13t12.5 5h344 q8 0 13.5 -5.5t5.5 -12.5v-752q0 -8 5 -13t13 -5h190q8 0 13.5 -6t5.5 -13v-395q0 -6 -6 -12t-13 -6h-190q-7 0 -12.5 -5.5t-5.5 -13.5v-704q0 -7 -6 -13t-13 -6h-354q-7 0 -13 6t-6 13v55z" />
<glyph unicode="~" d="M25 618q0 -8 5.5 -13t12.5 -5h379q6 0 12 -5.5t6 -12.5v-283q0 -7 5.5 -12.5t13.5 -5.5h481q8 0 13 5.5t5 12.5v55q0 8 -5.5 13.5t-12.5 5.5h-377q-7 0 -12.5 5.5t-5.5 12.5v283q0 7 -6.5 12.5t-12.5 5.5h-483q-7 0 -12.5 -5t-5.5 -13v-56z" />
<glyph unicode="&#xa0;" />
<glyph unicode="&#xa1;" d="M418 1296v148q0 8 5 13t13 5h111q7 0 12.5 -5t5.5 -13v-148q0 -8 -5.5 -13t-12.5 -5h-111q-8 0 -13 5t-5 13zM438 43v1057q0 7 5.5 12.5t13.5 5.5h67q8 0 13.5 -5.5t5.5 -12.5v-1057q0 -7 -5.5 -12.5t-13.5 -5.5h-67q-8 0 -13.5 5.5t-5.5 12.5z" />
<glyph unicode="&#xa2;" d="M25 43v885q0 8 5.5 13t12.5 5h379q6 0 12 6t6 13v479q0 7 5.5 12.5t13.5 5.5h67q6 0 12.5 -5.5t6.5 -12.5v-479q0 -7 -6.5 -13t-12.5 -6h439q7 0 12.5 -5t5.5 -13v-56q0 -8 -5.5 -13t-12.5 -5h-818q-7 0 -12.5 -5t-5.5 -13v-701q0 -7 5.5 -12.5t12.5 -5.5h818 q7 0 12.5 -5.5t5.5 -13.5v-55q0 -7 -5.5 -12.5t-12.5 -5.5h-439q6 0 12.5 -6t6.5 -13v-487q0 -7 -6.5 -13t-12.5 -6h-67q-7 0 -13 6t-6 13v487q0 7 -6 13t-12 6h-379q-7 0 -12.5 5.5t-5.5 12.5z" />
<glyph unicode="&#xa3;" d="M25 43v55q0 8 5.5 13.5t12.5 5.5h213q6 0 12 5.5t6 12.5v737q0 -7 -6 -12.5t-12 -5.5h-213q-7 0 -12.5 5t-5.5 13v56q0 8 5.5 13t12.5 5h213q6 0 12 6t6 13v479q0 7 5.5 12.5t13.5 5.5h647q8 0 13 -5t5 -13v-55q0 -8 -5.5 -13.5t-12.5 -5.5h-543q-7 0 -12.5 -5t-5.5 -13 v-424q0 8 5.5 13t12.5 5h543q8 0 13 -5t5 -13v-56q0 -8 -5 -13t-13 -5h-543q-7 0 -12.5 -5t-5.5 -13v-701q0 -7 -6.5 -12.5t-12.5 -5.5h580q7 0 12.5 -5.5t5.5 -13.5v-55q0 -7 -5 -12.5t-13 -5.5h-897q-7 0 -12.5 5.5t-5.5 12.5z" />
<glyph unicode="&#xa4;" d="M25 946v68q0 8 5.5 13t12.5 5h117q7 0 12.5 5.5t5.5 13.5v295q0 7 5.5 12.5t13.5 5.5h-154q-7 0 -12.5 5t-5.5 13v68q0 8 5.5 13t12.5 5h694q8 0 13.5 -5.5t5.5 -12.5v-68q0 -7 -5.5 -12.5t-13.5 -5.5h-116q-8 0 -13.5 -5.5t-5.5 -12.5v-295q0 -8 -5.5 -13.5t-12.5 -5.5 h153q8 0 13.5 -5.5t5.5 -12.5v-68q0 -7 -5.5 -12.5t-13.5 -5.5h-694q-7 0 -12.5 5t-5.5 13zM252 1032h240q7 0 12.5 5.5t5.5 13.5v295q0 8 5 13t13 5h-239q-8 0 -13.5 -5.5t-5.5 -12.5v-295q0 -8 -5.5 -13.5t-12.5 -5.5z" />
<glyph unicode="&#xa5;" d="M25 305v55q0 8 5.5 13.5t12.5 5.5h379q6 0 12 -6t6 -13v215q0 7 -6 13t-12 6h-379q-7 0 -12.5 5t-5.5 13v56q0 8 5.5 13t12.5 5h379q6 0 12 -5.5t6 -12.5v168q0 7 -6 12.5t-12 5.5h-354q-8 0 -13.5 5.5t-5.5 12.5v572q0 7 5.5 12.5t13.5 5.5h67q8 0 13.5 -5.5t5.5 -12.5 v-479q0 -8 5.5 -13.5t12.5 -5.5h639q7 0 12.5 5.5t5.5 13.5v479q0 7 5.5 12.5t13.5 5.5h67q8 0 13.5 -5.5t5.5 -12.5v-572q0 -7 -5.5 -12.5t-13.5 -5.5h-389q6 0 12.5 -5.5t6.5 -12.5v-131q0 -8 5.5 -13.5t12.5 -5.5h377q8 0 13 -5t5 -13v-56q0 -8 -5 -13t-13 -5h-377 q-7 0 -12.5 5t-5.5 13v-215q0 -7 5.5 -12.5t12.5 -5.5h377q7 0 12.5 -5.5t5.5 -13.5v-55q0 -7 -5 -12.5t-13 -5.5h-377q-7 0 -12.5 5.5t-5.5 12.5v-262q0 -7 -6.5 -12.5t-12.5 -5.5h-67q-8 0 -13.5 5.5t-5.5 12.5v225q0 7 -6 13t-12 6h-379q-7 0 -12.5 5.5t-5.5 12.5z" />
<glyph unicode="&#xa6;" d="M438 369q0 7 6.5 12.5t12.5 5.5h67q8 0 13.5 -5.5t5.5 -12.5v-850q0 -7 -5.5 -13t-13.5 -6h-67q-7 0 -13 6t-6 13v850zM438 594v850q0 7 5.5 12.5t13.5 5.5h67q8 0 13.5 -5.5t5.5 -12.5v-850q0 -8 -5.5 -13.5t-13.5 -5.5h-67q-7 0 -13 5.5t-6 13.5z" />
<glyph unicode="&#xa7;" d="M25 43v1401q0 8 5.5 13t12.5 5h897q8 0 13 -5t5 -13v-55q0 -8 -5.5 -13.5t-12.5 -5.5h-793q-7 0 -12.5 -5t-5.5 -13v-387q0 -8 5.5 -13.5t12.5 -5.5h793q8 0 13 -5t5 -13v-1409q0 -8 -5.5 -13.5t-12.5 -5.5h-897q-7 0 -12.5 5.5t-5.5 13.5v55q0 8 5.5 13t12.5 5h793 q7 0 12.5 5.5t5.5 13.5v395q0 8 -5.5 13.5t-12.5 5.5h-793q-7 0 -12.5 5.5t-5.5 12.5zM129 135q0 -7 5.5 -12.5t12.5 -5.5h689q7 0 12.5 -5.5t5.5 -13.5v738q0 8 -5 13t-13 5h-689q-7 0 -12.5 5t-5.5 13v-737z" />
<glyph unicode="&#xa8;" d="M0 1358v80q0 8 5 13t13 5h68q8 0 13 -5t5 -13v-80q0 -8 -5.5 -13.5t-12.5 -5.5h-68q-7 0 -12.5 5.5t-5.5 13.5zM264 1358v80q0 7 5.5 12.5t13.5 5.5h67q8 0 13.5 -5.5t5.5 -12.5v-80q0 -8 -5.5 -13.5t-13.5 -5.5h-67q-7 0 -13 5.5t-6 13.5z" />
<glyph unicode="&#xa9;" d="M25 43v1401q0 8 5.5 13t12.5 5h897q8 0 13 -5t5 -13v-1401q0 -7 -5 -12.5t-13 -5.5h-897q-7 0 -12.5 5.5t-5.5 12.5zM129 135q0 -7 5.5 -12.5t12.5 -5.5h689q8 0 13 5.5t5 12.5v1217q0 8 -5 13t-13 5h-689q-7 0 -12.5 -5t-5.5 -13v-1217zM274 301v885q0 7 5.5 12.5 t13.5 5.5h399q6 0 12.5 -5.5t6.5 -12.5v-56q0 -7 -6.5 -12.5t-12.5 -5.5h-295q-7 0 -12.5 -5t-5.5 -13v-701q0 -7 5.5 -12.5t12.5 -5.5h295q6 0 12.5 -6t6.5 -13v-55q0 -7 -6.5 -12.5t-12.5 -5.5h-399q-8 0 -13.5 5.5t-5.5 12.5z" />
<glyph unicode="&#xaa;" d="M61 952v310q0 7 5.5 12.5t13.5 5.5h231q6 0 12.5 -5.5t6.5 -12.5v-56q0 -6 -6.5 -12t-12.5 -6h-127q-7 0 -12.5 -5.5t-5.5 -13.5v-125q0 -8 5 -13t13 -5h191q7 0 12.5 5t5.5 13v308q0 8 -5.5 13t-12.5 5h-295q-8 0 -13.5 6t-5.5 13v55q0 7 5.5 12.5t13.5 5.5h399 q8 0 13.5 -5.5t5.5 -12.5v-492q0 -7 -5.5 -12.5t-13.5 -5.5h-399q-8 0 -13.5 5.5t-5.5 12.5z" />
<glyph unicode="&#xab;" d="M49 334q0 -6 6 -12.5t13 -6.5h153q8 0 13.5 -5.5t5.5 -12.5v-107q0 -8 5 -13t13 -5h205q7 0 12.5 5t5.5 13v56q0 8 -5.5 13t-12.5 5h-101q-7 0 -12.5 5.5t-5.5 13.5v125q0 8 -5 13t-13 5h-160q-7 0 -13 6t-6 12v91q0 7 5.5 12.5t13.5 5.5h160q7 0 12.5 6t5.5 12v117 q0 8 5.5 13.5t12.5 5.5h101q7 0 12.5 6t5.5 12v55q0 8 -5.5 13.5t-12.5 5.5h-205q-7 0 -12.5 -5.5t-5.5 -13.5v-116q0 -6 -6 -12.5t-13 -6.5h-153q-8 0 -13.5 -5.5t-5.5 -12.5v-293zM455 334q0 -6 5.5 -12.5t12.5 -6.5h154q7 0 12.5 -5.5t5.5 -12.5v-107q0 -7 5.5 -12.5 t13.5 -5.5h204q8 0 13.5 5.5t5.5 12.5v56q0 7 -5.5 12.5t-13.5 5.5h-100q-7 0 -12.5 5.5t-5.5 13.5v125q0 7 -5.5 12.5t-13.5 5.5h-160q-7 0 -12.5 6t-5.5 12v91q0 7 5.5 12.5t12.5 5.5h160q7 0 13 6t6 12v117q0 8 5.5 13.5t12.5 5.5h100q7 0 13 6t6 12v55q0 8 -5.5 13.5 t-13.5 5.5h-204q-8 0 -13.5 -5.5t-5.5 -13.5v-116q0 -6 -5.5 -12.5t-12.5 -6.5h-154q-7 0 -12.5 -5.5t-5.5 -12.5v-293z" />
<glyph unicode="&#xac;" d="M61 483q0 -7 5.5 -12.5t13.5 -5.5h694q8 0 13.5 -5.5t5.5 -13.5v-270q0 -8 5.5 -13t12.5 -5h68q7 0 12.5 5t5.5 13v363q0 7 -5.5 12.5t-12.5 5.5h-799q-8 0 -13.5 -5.5t-5.5 -12.5v-56z" />
<glyph unicode="&#xad;" d="M244 459v55q0 8 5 13t13 5h529q7 0 12.5 -5t5.5 -13v-55q0 -8 -5.5 -13.5t-12.5 -5.5h-529q-7 0 -12.5 5.5t-5.5 13.5z" />
<glyph unicode="&#xae;" d="M25 43v1401q0 8 5.5 13t12.5 5h897q8 0 13 -5t5 -13v-1401q0 -7 -5 -12.5t-13 -5.5h-897q-7 0 -12.5 5.5t-5.5 12.5zM129 135q0 -7 5.5 -12.5t12.5 -5.5h689q8 0 13 5.5t5 12.5v1217q0 8 -5 13t-13 5h-689q-7 0 -12.5 -5t-5.5 -13v-1217zM274 301v885q0 7 5.5 12.5 t13.5 5.5h399q6 0 12.5 -5.5t6.5 -12.5v-471q0 -6 -6.5 -12.5t-12.5 -6.5h-55q6 0 12 -5.5t6 -12.5v-377q0 -7 -6 -12.5t-12 -5.5h-68q-7 0 -12.5 5.5t-5.5 12.5v377q0 7 -6.5 12.5t-12.5 5.5h-135q-7 0 -12.5 6.5t-5.5 12.5v-414q0 -7 -6.5 -12.5t-12.5 -5.5h-67 q-8 0 -13.5 5.5t-5.5 12.5zM379 807q0 -6 5.5 -12.5t12.5 -6.5h191q6 0 12 6.5t6 12.5v287q0 7 -6 12.5t-12 5.5h-191q-7 0 -12.5 -5t-5.5 -13v-287z" />
<glyph unicode="&#xaf;" d="M0 1389v55q0 8 5 13t13 5h504q8 0 13.5 -5.5t5.5 -12.5v-55q0 -7 -5.5 -13t-13.5 -6h-504q-7 0 -12.5 5.5t-5.5 13.5z" />
<glyph unicode="&#xb0;" d="M27 952v492q0 8 5.5 13t12.5 5h449q8 0 13 -5t5 -13v-492q0 -8 -5 -13t-13 -5h-449q-7 0 -12.5 5t-5.5 13zM106 1020q0 -8 6 -13.5t13 -5.5h289q7 0 12.5 5.5t5.5 13.5v356q0 8 -5.5 13.5t-12.5 5.5h-289q-7 0 -13 -5.5t-6 -13.5v-356z" />
<glyph unicode="&#xb1;" d="M25 43v55q0 8 5.5 13.5t12.5 5.5h897q7 0 12.5 -5.5t5.5 -13.5v-55q0 -7 -5 -12.5t-13 -5.5h-897q-7 0 -12.5 5.5t-5.5 12.5zM25 606v56q0 8 5.5 13t12.5 5h379q8 0 13 5t5 13v230q0 7 5.5 12.5t13.5 5.5h67q8 0 13.5 -5.5t5.5 -12.5v-266q0 8 5.5 13t12.5 5h377 q8 0 13 -5t5 -13v-56q0 -8 -5 -13t-13 -5h-377q-7 0 -12.5 -5.5t-5.5 -13.5v-231q0 -8 -5.5 -13.5t-13.5 -5.5h-67q-7 0 -13 5.5t-6 13.5v268q0 -8 -5 -13t-13 -5h-379q-7 0 -12.5 5t-5.5 13z" />
<glyph unicode="&#xb4;" d="M0 1219v73q0 8 5.5 13.5t12.5 5.5h117q7 0 13 6t6 12v115q0 8 5 13t13 5h68q8 0 13 -5t5 -13v-225q0 -6 -5.5 -12.5t-12.5 -6.5h-222q-7 0 -12.5 6.5t-5.5 12.5z" />
<glyph unicode="&#xb6;" d="M25 313v1131q0 8 5.5 13t12.5 5h897q8 0 13 -5t5 -13v-55q0 -8 -5.5 -13.5t-12.5 -5.5h-92q-8 0 -13.5 -5.5t-5.5 -12.5v-1833q0 -8 -5.5 -13.5t-12.5 -5.5h-68q-7 0 -12.5 5.5t-5.5 13.5v1833q0 8 5.5 13t12.5 5h-245q-8 0 -13.5 -5.5t-5.5 -12.5v-1833q0 -8 -5.5 -13.5 t-12.5 -5.5h-68q-7 0 -12.5 5.5t-5.5 13.5v1833q0 8 5.5 13t12.5 5h-246q-7 0 -12.5 -5t-5.5 -13v-1039q0 -7 -5.5 -12.5t-12.5 -5.5h-68q-7 0 -12.5 5.5t-5.5 12.5z" />
<glyph unicode="&#xb7;" d="M399 780v148q0 7 5.5 12.5t13.5 5.5h110q8 0 13.5 -5.5t5.5 -12.5v-148q0 -7 -5.5 -12.5t-13.5 -5.5h-110q-8 0 -13.5 5.5t-5.5 12.5z" />
<glyph unicode="&#xb8;" d="M2 -420q0 8 5.5 13.5t12.5 5.5h404q6 0 12 5.5t6 12.5v297q0 7 5.5 12.5t13.5 5.5h67q6 0 12.5 -5.5t6.5 -12.5v-401q0 -7 -6.5 -13t-12.5 -6h-508q-7 0 -12.5 5.5t-5.5 13.5v67z" />
<glyph unicode="&#xba;" d="M61 952v492q0 7 5.5 12.5t13.5 5.5h399q8 0 13.5 -5.5t5.5 -12.5v-492q0 -7 -5.5 -12.5t-13.5 -5.5h-399q-8 0 -13.5 5.5t-5.5 12.5zM166 1044q0 -8 5 -13t13 -5h191q7 0 12.5 5t5.5 13v308q0 8 -5.5 13t-12.5 5h-191q-8 0 -13 -5t-5 -13v-308z" />
<glyph unicode="&#xbb;" d="M45 190v56q0 8 5.5 13t12.5 5h101q7 0 12.5 5.5t5.5 13.5v116q0 7 6 13t13 6h159q8 0 13.5 5.5t5.5 12.5v90q0 8 -5.5 13.5t-13.5 5.5h-159q-8 0 -13.5 5.5t-5.5 12.5v125q0 8 -5.5 13.5t-12.5 5.5h-101q-7 0 -12.5 6t-5.5 12v55q0 8 5.5 13.5t12.5 5.5h205 q8 0 13.5 -5.5t5.5 -13.5v-106q0 -8 5.5 -13.5t12.5 -5.5h154q7 0 12.5 -5.5t5.5 -12.5v-293q0 -8 -5.5 -13t-12.5 -5h-154q-7 0 -12.5 -5.5t-5.5 -13.5v-117q0 -7 -5.5 -12.5t-13.5 -5.5h-205q-7 0 -12.5 5t-5.5 13zM451 190v56q0 8 5.5 13t12.5 5h100q7 0 13 6t6 13v116 q0 8 5.5 13.5t12.5 5.5h160q8 0 13 5t5 13v90q0 8 -5.5 13.5t-12.5 5.5h-160q-8 0 -13 5.5t-5 12.5v125q0 8 -6 13.5t-13 5.5h-100q-7 0 -12.5 6t-5.5 12v55q0 8 5.5 13.5t12.5 5.5h205q7 0 12.5 -5.5t5.5 -13.5v-106q0 -8 6 -13.5t13 -5.5h153q8 0 13.5 -5.5t5.5 -12.5 v-293q0 -7 -5.5 -12.5t-13.5 -5.5h-153q-7 0 -13 -6t-6 -13v-117q0 -8 -5 -13t-13 -5h-205q-7 0 -12.5 5t-5.5 13z" />
<glyph unicode="&#xbc;" d="M37 43v55q0 8 5.5 13.5t12.5 5.5h164q6 0 12.5 5.5t6.5 12.5v635q0 8 5 13t13 5h369q6 0 12 6.5t6 12.5v637q0 7 5.5 12.5t13.5 5.5h266q8 0 13 -5t5 -13v-55q0 -8 -5.5 -13.5t-12.5 -5.5h-162q-8 0 -13 -5t-5 -13v-637q0 -6 -6.5 -12.5t-12.5 -6.5h-369q-8 0 -13 -5 t-5 -13v-635q0 -7 -6 -12.5t-12 -5.5h-269q-7 0 -12.5 5.5t-5.5 12.5zM61 952v56q0 7 5.5 12.5t13.5 5.5h166q-8 0 -13.5 5.5t-5.5 12.5v308q0 8 -5.5 13t-12.5 5h-129q-8 0 -13.5 6t-5.5 13v55q0 7 5.5 12.5t13.5 5.5h233q8 0 13.5 -5.5t5.5 -12.5v-400q0 -8 5 -13t13 -5 h129q8 0 13.5 -5.5t5.5 -12.5v-56q0 -7 -5.5 -12.5t-13.5 -5.5h-399q-8 0 -13.5 5.5t-5.5 12.5zM485 260v275q0 7 5.5 12.5t13.5 5.5h67q8 0 13.5 -5.5t5.5 -12.5v-183q0 -6 5.5 -12t12.5 -6h191q7 0 12.5 -5.5t5.5 -13.5v220q0 7 5.5 12.5t13.5 5.5h67q8 0 13.5 -5.5 t5.5 -12.5v-492q0 -7 -5.5 -12.5t-13.5 -5.5h-65q-9 0 -15 5t-6 13v180q0 8 -5.5 13.5t-12.5 5.5h-295q-7 0 -13 6t-6 12z" />
<glyph unicode="&#xbd;" d="M37 43v55q0 8 5.5 13.5t12.5 5.5h164q6 0 12.5 5.5t6.5 12.5v635q0 8 5 13t13 5h369q6 0 12 6.5t6 12.5v637q0 7 5.5 12.5t13.5 5.5h266q8 0 13 -5t5 -13v-55q0 -8 -5.5 -13.5t-12.5 -5.5h-162q-8 0 -13 -5t-5 -13v-637q0 -6 -6.5 -12.5t-12.5 -6.5h-369q-8 0 -13 -5 t-5 -13v-635q0 -7 -6 -12.5t-12 -5.5h-269q-7 0 -12.5 5.5t-5.5 12.5zM61 952v56q0 7 5.5 12.5t13.5 5.5h166q-8 0 -13.5 5.5t-5.5 12.5v308q0 8 -5.5 13t-12.5 5h-129q-8 0 -13.5 6t-5.5 13v55q0 7 5.5 12.5t13.5 5.5h233q8 0 13.5 -5.5t5.5 -12.5v-400q0 -8 5 -13t13 -5 h129q8 0 13.5 -5.5t5.5 -12.5v-56q0 -7 -5.5 -12.5t-13.5 -5.5h-399q-8 0 -13.5 5.5t-5.5 12.5zM485 43v272q0 7 5.5 13t13.5 6h295q7 0 12.5 6t5.5 12v90q0 8 -5.5 13.5t-12.5 5.5h-295q-8 0 -13.5 5.5t-5.5 12.5v56q0 7 5.5 12.5t13.5 5.5h399q8 0 13.5 -5.5t5.5 -12.5 v-275q0 -6 -6 -12t-13 -6h-295q-7 0 -12.5 -5.5t-5.5 -13.5v-88q0 -7 5 -12.5t13 -5.5h295q7 0 13 -5.5t6 -13.5v-55q0 -7 -5.5 -12.5t-13.5 -5.5h-399q-8 0 -13.5 5.5t-5.5 12.5z" />
<glyph unicode="&#xbe;" d="M37 43v55q0 8 5.5 13.5t12.5 5.5h164q6 0 12.5 5.5t6.5 12.5v635q0 8 5 13t13 5h369q6 0 12 6.5t6 12.5v637q0 7 5.5 12.5t13.5 5.5h266q8 0 13 -5t5 -13v-55q0 -8 -5.5 -13.5t-12.5 -5.5h-162q-8 0 -13 -5t-5 -13v-637q0 -6 -6.5 -12.5t-12.5 -6.5h-369q-8 0 -13 -5 t-5 -13v-635q0 -7 -6 -12.5t-12 -5.5h-269q-7 0 -12.5 5.5t-5.5 12.5zM61 952v56q0 7 5.5 12.5t13.5 5.5h295q7 0 12.5 5t5.5 13v89q0 7 -5.5 12.5t-12.5 5.5h-295q-7 0 -13 6t-6 12v56q0 7 5.5 12.5t13.5 5.5h295q7 0 12.5 -5.5t5.5 -12.5v127q0 8 -5.5 13t-12.5 5h-295 q-8 0 -13.5 6t-5.5 13v55q0 7 5.5 12.5t13.5 5.5h399q8 0 13.5 -5.5t5.5 -12.5v-492q0 -7 -5.5 -12.5t-13.5 -5.5h-399q-8 0 -13.5 5.5t-5.5 12.5zM485 260v275q0 7 5.5 12.5t13.5 5.5h67q8 0 13.5 -5.5t5.5 -12.5v-183q0 -6 5.5 -12t12.5 -6h191q7 0 12.5 -5.5t5.5 -13.5 v220q0 7 5.5 12.5t13.5 5.5h67q8 0 13.5 -5.5t5.5 -12.5v-492q0 -7 -5.5 -12.5t-13.5 -5.5h-65q-9 0 -15 5t-6 13v180q0 8 -5.5 13.5t-12.5 5.5h-295q-7 0 -13 6t-6 12z" />
<glyph unicode="&#xbf;" d="M25 43v719q0 8 5.5 13t12.5 5h379q7 0 12.5 5.5t5.5 13.5v301q0 7 5.5 12.5t13.5 5.5h67q8 0 13.5 -5.5t5.5 -12.5v-393q0 -7 -5.5 -13t-13.5 -6h-379q-7 0 -12.5 -5t-5.5 -13v-535q0 -7 5.5 -12.5t12.5 -5.5h793q7 0 12.5 -5.5t5.5 -13.5v-55q0 -7 -5 -12.5t-13 -5.5 h-897q-7 0 -12.5 5.5t-5.5 12.5zM418 1296v148q0 8 5 13t13 5h111q7 0 12.5 -5t5.5 -13v-148q0 -8 -5.5 -13t-12.5 -5h-111q-8 0 -13 5t-5 13z" />
<glyph unicode="&#xc0;" d="M25 43v1401q0 8 5.5 13t12.5 5h897q8 0 13 -5t5 -13v-1401q0 -7 -5 -12.5t-13 -5.5h-68q-8 0 -13 5.5t-5 12.5v1309q0 8 -5 13t-13 5h-689q-7 0 -12.5 -5t-5.5 -13v-424q0 8 5.5 13t12.5 5h570q6 0 12 -5.5t6 -12.5v-56q0 -7 -6 -12.5t-12 -5.5h-570q-7 0 -12.5 -5 t-5.5 -13v-793q0 -7 -5.5 -12.5t-12.5 -5.5h-68q-7 0 -12.5 5.5t-5.5 12.5zM362 1599v74q0 7 6 13t13 6h117q8 0 13 5t5 13v115q0 6 6 12t13 6h67q7 0 13 -6t6 -12v-226q0 -7 -5.5 -12.5t-13.5 -5.5h-221q-8 0 -13.5 5.5t-5.5 12.5z" />
<glyph unicode="&#xc1;" d="M25 43v1401q0 8 5.5 13t12.5 5h897q8 0 13 -5t5 -13v-1401q0 -7 -5 -12.5t-13 -5.5h-68q-8 0 -13 5.5t-5 12.5v1309q0 8 -5 13t-13 5h-689q-7 0 -12.5 -5t-5.5 -13v-424q0 8 5.5 13t12.5 5h570q6 0 12 -5.5t6 -12.5v-56q0 -7 -6 -12.5t-12 -5.5h-570q-7 0 -12.5 -5 t-5.5 -13v-793q0 -7 -5.5 -12.5t-12.5 -5.5h-68q-7 0 -12.5 5.5t-5.5 12.5zM362 1599v74q0 7 6 13t13 6h117q8 0 13 5t5 13v115q0 6 6 12t13 6h67q7 0 13 -6t6 -12v-226q0 -7 -5.5 -12.5t-13.5 -5.5h-221q-8 0 -13.5 5.5t-5.5 12.5z" />
<glyph unicode="&#xc2;" d="M25 43v1401q0 8 5.5 13t12.5 5h897q8 0 13 -5t5 -13v-1401q0 -7 -5 -12.5t-13 -5.5h-68q-8 0 -13 5.5t-5 12.5v1309q0 8 -5 13t-13 5h-689q-7 0 -12.5 -5t-5.5 -13v-424q0 8 5.5 13t12.5 5h570q6 0 12 -5.5t6 -12.5v-56q0 -7 -6 -12.5t-12 -5.5h-570q-7 0 -12.5 -5 t-5.5 -13v-793q0 -7 -5.5 -12.5t-12.5 -5.5h-68q-7 0 -12.5 5.5t-5.5 12.5zM219 1597v68q0 7 5.5 12.5t13.5 5.5h57q7 0 12.5 6.5t5.5 12.5v123q0 7 5.5 12.5t13.5 5.5h319q8 0 13.5 -5.5t5.5 -12.5v-123q0 -6 5.5 -12.5t12.5 -6.5h60q6 0 12 -5.5t6 -12.5v-68q0 -6 -6 -12 t-12 -6h-164q-7 0 -13 6t-6 12v123q0 8 -5.5 13.5t-12.5 5.5h-111q-7 0 -12.5 -5.5t-5.5 -13.5v-123q0 -6 -6 -12t-13 -6h-161q-7 0 -13 6t-6 12z" />
<glyph unicode="&#xc3;" d="M25 43v1401q0 8 5.5 13t12.5 5h897q8 0 13 -5t5 -13v-1401q0 -7 -5 -12.5t-13 -5.5h-68q-8 0 -13 5.5t-5 12.5v1309q0 8 -5 13t-13 5h-689q-7 0 -12.5 -5t-5.5 -13v-424q0 8 5.5 13t12.5 5h570q6 0 12 -5.5t6 -12.5v-56q0 -7 -6 -12.5t-12 -5.5h-570q-7 0 -12.5 -5 t-5.5 -13v-793q0 -7 -5.5 -12.5t-12.5 -5.5h-68q-7 0 -12.5 5.5t-5.5 12.5zM262 1599v68q0 6 6 12.5t13 6.5h141q6 0 12 5.5t6 12.5v123q0 6 6 12t13 6h246q6 0 12 -6t6 -12v-68q0 -7 -6 -12.5t-12 -5.5h-142q-7 0 -12.5 -6.5t-5.5 -12.5v-123q0 -7 -6.5 -12.5t-12.5 -5.5 h-245q-8 0 -13.5 5.5t-5.5 12.5z" />
<glyph unicode="&#xc4;" d="M25 43v1401q0 8 5.5 13t12.5 5h897q8 0 13 -5t5 -13v-1401q0 -7 -5 -12.5t-13 -5.5h-68q-8 0 -13 5.5t-5 12.5v1309q0 8 -5 13t-13 5h-689q-7 0 -12.5 -5t-5.5 -13v-424q0 8 5.5 13t12.5 5h570q6 0 12 -5.5t6 -12.5v-56q0 -7 -6 -12.5t-12 -5.5h-570q-7 0 -12.5 -5 t-5.5 -13v-793q0 -7 -5.5 -12.5t-12.5 -5.5h-68q-7 0 -12.5 5.5t-5.5 12.5zM307 1599v80q0 7 5.5 13t13.5 6h67q7 0 13 -6t6 -13v-80q0 -7 -5.5 -12.5t-13.5 -5.5h-67q-8 0 -13.5 5.5t-5.5 12.5zM571 1599v80q0 7 5.5 13t13.5 6h67q7 0 13 -6t6 -13v-80q0 -7 -5.5 -12.5 t-13.5 -5.5h-67q-8 0 -13.5 5.5t-5.5 12.5z" />
<glyph unicode="&#xc5;" d="M25 43v1401q0 8 5.5 13t12.5 5h897q8 0 13 -5t5 -13v-1401q0 -7 -5 -12.5t-13 -5.5h-68q-8 0 -13 5.5t-5 12.5v1309q0 8 -5 13t-13 5h-689q-7 0 -12.5 -5t-5.5 -13v-424q0 8 5.5 13t12.5 5h570q6 0 12 -5.5t6 -12.5v-56q0 -7 -6 -12.5t-12 -5.5h-570q-7 0 -12.5 -5 t-5.5 -13v-793q0 -7 -5.5 -12.5t-12.5 -5.5h-68q-7 0 -12.5 5.5t-5.5 12.5zM342 1599v265q0 8 5 13t13 5h265q6 0 12 -5.5t6 -12.5v-265q0 -7 -6 -12.5t-12 -5.5h-265q-8 0 -13 5.5t-5 12.5zM416 1673q0 -7 5 -12.5t13 -5.5h117q6 0 12 5.5t6 12.5v117q0 7 -6 12.5t-12 5.5 h-117q-8 0 -13 -5t-5 -13v-117z" />
<glyph unicode="&#xc6;" d="M25 43v1401q0 8 5.5 13t12.5 5h895q8 0 13 -5t5 -13v-55q0 -8 -5.5 -13.5t-12.5 -5.5h-309q-8 0 -13.5 -5.5t-5.5 -12.5v-424q0 7 5.5 12.5t13.5 5.5h309q8 0 13 -5t5 -13v-56q0 -8 -5 -13t-13 -5h-309q-8 0 -13.5 -5.5t-5.5 -12.5v-701q0 -7 5.5 -12.5t13.5 -5.5h309 q7 0 12.5 -5.5t5.5 -13.5v-55q0 -7 -5 -12.5t-13 -5.5h-414q-8 0 -13 5.5t-5 12.5v1309q0 8 5 13t13 5h-377q-7 0 -12.5 -5t-5.5 -13v-424q0 8 5.5 13t12.5 5h220q7 0 12.5 -5t5.5 -13v-56q0 -8 -5.5 -13t-12.5 -5h-220q-7 0 -12.5 -5t-5.5 -13v-793q0 -7 -5.5 -12.5 t-12.5 -5.5h-68q-7 0 -12.5 5.5t-5.5 12.5z" />
<glyph unicode="&#xc7;" d="M25 43v1401q0 8 5.5 13t12.5 5h897q8 0 13 -5t5 -13v-55q0 -8 -5.5 -13.5t-12.5 -5.5h-793q-7 0 -12.5 -5t-5.5 -13v-1217q0 -7 5.5 -12.5t12.5 -5.5h793q7 0 12.5 -5.5t5.5 -13.5v-55q0 -7 -5 -12.5t-13 -5.5h-897q-7 0 -12.5 5.5t-5.5 12.5zM74 -420q0 8 5.5 13.5 t12.5 5.5h404q6 0 12 5.5t6 12.5v297q0 8 5 13t13 5h68q6 0 12 -5.5t6 -12.5v-401q0 -7 -6 -13t-12 -6h-508q-7 0 -12.5 5.5t-5.5 13.5v67z" />
<glyph unicode="&#xc8;" d="M25 43v1401q0 8 5.5 13t12.5 5h897q8 0 13 -5t5 -13v-55q0 -8 -5.5 -13.5t-12.5 -5.5h-793q-7 0 -12.5 -5t-5.5 -13v-424q0 8 5.5 13t12.5 5h570q6 0 12 -5.5t6 -12.5v-56q0 -7 -6 -12.5t-12 -5.5h-570q-7 0 -12.5 -5t-5.5 -13v-701q0 -7 5.5 -12.5t12.5 -5.5h793 q7 0 12.5 -5.5t5.5 -13.5v-55q0 -7 -5 -12.5t-13 -5.5h-897q-7 0 -12.5 5.5t-5.5 12.5zM362 1599v74q0 7 6 13t13 6h117q8 0 13 5t5 13v115q0 6 6 12t13 6h67q7 0 13 -6t6 -12v-226q0 -7 -5.5 -12.5t-13.5 -5.5h-221q-8 0 -13.5 5.5t-5.5 12.5z" />
<glyph unicode="&#xc9;" d="M25 43v1401q0 8 5.5 13t12.5 5h897q8 0 13 -5t5 -13v-55q0 -8 -5.5 -13.5t-12.5 -5.5h-793q-7 0 -12.5 -5t-5.5 -13v-424q0 8 5.5 13t12.5 5h570q6 0 12 -5.5t6 -12.5v-56q0 -7 -6 -12.5t-12 -5.5h-570q-7 0 -12.5 -5t-5.5 -13v-701q0 -7 5.5 -12.5t12.5 -5.5h793 q7 0 12.5 -5.5t5.5 -13.5v-55q0 -7 -5 -12.5t-13 -5.5h-897q-7 0 -12.5 5.5t-5.5 12.5zM362 1599v74q0 7 6 13t13 6h117q8 0 13 5t5 13v115q0 6 6 12t13 6h67q7 0 13 -6t6 -12v-226q0 -7 -5.5 -12.5t-13.5 -5.5h-221q-8 0 -13.5 5.5t-5.5 12.5z" />
<glyph unicode="&#xca;" d="M25 43v1401q0 8 5.5 13t12.5 5h897q8 0 13 -5t5 -13v-55q0 -8 -5.5 -13.5t-12.5 -5.5h-793q-7 0 -12.5 -5t-5.5 -13v-424q0 8 5.5 13t12.5 5h570q6 0 12 -5.5t6 -12.5v-56q0 -7 -6 -12.5t-12 -5.5h-570q-7 0 -12.5 -5t-5.5 -13v-701q0 -7 5.5 -12.5t12.5 -5.5h793 q7 0 12.5 -5.5t5.5 -13.5v-55q0 -7 -5 -12.5t-13 -5.5h-897q-7 0 -12.5 5.5t-5.5 12.5zM219 1597v68q0 7 5.5 12.5t13.5 5.5h57q7 0 12.5 6.5t5.5 12.5v123q0 7 5.5 12.5t13.5 5.5h319q8 0 13.5 -5.5t5.5 -12.5v-123q0 -6 5.5 -12.5t12.5 -6.5h60q6 0 12 -5.5t6 -12.5v-68 q0 -6 -6 -12t-12 -6h-164q-7 0 -13 6t-6 12v123q0 8 -5.5 13.5t-12.5 5.5h-111q-7 0 -12.5 -5.5t-5.5 -13.5v-123q0 -6 -6 -12t-13 -6h-161q-7 0 -13 6t-6 12z" />
<glyph unicode="&#xcb;" d="M25 43v1401q0 8 5.5 13t12.5 5h897q8 0 13 -5t5 -13v-55q0 -8 -5.5 -13.5t-12.5 -5.5h-793q-7 0 -12.5 -5t-5.5 -13v-424q0 8 5.5 13t12.5 5h570q6 0 12 -5.5t6 -12.5v-56q0 -7 -6 -12.5t-12 -5.5h-570q-7 0 -12.5 -5t-5.5 -13v-701q0 -7 5.5 -12.5t12.5 -5.5h793 q7 0 12.5 -5.5t5.5 -13.5v-55q0 -7 -5 -12.5t-13 -5.5h-897q-7 0 -12.5 5.5t-5.5 12.5zM307 1599v80q0 7 5.5 13t13.5 6h67q7 0 13 -6t6 -13v-80q0 -7 -5.5 -12.5t-13.5 -5.5h-67q-8 0 -13.5 5.5t-5.5 12.5zM571 1599v80q0 7 5.5 13t13.5 6h67q7 0 13 -6t6 -13v-80 q0 -7 -5.5 -12.5t-13.5 -5.5h-67q-8 0 -13.5 5.5t-5.5 12.5z" />
<glyph unicode="&#xcc;" d="M25 43v55q0 8 5.5 13.5t12.5 5.5h379q6 0 12 5.5t6 12.5v1217q0 7 5.5 12.5t13.5 5.5h-416q-7 0 -12.5 5.5t-5.5 13.5v55q0 8 5.5 13t12.5 5h897q8 0 13 -5t5 -13v-55q0 -8 -5.5 -13.5t-12.5 -5.5h-377q-7 0 -12.5 -5t-5.5 -13v-1217q0 -7 -6.5 -12.5t-12.5 -5.5h414 q7 0 12.5 -5.5t5.5 -13.5v-55q0 -7 -5 -12.5t-13 -5.5h-897q-7 0 -12.5 5.5t-5.5 12.5zM362 1599v74q0 7 6 13t13 6h117q8 0 13 5t5 13v115q0 6 6 12t13 6h67q7 0 13 -6t6 -12v-226q0 -7 -5.5 -12.5t-13.5 -5.5h-221q-8 0 -13.5 5.5t-5.5 12.5z" />
<glyph unicode="&#xcd;" d="M25 43v55q0 8 5.5 13.5t12.5 5.5h379q6 0 12 5.5t6 12.5v1217q0 7 5.5 12.5t13.5 5.5h-416q-7 0 -12.5 5.5t-5.5 13.5v55q0 8 5.5 13t12.5 5h897q8 0 13 -5t5 -13v-55q0 -8 -5.5 -13.5t-12.5 -5.5h-377q-7 0 -12.5 -5t-5.5 -13v-1217q0 -7 -6.5 -12.5t-12.5 -5.5h414 q7 0 12.5 -5.5t5.5 -13.5v-55q0 -7 -5 -12.5t-13 -5.5h-897q-7 0 -12.5 5.5t-5.5 12.5zM362 1599v74q0 7 6 13t13 6h117q8 0 13 5t5 13v115q0 6 6 12t13 6h67q7 0 13 -6t6 -12v-226q0 -7 -5.5 -12.5t-13.5 -5.5h-221q-8 0 -13.5 5.5t-5.5 12.5z" />
<glyph unicode="&#xce;" d="M25 43v55q0 8 5.5 13.5t12.5 5.5h379q6 0 12 5.5t6 12.5v1217q0 7 5.5 12.5t13.5 5.5h-416q-7 0 -12.5 5.5t-5.5 13.5v55q0 8 5.5 13t12.5 5h897q8 0 13 -5t5 -13v-55q0 -8 -5.5 -13.5t-12.5 -5.5h-377q-7 0 -12.5 -5t-5.5 -13v-1217q0 -7 -6.5 -12.5t-12.5 -5.5h414 q7 0 12.5 -5.5t5.5 -13.5v-55q0 -7 -5 -12.5t-13 -5.5h-897q-7 0 -12.5 5.5t-5.5 12.5zM219 1597v68q0 7 5.5 12.5t13.5 5.5h57q7 0 12.5 6.5t5.5 12.5v123q0 7 5.5 12.5t13.5 5.5h319q8 0 13.5 -5.5t5.5 -12.5v-123q0 -6 5.5 -12.5t12.5 -6.5h60q6 0 12 -5.5t6 -12.5v-68 q0 -6 -6 -12t-12 -6h-164q-7 0 -13 6t-6 12v123q0 8 -5.5 13.5t-12.5 5.5h-111q-7 0 -12.5 -5.5t-5.5 -13.5v-123q0 -6 -6 -12t-13 -6h-161q-7 0 -13 6t-6 12z" />
<glyph unicode="&#xcf;" d="M25 43v55q0 8 5.5 13.5t12.5 5.5h379q6 0 12 5.5t6 12.5v1217q0 7 5.5 12.5t13.5 5.5h-416q-7 0 -12.5 5.5t-5.5 13.5v55q0 8 5.5 13t12.5 5h897q8 0 13 -5t5 -13v-55q0 -8 -5.5 -13.5t-12.5 -5.5h-377q-7 0 -12.5 -5t-5.5 -13v-1217q0 -7 -6.5 -12.5t-12.5 -5.5h414 q7 0 12.5 -5.5t5.5 -13.5v-55q0 -7 -5 -12.5t-13 -5.5h-897q-7 0 -12.5 5.5t-5.5 12.5zM307 1599v80q0 7 5.5 13t13.5 6h67q7 0 13 -6t6 -13v-80q0 -7 -5.5 -12.5t-13.5 -5.5h-67q-8 0 -13.5 5.5t-5.5 12.5zM571 1599v80q0 7 5.5 13t13.5 6h67q7 0 13 -6t6 -13v-80 q0 -7 -5.5 -12.5t-13.5 -5.5h-67q-8 0 -13.5 5.5t-5.5 12.5z" />
<glyph unicode="&#xd0;" d="M-47 874v56q0 8 5.5 13t12.5 5h35q7 0 13 6.5t6 12.5v477q0 8 5.5 13t12.5 5h897q8 0 13 -5t5 -13v-1401q0 -7 -5 -12.5t-13 -5.5h-897q-7 0 -12.5 5.5t-5.5 12.5v592q0 7 5.5 12.5t12.5 5.5h68q7 0 12.5 -5.5t5.5 -12.5v-500q0 -7 5.5 -12.5t12.5 -5.5h689q8 0 13 5.5 t5 12.5v1217q0 8 -5 13t-13 5h-689q-7 0 -12.5 -5t-5.5 -13v-385q0 -6 5.5 -12.5t12.5 -6.5h172q8 0 13.5 -5.5t5.5 -12.5v-56q0 -6 -6 -12t-13 -6h-348q-7 0 -12.5 6t-5.5 12z" />
<glyph unicode="&#xd1;" d="M25 43v1401q0 8 5.5 13t12.5 5h483q6 0 12.5 -5.5t6.5 -12.5v-1309q0 -7 5.5 -12.5t12.5 -5.5h273q8 0 13 5.5t5 12.5v1309q0 8 5 13t13 5h68q8 0 13 -5t5 -13v-1401q0 -7 -5 -12.5t-13 -5.5h-481q-8 0 -13.5 5.5t-5.5 12.5v1309q0 7 -6 12.5t-12 5.5h-275q-7 0 -12.5 -5 t-5.5 -13v-1309q0 -7 -5.5 -12.5t-12.5 -5.5h-68q-7 0 -12.5 5.5t-5.5 12.5zM262 1599v68q0 6 6 12.5t13 6.5h141q6 0 12 5.5t6 12.5v123q0 6 6 12t13 6h246q6 0 12 -6t6 -12v-68q0 -7 -6 -12.5t-12 -5.5h-142q-7 0 -12.5 -6.5t-5.5 -12.5v-123q0 -7 -6.5 -12.5t-12.5 -5.5 h-245q-8 0 -13.5 5.5t-5.5 12.5z" />
<glyph unicode="&#xd2;" d="M25 43v1401q0 8 5.5 13t12.5 5h897q8 0 13 -5t5 -13v-1401q0 -7 -5 -12.5t-13 -5.5h-897q-7 0 -12.5 5.5t-5.5 12.5zM129 135q0 -7 5.5 -12.5t12.5 -5.5h689q8 0 13 5.5t5 12.5v1217q0 8 -5 13t-13 5h-689q-7 0 -12.5 -5t-5.5 -13v-1217zM362 1599v74q0 7 6 13t13 6h117 q8 0 13 5t5 13v115q0 6 6 12t13 6h67q7 0 13 -6t6 -12v-226q0 -7 -5.5 -12.5t-13.5 -5.5h-221q-8 0 -13.5 5.5t-5.5 12.5z" />
<glyph unicode="&#xd3;" d="M25 43v1401q0 8 5.5 13t12.5 5h897q8 0 13 -5t5 -13v-1401q0 -7 -5 -12.5t-13 -5.5h-897q-7 0 -12.5 5.5t-5.5 12.5zM129 135q0 -7 5.5 -12.5t12.5 -5.5h689q8 0 13 5.5t5 12.5v1217q0 8 -5 13t-13 5h-689q-7 0 -12.5 -5t-5.5 -13v-1217zM362 1599v74q0 7 6 13t13 6h117 q8 0 13 5t5 13v115q0 6 6 12t13 6h67q7 0 13 -6t6 -12v-226q0 -7 -5.5 -12.5t-13.5 -5.5h-221q-8 0 -13.5 5.5t-5.5 12.5z" />
<glyph unicode="&#xd4;" d="M25 43v1401q0 8 5.5 13t12.5 5h897q8 0 13 -5t5 -13v-1401q0 -7 -5 -12.5t-13 -5.5h-897q-7 0 -12.5 5.5t-5.5 12.5zM129 135q0 -7 5.5 -12.5t12.5 -5.5h689q8 0 13 5.5t5 12.5v1217q0 8 -5 13t-13 5h-689q-7 0 -12.5 -5t-5.5 -13v-1217zM219 1597v68q0 7 5.5 12.5 t13.5 5.5h57q7 0 12.5 6.5t5.5 12.5v123q0 7 5.5 12.5t13.5 5.5h319q8 0 13.5 -5.5t5.5 -12.5v-123q0 -6 5.5 -12.5t12.5 -6.5h60q6 0 12 -5.5t6 -12.5v-68q0 -6 -6 -12t-12 -6h-164q-7 0 -13 6t-6 12v123q0 8 -5.5 13.5t-12.5 5.5h-111q-7 0 -12.5 -5.5t-5.5 -13.5v-123 q0 -6 -6 -12t-13 -6h-161q-7 0 -13 6t-6 12z" />
<glyph unicode="&#xd5;" d="M25 43v1401q0 8 5.5 13t12.5 5h897q8 0 13 -5t5 -13v-1401q0 -7 -5 -12.5t-13 -5.5h-897q-7 0 -12.5 5.5t-5.5 12.5zM129 135q0 -7 5.5 -12.5t12.5 -5.5h689q8 0 13 5.5t5 12.5v1217q0 8 -5 13t-13 5h-689q-7 0 -12.5 -5t-5.5 -13v-1217zM262 1599v68q0 6 6 12.5t13 6.5 h141q6 0 12 5.5t6 12.5v123q0 6 6 12t13 6h246q6 0 12 -6t6 -12v-68q0 -7 -6 -12.5t-12 -5.5h-142q-7 0 -12.5 -6.5t-5.5 -12.5v-123q0 -7 -6.5 -12.5t-12.5 -5.5h-245q-8 0 -13.5 5.5t-5.5 12.5z" />
<glyph unicode="&#xd6;" d="M25 43v1401q0 8 5.5 13t12.5 5h897q8 0 13 -5t5 -13v-1401q0 -7 -5 -12.5t-13 -5.5h-897q-7 0 -12.5 5.5t-5.5 12.5zM129 135q0 -7 5.5 -12.5t12.5 -5.5h689q8 0 13 5.5t5 12.5v1217q0 8 -5 13t-13 5h-689q-7 0 -12.5 -5t-5.5 -13v-1217zM307 1599v80q0 7 5.5 13t13.5 6 h67q7 0 13 -6t6 -13v-80q0 -7 -5.5 -12.5t-13.5 -5.5h-67q-8 0 -13.5 5.5t-5.5 12.5zM571 1599v80q0 7 5.5 13t13.5 6h67q7 0 13 -6t6 -13v-80q0 -7 -5.5 -12.5t-13.5 -5.5h-67q-8 0 -13.5 5.5t-5.5 12.5z" />
<glyph unicode="&#xd7;" d="M25 459v55q0 8 5.5 13t12.5 5h377q8 0 13 -5t5 -13v166q0 8 -5 13t-13 5h-287q-7 0 -12.5 5.5t-5.5 13.5v211q0 8 5.5 13t12.5 5h68q6 0 12 -5.5t6 -12.5v-119q0 -7 5.5 -12.5t13.5 -5.5h286q8 0 13.5 -5.5t5.5 -13.5v-221q0 -8 5.5 -13.5t12.5 -5.5h379q8 0 13 -5t5 -13 v-55q0 -8 -5.5 -13.5t-12.5 -5.5h-379q-7 0 -12.5 5.5t-5.5 13.5v-166q0 -8 5.5 -13.5t12.5 -5.5h291q6 0 12 -5.5t6 -12.5v-213q0 -7 -6 -12.5t-12 -5.5h-68q-8 0 -13 5.5t-5 12.5v121q0 7 -6 12.5t-12 5.5h-291q-7 0 -13 6t-6 13v221q0 8 -5 13t-13 5h-377q-7 0 -12.5 5.5 t-5.5 13.5z" />
<glyph unicode="&#xd8;" d="M25 43v55q0 8 5.5 13.5t12.5 5.5h111q-8 0 -13.5 5.5t-5.5 12.5v1309q0 7 5.5 12.5t13.5 5.5h786q8 0 13 -5t5 -13v-55q0 -8 -5.5 -13.5t-12.5 -5.5h-111q8 0 13.5 -5.5t5.5 -12.5v-1309q0 -7 -5.5 -12.5t-13.5 -5.5h-786q-7 0 -12.5 5.5t-5.5 12.5zM240 135 q0 -7 5 -12.5t13 -5.5h467q7 0 12.5 5.5t5.5 12.5v580q0 -6 -5.5 -12.5t-12.5 -6.5h-467q-8 0 -13 -5t-5 -13v-543zM240 770q0 8 5 13t13 5h467q7 0 12.5 6.5t5.5 12.5v545q0 8 -5.5 13t-12.5 5h-467q-8 0 -13 -5t-5 -13v-582z" />
<glyph unicode="&#xd9;" d="M25 43v1401q0 8 5.5 13t12.5 5h68q7 0 12.5 -5t5.5 -13v-1309q0 -7 5.5 -12.5t12.5 -5.5h689q8 0 13 5.5t5 12.5v1309q0 8 5 13t13 5h68q8 0 13 -5t5 -13v-1401q0 -7 -5 -12.5t-13 -5.5h-897q-7 0 -12.5 5.5t-5.5 12.5zM362 1599v74q0 7 6 13t13 6h117q8 0 13 5t5 13v115 q0 6 6 12t13 6h67q7 0 13 -6t6 -12v-226q0 -7 -5.5 -12.5t-13.5 -5.5h-221q-8 0 -13.5 5.5t-5.5 12.5z" />
<glyph unicode="&#xda;" d="M25 43v1401q0 8 5.5 13t12.5 5h68q7 0 12.5 -5t5.5 -13v-1309q0 -7 5.5 -12.5t12.5 -5.5h689q8 0 13 5.5t5 12.5v1309q0 8 5 13t13 5h68q8 0 13 -5t5 -13v-1401q0 -7 -5 -12.5t-13 -5.5h-897q-7 0 -12.5 5.5t-5.5 12.5zM362 1599v74q0 7 6 13t13 6h117q8 0 13 5t5 13v115 q0 6 6 12t13 6h67q7 0 13 -6t6 -12v-226q0 -7 -5.5 -12.5t-13.5 -5.5h-221q-8 0 -13.5 5.5t-5.5 12.5z" />
<glyph unicode="&#xdb;" d="M25 43v1401q0 8 5.5 13t12.5 5h68q7 0 12.5 -5t5.5 -13v-1309q0 -7 5.5 -12.5t12.5 -5.5h689q8 0 13 5.5t5 12.5v1309q0 8 5 13t13 5h68q8 0 13 -5t5 -13v-1401q0 -7 -5 -12.5t-13 -5.5h-897q-7 0 -12.5 5.5t-5.5 12.5zM219 1597v68q0 7 5.5 12.5t13.5 5.5h57 q7 0 12.5 6.5t5.5 12.5v123q0 7 5.5 12.5t13.5 5.5h319q8 0 13.5 -5.5t5.5 -12.5v-123q0 -6 5.5 -12.5t12.5 -6.5h60q6 0 12 -5.5t6 -12.5v-68q0 -6 -6 -12t-12 -6h-164q-7 0 -13 6t-6 12v123q0 8 -5.5 13.5t-12.5 5.5h-111q-7 0 -12.5 -5.5t-5.5 -13.5v-123q0 -6 -6 -12 t-13 -6h-161q-7 0 -13 6t-6 12z" />
<glyph unicode="&#xdc;" d="M25 43v1401q0 8 5.5 13t12.5 5h68q7 0 12.5 -5t5.5 -13v-1309q0 -7 5.5 -12.5t12.5 -5.5h689q8 0 13 5.5t5 12.5v1309q0 8 5 13t13 5h68q8 0 13 -5t5 -13v-1401q0 -7 -5 -12.5t-13 -5.5h-897q-7 0 -12.5 5.5t-5.5 12.5zM307 1599v80q0 7 5.5 13t13.5 6h67q7 0 13 -6 t6 -13v-80q0 -7 -5.5 -12.5t-13.5 -5.5h-67q-8 0 -13.5 5.5t-5.5 12.5zM571 1599v80q0 7 5.5 13t13.5 6h67q7 0 13 -6t6 -13v-80q0 -7 -5.5 -12.5t-13.5 -5.5h-67q-8 0 -13.5 5.5t-5.5 12.5z" />
<glyph unicode="&#xdd;" d="M25 872v572q0 8 5.5 13t12.5 5h68q7 0 12.5 -5t5.5 -13v-479q0 -8 5.5 -13.5t12.5 -5.5h689q7 0 12.5 5.5t5.5 13.5v479q0 8 5 13t13 5h68q8 0 13 -5t5 -13v-572q0 -8 -5 -13t-13 -5h-414q6 0 12.5 -5.5t6.5 -12.5v-793q0 -7 -6.5 -12.5t-12.5 -5.5h-67q-8 0 -13.5 5.5 t-5.5 12.5v793q0 7 -6 12.5t-12 5.5h-379q-7 0 -12.5 5t-5.5 13zM362 1599v74q0 7 6 13t13 6h117q8 0 13 5t5 13v115q0 6 6 12t13 6h67q7 0 13 -6t6 -12v-226q0 -7 -5.5 -12.5t-13.5 -5.5h-221q-8 0 -13.5 5.5t-5.5 12.5z" />
<glyph unicode="&#xde;" d="M25 43v1438q0 7 5.5 12.5t12.5 5.5h68q7 0 12.5 -5.5t5.5 -12.5v-412q0 7 5.5 12.5t12.5 5.5h793q8 0 13 -5.5t5 -12.5v-614q0 -8 -5.5 -13.5t-12.5 -5.5h-793q-7 0 -12.5 5.5t-5.5 13.5v-412q0 -7 -5.5 -12.5t-12.5 -5.5h-68q-7 0 -12.5 5.5t-5.5 12.5zM129 547 q0 -8 5.5 -13.5t12.5 -5.5h689q7 0 12.5 5.5t5.5 13.5v430q0 7 -5 12.5t-13 5.5h-689q-7 0 -12.5 -5.5t-5.5 -12.5v-430z" />
<glyph unicode="&#xdf;" d="M25 43v1401q0 8 5.5 13t12.5 5h823q8 0 13.5 -5.5t5.5 -12.5v-314q0 -7 -5.5 -12.5t-13.5 -5.5h-469q-7 0 -12.5 -5t-5.5 -13v-129q0 -8 5.5 -13.5t12.5 -5.5h545q8 0 13.5 -5.5t5.5 -12.5v-885q0 -7 -5.5 -12.5t-13.5 -5.5h-684q-8 0 -13 5.5t-5 12.5v55q0 8 5.5 13.5 t12.5 5.5h576q8 0 13 5.5t5 12.5v701q0 8 -5 13t-13 5h-541q-8 0 -13.5 5.5t-5.5 12.5v314q0 7 5.5 12.5t13.5 5.5h469q7 0 12.5 5.5t5.5 13.5v129q0 8 -5 13t-13 5h-615q-7 0 -12.5 -5t-5.5 -13v-1309q0 -7 -5.5 -12.5t-12.5 -5.5h-68q-7 0 -12.5 5.5t-5.5 12.5z" />
<glyph unicode="&#xe0;" d="M25 43v590q0 7 5.5 12.5t12.5 5.5h674q6 0 12 -5.5t6 -12.5v-55q0 -7 -6 -13t-12 -6h-570q-7 0 -12.5 -5.5t-5.5 -12.5v-406q0 -7 5.5 -12.5t12.5 -5.5h689q8 0 13 5.5t5 12.5v701q0 8 -5 13t-13 5h-793q-7 0 -12.5 5t-5.5 13v56q0 8 5.5 13t12.5 5h897q8 0 13 -5t5 -13 v-885q0 -7 -5 -12.5t-13 -5.5h-897q-7 0 -12.5 5.5t-5.5 12.5zM362 1219v225q0 7 5.5 12.5t13.5 5.5h68q7 0 12.5 -5t5.5 -13v-115q0 -6 5.5 -12t12.5 -6h117q8 0 13.5 -5.5t5.5 -13.5v-73q0 -6 -6 -12.5t-13 -6.5h-221q-7 0 -13 6.5t-6 12.5z" />
<glyph unicode="&#xe1;" d="M25 43v590q0 7 5.5 12.5t12.5 5.5h674q6 0 12 -5.5t6 -12.5v-55q0 -7 -6 -13t-12 -6h-570q-7 0 -12.5 -5.5t-5.5 -12.5v-406q0 -7 5.5 -12.5t12.5 -5.5h689q8 0 13 5.5t5 12.5v701q0 8 -5 13t-13 5h-793q-7 0 -12.5 5t-5.5 13v56q0 8 5.5 13t12.5 5h897q8 0 13 -5t5 -13 v-885q0 -7 -5 -12.5t-13 -5.5h-897q-7 0 -12.5 5.5t-5.5 12.5zM362 1219v73q0 8 6 13.5t13 5.5h117q7 0 12.5 6t5.5 12v115q0 7 5.5 12.5t13.5 5.5h67q8 0 13.5 -5.5t5.5 -12.5v-225q0 -6 -6 -12.5t-13 -6.5h-221q-7 0 -13 6.5t-6 12.5z" />
<glyph unicode="&#xe2;" d="M25 43v590q0 7 5.5 12.5t12.5 5.5h674q6 0 12 -5.5t6 -12.5v-55q0 -7 -6 -13t-12 -6h-570q-7 0 -12.5 -5.5t-5.5 -12.5v-406q0 -7 5.5 -12.5t12.5 -5.5h689q8 0 13 5.5t5 12.5v701q0 8 -5 13t-13 5h-793q-7 0 -12.5 5t-5.5 13v56q0 8 5.5 13t12.5 5h897q8 0 13 -5t5 -13 v-885q0 -7 -5 -12.5t-13 -5.5h-897q-7 0 -12.5 5.5t-5.5 12.5zM219 1223v67q0 8 5.5 13.5t13.5 5.5h57q7 0 12.5 5.5t5.5 12.5v123q0 7 5.5 12.5t13.5 5.5h319q8 0 13.5 -5.5t5.5 -12.5v-123q0 -7 5 -12.5t13 -5.5h60q6 0 12 -6t6 -13v-67q0 -7 -6 -13t-12 -6h-164 q-8 0 -13.5 6t-5.5 13v123q0 8 -5.5 13t-12.5 5h-111q-8 0 -13 -5t-5 -13v-123q0 -7 -6 -13t-13 -6h-161q-8 0 -13.5 6t-5.5 13z" />
<glyph unicode="&#xe3;" d="M25 43v590q0 7 5.5 12.5t12.5 5.5h674q6 0 12 -5.5t6 -12.5v-55q0 -7 -6 -13t-12 -6h-570q-7 0 -12.5 -5.5t-5.5 -12.5v-406q0 -7 5.5 -12.5t12.5 -5.5h689q8 0 13 5.5t5 12.5v701q0 8 -5 13t-13 5h-793q-7 0 -12.5 5t-5.5 13v56q0 8 5.5 13t12.5 5h897q8 0 13 -5t5 -13 v-885q0 -7 -5 -12.5t-13 -5.5h-897q-7 0 -12.5 5.5t-5.5 12.5zM262 1223v67q0 8 6 13.5t13 5.5h141q6 0 12 5.5t6 12.5v123q0 7 5.5 12.5t13.5 5.5h246q6 0 12 -5.5t6 -12.5v-68q0 -7 -6 -12.5t-12 -5.5h-142q-7 0 -12.5 -5t-5.5 -13v-123q0 -7 -6.5 -13t-12.5 -6h-245 q-7 0 -13 6t-6 13z" />
<glyph unicode="&#xe4;" d="M25 43v590q0 7 5.5 12.5t12.5 5.5h674q6 0 12 -5.5t6 -12.5v-55q0 -7 -6 -13t-12 -6h-570q-7 0 -12.5 -5.5t-5.5 -12.5v-406q0 -7 5.5 -12.5t12.5 -5.5h689q8 0 13 5.5t5 12.5v701q0 8 -5 13t-13 5h-793q-7 0 -12.5 5t-5.5 13v56q0 8 5.5 13t12.5 5h897q8 0 13 -5t5 -13 v-885q0 -7 -5 -12.5t-13 -5.5h-897q-7 0 -12.5 5.5t-5.5 12.5zM307 1358v80q0 7 5.5 12.5t13.5 5.5h67q8 0 13.5 -5.5t5.5 -12.5v-80q0 -8 -6 -13.5t-13 -5.5h-67q-8 0 -13.5 5.5t-5.5 13.5zM571 1358v80q0 7 5.5 12.5t13.5 5.5h67q8 0 13.5 -5.5t5.5 -12.5v-80 q0 -8 -6 -13.5t-13 -5.5h-67q-8 0 -13.5 5.5t-5.5 13.5z" />
<glyph unicode="&#xe5;" d="M25 43v590q0 7 5.5 12.5t12.5 5.5h674q6 0 12 -5.5t6 -12.5v-55q0 -7 -6 -13t-12 -6h-570q-7 0 -12.5 -5.5t-5.5 -12.5v-406q0 -7 5.5 -12.5t12.5 -5.5h689q8 0 13 5.5t5 12.5v701q0 8 -5 13t-13 5h-793q-7 0 -12.5 5t-5.5 13v56q0 8 5.5 13t12.5 5h897q8 0 13 -5t5 -13 v-885q0 -7 -5 -12.5t-13 -5.5h-897q-7 0 -12.5 5.5t-5.5 12.5zM342 1180v264q0 8 5 13t13 5h265q6 0 12 -5.5t6 -12.5v-264q0 -7 -6 -13t-12 -6h-265q-7 0 -12.5 5.5t-5.5 13.5zM416 1253q0 -7 5 -12.5t13 -5.5h117q6 0 12 5.5t6 12.5v117q0 7 -6 13t-12 6h-117 q-7 0 -12.5 -5.5t-5.5 -13.5v-117z" />
<glyph unicode="&#xe6;" d="M25 43v590q0 7 5.5 12.5t12.5 5.5h297q8 0 13 -5.5t5 -12.5v-55q0 -8 -5.5 -13.5t-12.5 -5.5h-193q-7 0 -12.5 -5.5t-5.5 -12.5v-406q0 -7 5.5 -12.5t12.5 -5.5h351q-8 0 -13.5 5.5t-5.5 12.5v701q0 7 5.5 12.5t13.5 5.5h-455q-7 0 -12.5 5t-5.5 13v56q0 8 5.5 13t12.5 5 h897q8 0 13 -5t5 -13v-492q0 -8 -5 -13t-13 -5h-217q-7 0 -12.5 5t-5.5 13v56q0 8 5.5 13t12.5 5h113q8 0 13 5t5 13v308q0 8 -5 13t-13 5h-234q-8 0 -13 -5t-5 -13v-701q0 -7 5 -12.5t13 -5.5h338q7 0 12.5 -5.5t5.5 -13.5v-55q0 -7 -5 -12.5t-13 -5.5h-897q-7 0 -12.5 5.5 t-5.5 12.5z" />
<glyph unicode="&#xe7;" d="M25 43v885q0 8 5.5 13t12.5 5h897q8 0 13 -5t5 -13v-56q0 -8 -5 -13t-13 -5h-793q-7 0 -12.5 -5t-5.5 -13v-701q0 -7 5.5 -12.5t12.5 -5.5h793q7 0 12.5 -5.5t5.5 -13.5v-55q0 -7 -5 -12.5t-13 -5.5h-897q-7 0 -12.5 5.5t-5.5 12.5zM74 -420q0 8 5.5 13.5t12.5 5.5h404 q6 0 12 5.5t6 12.5v297q0 8 5 13t13 5h68q6 0 12 -5.5t6 -12.5v-401q0 -7 -6 -13t-12 -6h-508q-7 0 -12.5 5.5t-5.5 13.5v67z" />
<glyph unicode="&#xe8;" d="M25 43v885q0 8 5.5 13t12.5 5h897q8 0 13 -5t5 -13v-492q0 -8 -5 -13t-13 -5h-672q-8 0 -13 5t-5 13v58q0 8 5 13t13 5h568q8 0 13 5t5 13v306q0 8 -5 13t-13 5h-689q-7 0 -12.5 -5t-5.5 -13v-701q0 -7 5.5 -12.5t12.5 -5.5h793q7 0 12.5 -5.5t5.5 -13.5v-55 q0 -7 -5 -12.5t-13 -5.5h-897q-7 0 -12.5 5.5t-5.5 12.5zM362 1219v225q0 7 5.5 12.5t13.5 5.5h68q7 0 12.5 -5t5.5 -13v-115q0 -6 5.5 -12t12.5 -6h117q8 0 13.5 -5.5t5.5 -13.5v-73q0 -6 -6 -12.5t-13 -6.5h-221q-7 0 -13 6.5t-6 12.5z" />
<glyph unicode="&#xe9;" d="M25 43v885q0 8 5.5 13t12.5 5h897q8 0 13 -5t5 -13v-492q0 -8 -5 -13t-13 -5h-672q-8 0 -13 5t-5 13v58q0 8 5 13t13 5h568q8 0 13 5t5 13v306q0 8 -5 13t-13 5h-689q-7 0 -12.5 -5t-5.5 -13v-701q0 -7 5.5 -12.5t12.5 -5.5h793q7 0 12.5 -5.5t5.5 -13.5v-55 q0 -7 -5 -12.5t-13 -5.5h-897q-7 0 -12.5 5.5t-5.5 12.5zM362 1219v73q0 8 6 13.5t13 5.5h117q7 0 12.5 6t5.5 12v115q0 7 5.5 12.5t13.5 5.5h67q8 0 13.5 -5.5t5.5 -12.5v-225q0 -6 -6 -12.5t-13 -6.5h-221q-7 0 -13 6.5t-6 12.5z" />
<glyph unicode="&#xea;" d="M25 43v885q0 8 5.5 13t12.5 5h897q8 0 13 -5t5 -13v-492q0 -8 -5 -13t-13 -5h-672q-8 0 -13 5t-5 13v58q0 8 5 13t13 5h568q8 0 13 5t5 13v306q0 8 -5 13t-13 5h-689q-7 0 -12.5 -5t-5.5 -13v-701q0 -7 5.5 -12.5t12.5 -5.5h793q7 0 12.5 -5.5t5.5 -13.5v-55 q0 -7 -5 -12.5t-13 -5.5h-897q-7 0 -12.5 5.5t-5.5 12.5zM219 1223v67q0 8 5.5 13.5t13.5 5.5h57q7 0 12.5 5.5t5.5 12.5v123q0 7 5.5 12.5t13.5 5.5h319q8 0 13.5 -5.5t5.5 -12.5v-123q0 -7 5 -12.5t13 -5.5h60q6 0 12 -6t6 -13v-67q0 -7 -6 -13t-12 -6h-164q-8 0 -13.5 6 t-5.5 13v123q0 8 -5.5 13t-12.5 5h-111q-8 0 -13 -5t-5 -13v-123q0 -7 -6 -13t-13 -6h-161q-8 0 -13.5 6t-5.5 13z" />
<glyph unicode="&#xeb;" d="M25 43v885q0 8 5.5 13t12.5 5h897q8 0 13 -5t5 -13v-492q0 -8 -5 -13t-13 -5h-672q-8 0 -13 5t-5 13v58q0 8 5 13t13 5h568q8 0 13 5t5 13v306q0 8 -5 13t-13 5h-689q-7 0 -12.5 -5t-5.5 -13v-701q0 -7 5.5 -12.5t12.5 -5.5h793q7 0 12.5 -5.5t5.5 -13.5v-55 q0 -7 -5 -12.5t-13 -5.5h-897q-7 0 -12.5 5.5t-5.5 12.5zM307 1358v80q0 7 5.5 12.5t13.5 5.5h67q8 0 13.5 -5.5t5.5 -12.5v-80q0 -8 -6 -13.5t-13 -5.5h-67q-8 0 -13.5 5.5t-5.5 13.5zM571 1358v80q0 7 5.5 12.5t13.5 5.5h67q8 0 13.5 -5.5t5.5 -12.5v-80q0 -8 -6 -13.5 t-13 -5.5h-67q-8 0 -13.5 5.5t-5.5 13.5z" />
<glyph unicode="&#xec;" d="M25 43v55q0 8 5.5 13.5t12.5 5.5h416q-8 0 -13.5 5.5t-5.5 12.5v793q0 7 5.5 12.5t13.5 5.5h67q6 0 12.5 -5.5t6.5 -12.5v-793q0 -7 5.5 -12.5t12.5 -5.5h377q7 0 12.5 -5.5t5.5 -13.5v-55q0 -7 -5 -12.5t-13 -5.5h-897q-7 0 -12.5 5.5t-5.5 12.5zM362 1219v225 q0 7 5.5 12.5t13.5 5.5h68q7 0 12.5 -5t5.5 -13v-115q0 -6 5.5 -12t12.5 -6h117q8 0 13.5 -5.5t5.5 -13.5v-73q0 -6 -6 -12.5t-13 -6.5h-221q-7 0 -13 6.5t-6 12.5z" />
<glyph unicode="&#xed;" d="M25 43v55q0 8 5.5 13.5t12.5 5.5h416q-8 0 -13.5 5.5t-5.5 12.5v793q0 7 5.5 12.5t13.5 5.5h67q6 0 12.5 -5.5t6.5 -12.5v-793q0 -7 5.5 -12.5t12.5 -5.5h377q7 0 12.5 -5.5t5.5 -13.5v-55q0 -7 -5 -12.5t-13 -5.5h-897q-7 0 -12.5 5.5t-5.5 12.5zM362 1219v73 q0 8 6 13.5t13 5.5h117q7 0 12.5 6t5.5 12v115q0 7 5.5 12.5t13.5 5.5h67q8 0 13.5 -5.5t5.5 -12.5v-225q0 -6 -6 -12.5t-13 -6.5h-221q-7 0 -13 6.5t-6 12.5z" />
<glyph unicode="&#xee;" d="M25 43v55q0 8 5.5 13.5t12.5 5.5h416q-8 0 -13.5 5.5t-5.5 12.5v793q0 7 5.5 12.5t13.5 5.5h67q6 0 12.5 -5.5t6.5 -12.5v-793q0 -7 5.5 -12.5t12.5 -5.5h377q7 0 12.5 -5.5t5.5 -13.5v-55q0 -7 -5 -12.5t-13 -5.5h-897q-7 0 -12.5 5.5t-5.5 12.5zM219 1223v67 q0 8 5.5 13.5t13.5 5.5h57q7 0 12.5 5.5t5.5 12.5v123q0 7 5.5 12.5t13.5 5.5h319q8 0 13.5 -5.5t5.5 -12.5v-123q0 -7 5 -12.5t13 -5.5h60q6 0 12 -6t6 -13v-67q0 -7 -6 -13t-12 -6h-164q-8 0 -13.5 6t-5.5 13v123q0 8 -5.5 13t-12.5 5h-111q-8 0 -13 -5t-5 -13v-123 q0 -7 -6 -13t-13 -6h-161q-8 0 -13.5 6t-5.5 13z" />
<glyph unicode="&#xef;" d="M25 43v55q0 8 5.5 13.5t12.5 5.5h416q-8 0 -13.5 5.5t-5.5 12.5v793q0 7 5.5 12.5t13.5 5.5h67q6 0 12.5 -5.5t6.5 -12.5v-793q0 -7 5.5 -12.5t12.5 -5.5h377q7 0 12.5 -5.5t5.5 -13.5v-55q0 -7 -5 -12.5t-13 -5.5h-897q-7 0 -12.5 5.5t-5.5 12.5zM307 1358v80 q0 7 5.5 12.5t13.5 5.5h67q8 0 13.5 -5.5t5.5 -12.5v-80q0 -8 -6 -13.5t-13 -5.5h-67q-8 0 -13.5 5.5t-5.5 13.5zM571 1358v80q0 7 5.5 12.5t13.5 5.5h67q8 0 13.5 -5.5t5.5 -12.5v-80q0 -8 -6 -13.5t-13 -5.5h-67q-8 0 -13.5 5.5t-5.5 13.5z" />
<glyph unicode="&#xf0;" d="M25 43v885q0 8 5.5 13t12.5 5h674q6 0 12 -5.5t6 -12.5v-56q0 -7 -6 -12.5t-12 -5.5h-570q-7 0 -12.5 -5t-5.5 -13v-701q0 -7 5.5 -12.5t12.5 -5.5h689q8 0 13 5.5t5 12.5v1217q0 8 -5 13t-13 5h-273q-7 0 -12.5 -5t-5.5 -13v-191q0 -7 -6.5 -12.5t-12.5 -5.5h-67 q-8 0 -13.5 5.5t-5.5 12.5v191q0 7 5.5 12.5t13.5 5.5h-416q-7 0 -12.5 5.5t-5.5 13.5v55q0 8 5.5 13t12.5 5h379q6 0 12 6t6 13t5.5 12.5t13.5 5.5h67q6 0 12.5 -5.5t6.5 -12.5t-6.5 -13t-12.5 -6h414q8 0 13 -5t5 -13v-1401q0 -7 -5 -12.5t-13 -5.5h-897q-7 0 -12.5 5.5 t-5.5 12.5z" />
<glyph unicode="&#xf1;" d="M25 43v885q0 8 5.5 13t12.5 5h897q8 0 13 -5t5 -13v-885q0 -7 -5 -12.5t-13 -5.5h-68q-8 0 -13 5.5t-5 12.5v793q0 8 -5 13t-13 5h-689q-7 0 -12.5 -5t-5.5 -13v-793q0 -7 -5.5 -12.5t-12.5 -5.5h-68q-7 0 -12.5 5.5t-5.5 12.5zM262 1223v67q0 8 6 13.5t13 5.5h141 q6 0 12 5.5t6 12.5v123q0 7 5.5 12.5t13.5 5.5h246q6 0 12 -5.5t6 -12.5v-68q0 -7 -6 -12.5t-12 -5.5h-142q-7 0 -12.5 -5t-5.5 -13v-123q0 -7 -6.5 -13t-12.5 -6h-245q-7 0 -13 6t-6 13z" />
<glyph unicode="&#xf2;" d="M25 43v885q0 8 5.5 13t12.5 5h897q8 0 13 -5t5 -13v-885q0 -7 -5 -12.5t-13 -5.5h-897q-7 0 -12.5 5.5t-5.5 12.5zM129 135q0 -7 5.5 -12.5t12.5 -5.5h689q8 0 13 5.5t5 12.5v701q0 8 -5 13t-13 5h-689q-7 0 -12.5 -5t-5.5 -13v-701zM362 1219v225q0 7 5.5 12.5t13.5 5.5 h68q7 0 12.5 -5t5.5 -13v-115q0 -6 5.5 -12t12.5 -6h117q8 0 13.5 -5.5t5.5 -13.5v-73q0 -6 -6 -12.5t-13 -6.5h-221q-7 0 -13 6.5t-6 12.5z" />
<glyph unicode="&#xf3;" d="M25 43v885q0 8 5.5 13t12.5 5h897q8 0 13 -5t5 -13v-885q0 -7 -5 -12.5t-13 -5.5h-897q-7 0 -12.5 5.5t-5.5 12.5zM129 135q0 -7 5.5 -12.5t12.5 -5.5h689q8 0 13 5.5t5 12.5v701q0 8 -5 13t-13 5h-689q-7 0 -12.5 -5t-5.5 -13v-701zM362 1219v73q0 8 6 13.5t13 5.5h117 q7 0 12.5 6t5.5 12v115q0 7 5.5 12.5t13.5 5.5h67q8 0 13.5 -5.5t5.5 -12.5v-225q0 -6 -6 -12.5t-13 -6.5h-221q-7 0 -13 6.5t-6 12.5z" />
<glyph unicode="&#xf4;" d="M25 43v885q0 8 5.5 13t12.5 5h897q8 0 13 -5t5 -13v-885q0 -7 -5 -12.5t-13 -5.5h-897q-7 0 -12.5 5.5t-5.5 12.5zM129 135q0 -7 5.5 -12.5t12.5 -5.5h689q8 0 13 5.5t5 12.5v701q0 8 -5 13t-13 5h-689q-7 0 -12.5 -5t-5.5 -13v-701zM219 1223v67q0 8 5.5 13.5t13.5 5.5 h57q7 0 12.5 5.5t5.5 12.5v123q0 7 5.5 12.5t13.5 5.5h319q8 0 13.5 -5.5t5.5 -12.5v-123q0 -7 5 -12.5t13 -5.5h60q6 0 12 -6t6 -13v-67q0 -7 -6 -13t-12 -6h-164q-8 0 -13.5 6t-5.5 13v123q0 8 -5.5 13t-12.5 5h-111q-8 0 -13 -5t-5 -13v-123q0 -7 -6 -13t-13 -6h-161 q-8 0 -13.5 6t-5.5 13z" />
<glyph unicode="&#xf5;" d="M25 43v885q0 8 5.5 13t12.5 5h897q8 0 13 -5t5 -13v-885q0 -7 -5 -12.5t-13 -5.5h-897q-7 0 -12.5 5.5t-5.5 12.5zM129 135q0 -7 5.5 -12.5t12.5 -5.5h689q8 0 13 5.5t5 12.5v701q0 8 -5 13t-13 5h-689q-7 0 -12.5 -5t-5.5 -13v-701zM262 1223v67q0 8 6 13.5t13 5.5h141 q6 0 12 5.5t6 12.5v123q0 7 5.5 12.5t13.5 5.5h246q6 0 12 -5.5t6 -12.5v-68q0 -7 -6 -12.5t-12 -5.5h-142q-7 0 -12.5 -5t-5.5 -13v-123q0 -7 -6.5 -13t-12.5 -6h-245q-7 0 -13 6t-6 13z" />
<glyph unicode="&#xf6;" d="M25 43v885q0 8 5.5 13t12.5 5h897q8 0 13 -5t5 -13v-885q0 -7 -5 -12.5t-13 -5.5h-897q-7 0 -12.5 5.5t-5.5 12.5zM129 135q0 -7 5.5 -12.5t12.5 -5.5h689q8 0 13 5.5t5 12.5v701q0 8 -5 13t-13 5h-689q-7 0 -12.5 -5t-5.5 -13v-701zM307 1358v80q0 7 5.5 12.5t13.5 5.5 h67q8 0 13.5 -5.5t5.5 -12.5v-80q0 -8 -6 -13.5t-13 -5.5h-67q-8 0 -13.5 5.5t-5.5 13.5zM571 1358v80q0 7 5.5 12.5t13.5 5.5h67q8 0 13.5 -5.5t5.5 -12.5v-80q0 -8 -6 -13.5t-13 -5.5h-67q-8 0 -13.5 5.5t-5.5 13.5z" />
<glyph unicode="&#xf7;" d="M25 459v55q0 8 5.5 13t12.5 5h897q8 0 13 -5t5 -13v-55q0 -8 -5.5 -13.5t-12.5 -5.5h-897q-7 0 -12.5 5.5t-5.5 13.5zM418 43v147q0 8 5.5 13.5t12.5 5.5h111q7 0 12.5 -5.5t5.5 -13.5v-147q0 -7 -5.5 -12.5t-12.5 -5.5h-111q-8 0 -13 5.5t-5 12.5zM418 780v148q0 8 5 13 t13 5h111q7 0 12.5 -5t5.5 -13v-148q0 -8 -5.5 -13t-12.5 -5h-111q-8 0 -13 5t-5 13z" />
<glyph unicode="&#xf8;" d="M25 43v55q0 8 5.5 13.5t12.5 5.5h111q-8 0 -13.5 5.5t-5.5 12.5v793q0 7 5.5 12.5t13.5 5.5h811q7 0 12.5 -5t5.5 -13v-56q0 -8 -5.5 -13t-12.5 -5h-136q8 0 13.5 -5.5t5.5 -12.5v-793q0 -7 -5.5 -12.5t-13.5 -5.5h-786q-7 0 -12.5 5.5t-5.5 12.5zM240 135q0 -7 5 -12.5 t13 -5.5h467q7 0 12.5 5.5t5.5 12.5v324q0 -8 -5.5 -13.5t-12.5 -5.5h-467q-8 0 -13 -5t-5 -13v-287zM240 514q0 8 5 13t13 5h467q7 0 12.5 5.5t5.5 13.5v285q0 8 -5.5 13t-12.5 5h-467q-8 0 -13 -5t-5 -13v-322z" />
<glyph unicode="&#xf9;" d="M25 43v885q0 8 5.5 13t12.5 5h68q7 0 12.5 -5t5.5 -13v-793q0 -7 5.5 -12.5t12.5 -5.5h689q8 0 13 5.5t5 12.5v793q0 8 5 13t13 5h68q8 0 13 -5t5 -13v-885q0 -7 -5 -12.5t-13 -5.5h-897q-7 0 -12.5 5.5t-5.5 12.5zM362 1219v225q0 7 5.5 12.5t13.5 5.5h68q7 0 12.5 -5 t5.5 -13v-115q0 -6 5.5 -12t12.5 -6h117q8 0 13.5 -5.5t5.5 -13.5v-73q0 -6 -6 -12.5t-13 -6.5h-221q-7 0 -13 6.5t-6 12.5z" />
<glyph unicode="&#xfa;" d="M25 43v885q0 8 5.5 13t12.5 5h68q7 0 12.5 -5t5.5 -13v-793q0 -7 5.5 -12.5t12.5 -5.5h689q8 0 13 5.5t5 12.5v793q0 8 5 13t13 5h68q8 0 13 -5t5 -13v-885q0 -7 -5 -12.5t-13 -5.5h-897q-7 0 -12.5 5.5t-5.5 12.5zM362 1219v73q0 8 6 13.5t13 5.5h117q7 0 12.5 6t5.5 12 v115q0 7 5.5 12.5t13.5 5.5h67q8 0 13.5 -5.5t5.5 -12.5v-225q0 -6 -6 -12.5t-13 -6.5h-221q-7 0 -13 6.5t-6 12.5z" />
<glyph unicode="&#xfb;" d="M25 43v885q0 8 5.5 13t12.5 5h68q7 0 12.5 -5t5.5 -13v-793q0 -7 5.5 -12.5t12.5 -5.5h689q8 0 13 5.5t5 12.5v793q0 8 5 13t13 5h68q8 0 13 -5t5 -13v-885q0 -7 -5 -12.5t-13 -5.5h-897q-7 0 -12.5 5.5t-5.5 12.5zM219 1223v67q0 8 5.5 13.5t13.5 5.5h57q7 0 12.5 5.5 t5.5 12.5v123q0 7 5.5 12.5t13.5 5.5h319q8 0 13.5 -5.5t5.5 -12.5v-123q0 -7 5 -12.5t13 -5.5h60q6 0 12 -6t6 -13v-67q0 -7 -6 -13t-12 -6h-164q-8 0 -13.5 6t-5.5 13v123q0 8 -5.5 13t-12.5 5h-111q-8 0 -13 -5t-5 -13v-123q0 -7 -6 -13t-13 -6h-161q-8 0 -13.5 6 t-5.5 13z" />
<glyph unicode="&#xfc;" d="M25 43v885q0 8 5.5 13t12.5 5h68q7 0 12.5 -5t5.5 -13v-793q0 -7 5.5 -12.5t12.5 -5.5h689q8 0 13 5.5t5 12.5v793q0 8 5 13t13 5h68q8 0 13 -5t5 -13v-885q0 -7 -5 -12.5t-13 -5.5h-897q-7 0 -12.5 5.5t-5.5 12.5zM307 1358v80q0 7 5.5 12.5t13.5 5.5h67q8 0 13.5 -5.5 t5.5 -12.5v-80q0 -8 -6 -13.5t-13 -5.5h-67q-8 0 -13.5 5.5t-5.5 13.5zM571 1358v80q0 7 5.5 12.5t13.5 5.5h67q8 0 13.5 -5.5t5.5 -12.5v-80q0 -8 -6 -13.5t-13 -5.5h-67q-8 0 -13.5 5.5t-5.5 13.5z" />
<glyph unicode="&#xfd;" d="M25 43v885q0 8 5.5 13t12.5 5h68q7 0 12.5 -5t5.5 -13v-793q0 -7 5.5 -12.5t12.5 -5.5h689q8 0 13 5.5t5 12.5v793q0 8 5 13t13 5h68q8 0 13 -5t5 -13v-1409q0 -8 -5.5 -13.5t-12.5 -5.5h-897q-7 0 -12.5 5.5t-5.5 13.5v55q0 8 5.5 13t12.5 5h793q7 0 12.5 5.5t5.5 13.5 v432q0 -7 -5 -12.5t-13 -5.5h-793q-7 0 -12.5 5.5t-5.5 12.5zM362 1219v73q0 8 6 13.5t13 5.5h117q7 0 12.5 6t5.5 12v115q0 7 5.5 12.5t13.5 5.5h67q8 0 13.5 -5.5t5.5 -12.5v-225q0 -6 -6 -12.5t-13 -6.5h-221q-7 0 -13 6.5t-6 12.5z" />
<glyph unicode="&#xfe;" d="M25 -481v1962q0 7 5.5 12.5t12.5 5.5h68q7 0 12.5 -5.5t5.5 -12.5v-553q0 8 5.5 13t12.5 5h793q8 0 13 -5t5 -13v-885q0 -7 -5 -12.5t-13 -5.5h-793q-7 0 -12.5 5.5t-5.5 12.5v-524q0 -8 -5.5 -13.5t-12.5 -5.5h-68q-7 0 -12.5 5.5t-5.5 13.5zM129 135q0 -7 5.5 -12.5 t12.5 -5.5h689q8 0 13 5.5t5 12.5v701q0 8 -5 13t-13 5h-689q-7 0 -12.5 -5t-5.5 -13v-701z" />
<glyph unicode="&#xff;" d="M25 43v885q0 8 5.5 13t12.5 5h68q7 0 12.5 -5t5.5 -13v-793q0 -7 5.5 -12.5t12.5 -5.5h689q8 0 13 5.5t5 12.5v793q0 8 5 13t13 5h68q8 0 13 -5t5 -13v-1409q0 -8 -5.5 -13.5t-12.5 -5.5h-897q-7 0 -12.5 5.5t-5.5 13.5v55q0 8 5.5 13t12.5 5h793q7 0 12.5 5.5t5.5 13.5 v432q0 -7 -5 -12.5t-13 -5.5h-793q-7 0 -12.5 5.5t-5.5 12.5zM307 1358v80q0 7 5.5 12.5t13.5 5.5h67q8 0 13.5 -5.5t5.5 -12.5v-80q0 -8 -6 -13.5t-13 -5.5h-67q-8 0 -13.5 5.5t-5.5 13.5zM571 1358v80q0 7 5.5 12.5t13.5 5.5h67q8 0 13.5 -5.5t5.5 -12.5v-80 q0 -8 -6 -13.5t-13 -5.5h-67q-8 0 -13.5 5.5t-5.5 13.5z" />
<glyph unicode="&#x152;" d="M25 43v1401q0 8 5.5 13t12.5 5h895q8 0 13 -5t5 -13v-55q0 -8 -5.5 -13.5t-12.5 -5.5h-309q-8 0 -13.5 -5.5t-5.5 -12.5v-424q0 7 5.5 12.5t13.5 5.5h309q8 0 13 -5t5 -13v-56q0 -8 -5 -13t-13 -5h-309q-8 0 -13.5 -5.5t-5.5 -12.5v-701q0 -7 5.5 -12.5t13.5 -5.5h309 q7 0 12.5 -5.5t5.5 -13.5v-55q0 -7 -5 -12.5t-13 -5.5h-895q-7 0 -12.5 5.5t-5.5 12.5zM129 135q0 -7 5.5 -12.5t12.5 -5.5h377q-8 0 -13 5.5t-5 12.5v1217q0 8 5 13t13 5h-377q-7 0 -12.5 -5t-5.5 -13v-1217z" />
<glyph unicode="&#x153;" d="M25 43v885q0 8 5.5 13t12.5 5h897q8 0 13 -5t5 -13v-492q0 -8 -5 -13t-13 -5h-217q-7 0 -12.5 5t-5.5 13v56q0 8 5.5 13t12.5 5h113q8 0 13 5t5 13v308q0 8 -5 13t-13 5h-234q-8 0 -13 -5t-5 -13v-701q0 -7 5 -12.5t13 -5.5h338q7 0 12.5 -5.5t5.5 -13.5v-55 q0 -7 -5 -12.5t-13 -5.5h-897q-7 0 -12.5 5.5t-5.5 12.5zM129 135q0 -7 5.5 -12.5t12.5 -5.5h351q-8 0 -13.5 5.5t-5.5 12.5v701q0 7 5.5 12.5t13.5 5.5h-351q-7 0 -12.5 -5t-5.5 -13v-701z" />
<glyph unicode="&#x178;" d="M25 872v572q0 8 5.5 13t12.5 5h68q7 0 12.5 -5t5.5 -13v-479q0 -8 5.5 -13.5t12.5 -5.5h689q7 0 12.5 5.5t5.5 13.5v479q0 8 5 13t13 5h68q8 0 13 -5t5 -13v-572q0 -8 -5 -13t-13 -5h-414q6 0 12.5 -5.5t6.5 -12.5v-793q0 -7 -6.5 -12.5t-12.5 -5.5h-67q-8 0 -13.5 5.5 t-5.5 12.5v793q0 7 -6 12.5t-12 5.5h-379q-7 0 -12.5 5t-5.5 13zM307 1599v80q0 7 5.5 13t13.5 6h67q7 0 13 -6t6 -13v-80q0 -7 -5.5 -12.5t-13.5 -5.5h-67q-8 0 -13.5 5.5t-5.5 12.5zM571 1599v80q0 7 5.5 13t13.5 6h67q7 0 13 -6t6 -13v-80q0 -7 -5.5 -12.5t-13.5 -5.5 h-67q-8 0 -13.5 5.5t-5.5 12.5z" />
<glyph unicode="&#x2c6;" d="M0 1223v67q0 8 5.5 13.5t12.5 5.5h58q8 0 13 5.5t5 12.5v123q0 7 5.5 12.5t13.5 5.5h319q8 0 13.5 -5.5t5.5 -12.5v-123q0 -7 5.5 -12.5t12.5 -5.5h59q6 0 12.5 -6t6.5 -13v-67q0 -7 -6.5 -13t-12.5 -6h-163q-7 0 -13 6t-6 13v123q0 8 -5 13t-13 5h-111q-7 0 -12.5 -5 t-5.5 -13v-123q0 -7 -5.5 -13t-13.5 -6h-162q-7 0 -12.5 5.5t-5.5 13.5z" />
<glyph unicode="&#x2dc;" d="M0 1217v67q0 6 5.5 12.5t12.5 6.5h142q6 0 12 5.5t6 12.5v123q0 6 6 12t13 6h245q6 0 12.5 -6t6.5 -12v-68q0 -7 -6.5 -12.5t-12.5 -5.5h-141q-7 0 -12.5 -6.5t-5.5 -12.5v-122q0 -7 -6.5 -13t-12.5 -6h-246q-7 0 -12.5 5.5t-5.5 13.5z" />
<glyph unicode="&#x2000;" horiz-adv-x="941" />
<glyph unicode="&#x2001;" horiz-adv-x="1882" />
<glyph unicode="&#x2002;" horiz-adv-x="941" />
<glyph unicode="&#x2003;" horiz-adv-x="1882" />
<glyph unicode="&#x2004;" horiz-adv-x="627" />
<glyph unicode="&#x2005;" horiz-adv-x="470" />
<glyph unicode="&#x2006;" horiz-adv-x="313" />
<glyph unicode="&#x2007;" horiz-adv-x="313" />
<glyph unicode="&#x2008;" horiz-adv-x="235" />
<glyph unicode="&#x2009;" horiz-adv-x="376" />
<glyph unicode="&#x200a;" horiz-adv-x="104" />
<glyph unicode="&#x2010;" d="M244 459v55q0 8 5 13t13 5h529q7 0 12.5 -5t5.5 -13v-55q0 -8 -5.5 -13.5t-12.5 -5.5h-529q-7 0 -12.5 5.5t-5.5 13.5z" />
<glyph unicode="&#x2011;" d="M244 459v55q0 8 5 13t13 5h529q7 0 12.5 -5t5.5 -13v-55q0 -8 -5.5 -13.5t-12.5 -5.5h-529q-7 0 -12.5 5.5t-5.5 13.5z" />
<glyph unicode="&#x2012;" d="M244 459v55q0 8 5 13t13 5h529q7 0 12.5 -5t5.5 -13v-55q0 -8 -5.5 -13.5t-12.5 -5.5h-529q-7 0 -12.5 5.5t-5.5 13.5z" />
<glyph unicode="&#x2013;" d="M86 459v55q0 8 5 13t13 5h775q7 0 12.5 -5t5.5 -13v-55q0 -8 -5.5 -13.5t-12.5 -5.5h-775q-7 0 -12.5 5.5t-5.5 13.5z" />
<glyph unicode="&#x2014;" d="M25 449v73q0 8 5.5 13.5t12.5 5.5h897q7 0 12.5 -5.5t5.5 -13.5v-73q0 -8 -5.5 -13.5t-12.5 -5.5h-897q-7 0 -12.5 5.5t-5.5 13.5z" />
<glyph unicode="&#x2018;" d="M399 1094v350q0 7 5.5 12.5t13.5 5.5h55q8 0 13.5 -5.5t5.5 -12.5v-168q3 -16 18 -16h55q7 0 13 -6t6 -13v-147q0 -8 -6 -13.5t-13 -5.5h-147q-8 0 -13.5 5.5t-5.5 13.5z" />
<glyph unicode="&#x2019;" d="M399 1296v148q0 7 5.5 12.5t13.5 5.5h147q8 0 13.5 -5.5t5.5 -12.5v-350q0 -8 -6 -13.5t-13 -5.5h-55q-7 0 -12.5 5.5t-5.5 13.5v168q-3 16 -19 16h-55q-8 0 -13.5 5.5t-5.5 12.5z" />
<glyph unicode="&#x201c;" d="M289 1094v350q0 8 5.5 13t12.5 5h55q8 0 13.5 -5.5t5.5 -12.5v-168q3 -16 18 -16h19q7 0 12.5 -5.5t5.5 -13.5v-147q0 -8 -5.5 -13.5t-12.5 -5.5h-111q-7 0 -12.5 5.5t-5.5 13.5zM510 1094v350q0 8 5 13t13 5h56q8 0 13 -5t5 -13v-168q3 -16 19 -16h18q7 0 12.5 -5.5 t5.5 -13.5v-147q0 -8 -5.5 -13.5t-12.5 -5.5h-111q-7 0 -12.5 5.5t-5.5 13.5z" />
<glyph unicode="&#x201d;" d="M289 1296v148q0 8 5.5 13t12.5 5h111q8 0 13 -5t5 -13v-350q0 -8 -5.5 -13.5t-12.5 -5.5h-56q-7 0 -12.5 5.5t-5.5 13.5v168q-3 16 -18 16h-19q-7 0 -12.5 5t-5.5 13zM510 1296v148q0 8 5 13t13 5h111q7 0 12.5 -5t5.5 -13v-350q0 -8 -5.5 -13.5t-12.5 -5.5h-55 q-8 0 -13.5 5.5t-5.5 13.5v168q-3 16 -18 16h-19q-8 0 -13 5t-5 13z" />
<glyph unicode="&#x201e;" d="M289 43v147q0 8 5.5 13.5t12.5 5.5h111q7 0 12.5 -5.5t5.5 -13.5v-350q0 -8 -5 -13t-13 -5h-56q-8 0 -13 5t-5 13v168q-3 17 -18 17h-19q-7 0 -12.5 5.5t-5.5 12.5zM510 43v147q0 8 5.5 13.5t12.5 5.5h111q7 0 12.5 -5.5t5.5 -13.5v-350q0 -8 -5.5 -13t-12.5 -5h-55 q-8 0 -13.5 5.5t-5.5 12.5v168q-3 17 -18 17h-19q-8 0 -13 5.5t-5 12.5z" />
<glyph unicode="&#x2022;" d="M375 707v221q0 8 5.5 13t12.5 5h178q8 0 13.5 -5.5t5.5 -12.5v-221q0 -7 -6 -13t-13 -6h-178q-7 0 -12.5 5.5t-5.5 13.5z" />
<glyph unicode="&#x2026;" d="M25 43v147q0 8 5.5 13.5t12.5 5.5h111q7 0 12.5 -5.5t5.5 -13.5v-147q0 -7 -5 -12.5t-13 -5.5h-111q-7 0 -12.5 5.5t-5.5 12.5zM416 43v147q0 8 5.5 13.5t12.5 5.5h111q7 0 12.5 -5.5t5.5 -13.5v-147q0 -7 -5.5 -12.5t-12.5 -5.5h-111q-8 0 -13 5.5t-5 12.5zM807 43v147 q0 8 5.5 13.5t12.5 5.5h111q7 0 12.5 -5.5t5.5 -13.5v-147q0 -7 -5 -12.5t-13 -5.5h-111q-7 0 -12.5 5.5t-5.5 12.5z" />
<glyph unicode="&#x202f;" horiz-adv-x="376" />
<glyph unicode="&#x2039;" d="M188 334v293q0 7 5.5 12.5t13.5 5.5h153q7 0 13 6.5t6 12.5v116q0 8 5.5 13.5t12.5 5.5h205q8 0 13.5 -5.5t5.5 -13.5v-55q0 -6 -6 -12t-13 -6h-100q-8 0 -13.5 -5.5t-5.5 -13.5v-117q0 -6 -5.5 -12t-12.5 -6h-160q-7 0 -12.5 -5.5t-5.5 -12.5v-91q0 -6 5.5 -12t12.5 -6 h160q7 0 12.5 -5t5.5 -13v-125q0 -7 5.5 -13t13.5 -6h100q8 0 13.5 -5.5t5.5 -12.5v-56q0 -7 -5.5 -12.5t-13.5 -5.5h-205q-7 0 -12.5 5t-5.5 13v107q0 7 -5.5 12.5t-13.5 5.5h-153q-7 0 -13 6.5t-6 12.5z" />
<glyph unicode="&#x203a;" d="M188 190v56q0 7 5.5 12.5t13.5 5.5h100q7 0 13 6t6 13v116q0 8 5.5 13.5t12.5 5.5h160q8 0 13 5t5 13v90q0 8 -5.5 13.5t-12.5 5.5h-160q-8 0 -13 5.5t-5 12.5v125q0 8 -6 13.5t-13 5.5h-100q-7 0 -13 6t-6 12v55q0 8 6 13.5t13 5.5h205q7 0 12.5 -5.5t5.5 -13.5v-106 q0 -8 6 -13.5t13 -5.5h153q8 0 13.5 -5.5t5.5 -12.5v-293q0 -7 -5.5 -12.5t-13.5 -5.5h-153q-7 0 -13 -6t-6 -13v-117q0 -8 -5 -13t-13 -5h-205q-8 0 -13.5 5.5t-5.5 12.5z" />
<glyph unicode="&#x205f;" horiz-adv-x="470" />
<glyph unicode="&#x20ac;" d="M25 561v55q0 6 5.5 12.5t12.5 6.5h221q7 0 13 -6.5t6 -12.5v215q0 6 -6 12.5t-13 6.5h-221q-7 0 -12.5 5t-5.5 13v56q0 6 5.5 12t12.5 6h221q7 0 13 -6t6 -12v520q0 8 5.5 13t12.5 5h639q8 0 13 -5t5 -13v-55q0 -8 -5.5 -13.5t-12.5 -5.5h-534q-8 0 -13.5 -5.5 t-5.5 -12.5v-391q0 -7 5.5 -13t13.5 -6h485q7 0 12.5 -6t5.5 -12v-56q0 -8 -5.5 -13t-12.5 -5h-485q-8 0 -13.5 5.5t-5.5 12.5v-215q0 -7 5.5 -12.5t13.5 -5.5h411q7 0 13 -6.5t6 -12.5v-55q0 -7 -5.5 -12.5t-13.5 -5.5h-411q-8 0 -13.5 5.5t-5.5 12.5v-426q0 -7 5.5 -12.5 t13.5 -5.5h534q7 0 12.5 -5.5t5.5 -13.5v-55q0 -7 -5 -12.5t-13 -5.5h-639q-7 0 -12.5 5.5t-5.5 12.5v481q0 6 -6 12.5t-13 6.5h-221q-7 0 -12.5 5.5t-5.5 12.5z" />
<glyph unicode="&#x2122;" d="M25 1389v55q0 8 5.5 13t12.5 5h326q7 0 12.5 -5t5.5 -13v-55q0 -8 -5.5 -13.5t-12.5 -5.5h-129q8 0 13 -5t5 -13v-400q0 -8 -5 -13t-13 -5h-68q-8 0 -13 5t-5 13v400q0 7 -5.5 12.5t-13.5 5.5h-92q-7 0 -12.5 5.5t-5.5 13.5zM473 952v498q0 7 5.5 12.5t13.5 5.5h436 q8 0 13 -5t5 -13v-498q0 -8 -5 -13t-13 -5h-68q-8 0 -13 5t-5 13v394q0 7 -5.5 12.5t-13.5 5.5h-80q8 0 13.5 -5.5t5.5 -12.5v-394q0 -7 -5.5 -12.5t-13.5 -5.5h-67q-8 0 -13.5 5.5t-5.5 12.5v394q0 8 -5.5 13t-12.5 5h-43q-8 0 -13 -5t-5 -13v-394q0 -7 -5.5 -12.5 t-13.5 -5.5h-67q-8 0 -13.5 5.5t-5.5 12.5z" />
<glyph unicode="&#x25fc;" horiz-adv-x="942" d="M0 0v942h942v-942h-942z" />
</font>
</defs>
</svg>
